Barlow-Light.ufo
<glyph name="quotedbl" format="1">
  <advance width="156"/>
  <unicode hex="0022"/>
  <outline>
    <contour>
      <point x="113" y="500" type="line"/>
      <point x="116" y="692" type="line"/>
      <point x="90" y="692" type="line"/>
      <point x="93" y="500" type="line"/>
    </contour>
    <contour>
      <point x="23" y="500" type="line"/>
      <point x="26" y="692" type="line"/>
      <point x="0" y="692" type="line"/>
      <point x="3" y="500" type="line"/>
    </contour>
  </outline>
</glyph>
<glyph name="numbersign" format="1">
  <advance width="610"/>
  <unicode hex="0023"/>
  <outline>
    <contour>
      <point x="248" y="675" type="line"/>
      <point x="226" y="677" type="line"/>
      <point x="133" y="11" type="line"/>
      <point x="155" y="9" type="line"/>
    </contour>
    <contour>
      <point x="478" y="675" type="line"/>
      <point x="456" y="677" type="line"/>
      <point x="363" y="11" type="line"/>
      <point x="385" y="9" type="line"/>
    </contour>
    <contour>
      <point x="112" y="468" type="line"/>
      <point x="112" y="447" type="line"/>
      <point x="530" y="447" type="line"/>
      <point x="530" y="468" type="line"/>
    </contour>
    <contour>
      <point x="80" y="238" type="line"/>
      <point x="80" y="217" type="line"/>
      <point x="498" y="217" type="line"/>
      <point x="498" y="238" type="line"/>
    </contour>
  </outline>
</glyph>
<glyph name="dollar" format="1">
  <advance width="507"/>
  <unicode hex="0024"/>
  <outline>
    <contour>
      <point x="271" y="-88" type="line"/>
      <point x="271" y="2" type="line"/>
      <point x="248" y="2" type="line"/>
      <point x="248" y="-88" type="line"/>
    </contour>
    <contour>
      <point x="263" y="702" type="line"/>
      <point x="263" y="792" type="line"/>
      <point x="241" y="792" type="line"/>
      <point x="241" y="702" type="line"/>
    </contour>
    <component base="S" xOffset="-11"/>
  </outline>
</glyph>
<glyph name="percent" format="1">
  <advance width="838"/>
  <unicode hex="0025"/>
  <outline>
    <contour>
      <point x="624" y="700" type="line"/>
      <point x="602" y="700" type="line"/>
      <point x="213" y="0" type="line"/>
      <point x="235" y="0" type="line"/>
    </contour>
    <contour>
      <point x="675" y="-10"/>
      <point x="734" y="49"/>
      <point x="734" y="122" type="curve" smooth="yes"/>
      <point x="734" y="194"/>
      <point x="675" y="253"/>
      <point x="602" y="253" type="curve" smooth="yes"/>
      <point x="528" y="253"/>
      <point x="469" y="195"/>
      <point x="469" y="122" type="curve" smooth="yes"/>
      <point x="469" y="49"/>
      <point x="528" y="-10"/>
      <point x="602" y="-10" type="curve" smooth="yes"/>
    </contour>
    <contour>
      <point x="540" y="11"/>
      <point x="491" y="60"/>
      <point x="491" y="122" type="curve" smooth="yes"/>
      <point x="491" y="183"/>
      <point x="540" y="232"/>
      <point x="602" y="232" type="curve" smooth="yes"/>
      <point x="663" y="232"/>
      <point x="712" y="183"/>
      <point x="712" y="122" type="curve" smooth="yes"/>
      <point x="712" y="61"/>
      <point x="663" y="11"/>
      <point x="602" y="11" type="curve" smooth="yes"/>
    </contour>
    <contour>
      <point x="310" y="447"/>
      <point x="369" y="506"/>
      <point x="369" y="579" type="curve" smooth="yes"/>
      <point x="369" y="651"/>
      <point x="310" y="710"/>
      <point x="237" y="710" type="curve" smooth="yes"/>
      <point x="163" y="710"/>
      <point x="104" y="652"/>
      <point x="104" y="579" type="curve" smooth="yes"/>
      <point x="104" y="506"/>
      <point x="163" y="447"/>
      <point x="237" y="447" type="curve" smooth="yes"/>
    </contour>
    <contour>
      <point x="175" y="468"/>
      <point x="126" y="517"/>
      <point x="126" y="579" type="curve" smooth="yes"/>
      <point x="126" y="640"/>
      <point x="175" y="689"/>
      <point x="237" y="689" type="curve" smooth="yes"/>
      <point x="298" y="689"/>
      <point x="347" y="640"/>
      <point x="347" y="579" type="curve" smooth="yes"/>
      <point x="347" y="518"/>
      <point x="298" y="468"/>
      <point x="237" y="468" type="curve" smooth="yes"/>
    </contour>
  </outline>
</glyph>
<glyph name="ampersand" format="1">
  <advance width="598"/>
  <unicode hex="0026"/>
  <outline>
    <contour>
      <point x="351" y="-8"/>
      <point x="403" y="56"/>
      <point x="523" y="224" type="curve"/>
      <point x="505" y="236" type="line"/>
      <point x="384" y="68"/>
      <point x="339" y="13"/>
      <point x="237" y="13" type="curve" smooth="yes"/>
      <point x="143" y="13"/>
      <point x="83" y="60"/>
      <point x="83" y="145" type="curve" smooth="yes"/>
      <point x="83" y="337"/>
      <point x="392" y="391"/>
      <point x="392" y="576" type="curve" smooth="yes"/>
      <point x="392" y="656"/>
      <point x="335" y="708"/>
      <point x="253" y="708" type="curve" smooth="yes"/>
      <point x="171" y="708"/>
      <point x="114" y="656"/>
      <point x="114" y="572" type="curve" smooth="yes"/>
      <point x="114" y="502"/>
      <point x="153" y="456"/>
      <point x="224" y="361" type="curve"/>
      <point x="510" y="0" type="line"/>
      <point x="537" y="0" type="line"/>
      <point x="242" y="375" type="line"/>
      <point x="176" y="463"/>
      <point x="136" y="507"/>
      <point x="136" y="572" type="curve" smooth="yes"/>
      <point x="136" y="643"/>
      <point x="184" y="686"/>
      <point x="253" y="686" type="curve" smooth="yes"/>
      <point x="322" y="686"/>
      <point x="370" y="643"/>
      <point x="370" y="577" type="curve" smooth="yes"/>
      <point x="370" y="410"/>
      <point x="61" y="353"/>
      <point x="61" y="146" type="curve" smooth="yes"/>
      <point x="61" y="44"/>
      <point x="128" y="-8"/>
      <point x="237" y="-8" type="curve" smooth="yes"/>
    </contour>
  </outline>
</glyph>
<glyph name="quotesingle" format="1">
  <advance width="106"/>
  <unicode hex="0027"/>
  <outline>
    <contour>
      <point x="63" y="507" type="line"/>
      <point x="66" y="697" type="line"/>
      <point x="40" y="697" type="line"/>
      <point x="43" y="507" type="line"/>
    </contour>
  </outline>
</glyph>
<glyph name="parenleft" format="1">
  <advance width="200"/>
  <unicode hex="0028"/>
  <outline>
    <contour>
      <point x="90" y="-113" type="curve"/>
      <point x="114" y="-113" type="line"/>
      <point x="57" y="-17"/>
      <point x="19" y="157"/>
      <point x="19" y="322" type="curve" smooth="yes"/>
      <point x="19" y="490"/>
      <point x="57" y="668"/>
      <point x="114" y="766" type="curve"/>
      <point x="93" y="766" type="line"/>
      <point x="33" y="667"/>
      <point x="-7" y="489"/>
      <point x="-7" y="320" type="curve" smooth="yes"/>
      <point x="-7" y="156"/>
      <point x="32" y="-17"/>
    </contour>
  </outline>
</glyph>
<glyph name="asterisk" format="1">
  <advance width="372"/>
  <unicode hex="002A"/>
  <outline>
    <contour>
      <point x="338" y="669" type="line"/>
      <point x="197" y="588" type="line"/>
      <point x="197" y="747" type="line"/>
      <point x="175" y="747" type="line"/>
      <point x="175" y="588" type="line"/>
      <point x="34" y="669" type="line"/>
      <point x="24" y="651" type="line"/>
      <point x="164" y="570" type="line"/>
      <point x="24" y="489" type="line"/>
      <point x="34" y="471" type="line"/>
      <point x="175" y="552" type="line"/>
      <point x="175" y="393" type="line"/>
      <point x="197" y="393" type="line"/>
      <point x="197" y="552" type="line"/>
      <point x="338" y="471" type="line"/>
      <point x="348" y="489" type="line"/>
      <point x="208" y="570" type="line"/>
      <point x="348" y="651" type="line"/>
    </contour>
  </outline>
</glyph>
<glyph name="plus" format="1">
  <advance width="548"/>
  <unicode hex="002B"/>
  <outline>
    <contour>
      <point x="502" y="312" type="line"/>
      <point x="502" y="332" type="line"/>
      <point x="46" y="332" type="line"/>
      <point x="46" y="312" type="line"/>
    </contour>
    <contour>
      <point x="284" y="550" type="line"/>
      <point x="264" y="550" type="line"/>
      <point x="264" y="94" type="line"/>
      <point x="284" y="94" type="line"/>
    </contour>
  </outline>
</glyph>
<glyph name="comma" format="1">
  <advance width="264"/>
  <unicode hex="002C"/>
  <outline>
    <contour>
      <point x="105" y="-66" type="line"/>
      <point x="161" y="153" type="line"/>
      <point x="139" y="153" type="line"/>
      <point x="83" y="-66" type="line"/>
    </contour>
  </outline>
</glyph>
<glyph name="hyphen" format="1">
  <advance width="344"/>
  <unicode hex="002D"/>
  <outline>
    <contour>
      <point x="298" y="271" type="line"/>
      <point x="298" y="292" type="line"/>
      <point x="46" y="292" type="line"/>
      <point x="46" y="271" type="line"/>
    </contour>
  </outline>
</glyph>
<glyph name="slash" format="1">
  <advance width="296"/>
  <unicode hex="002F"/>
  <outline>
    <contour>
      <point x="58" y="0" type="line"/>
      <point x="260" y="700" type="line"/>
      <point x="238" y="700" type="line"/>
      <point x="36" y="0" type="line"/>
    </contour>
  </outline>
</glyph>
<glyph name="zero" format="1">
  <advance width="561"/>
  <unicode hex="0030"/>
  <outline>
    <contour>
      <point x="279" y="-9" type="curve" smooth="yes"/>
      <point x="395" y="-9"/>
      <point x="473" y="64"/>
      <point x="473" y="174" type="curve" smooth="yes"/>
      <point x="473" y="526" type="line" smooth="yes"/>
      <point x="473" y="636"/>
      <point x="395" y="709"/>
      <point x="279" y="709" type="curve" smooth="yes"/>
      <point x="164" y="709"/>
      <point x="88" y="636"/>
      <point x="88" y="526" type="curve" smooth="yes"/>
      <point x="88" y="174" type="line" smooth="yes"/>
      <point x="88" y="64"/>
      <point x="164" y="-9"/>
    </contour>
    <contour>
      <point x="279" y="12" type="curve" smooth="yes"/>
      <point x="178" y="12"/>
      <point x="110" y="76"/>
      <point x="110" y="172" type="curve" smooth="yes"/>
      <point x="110" y="528" type="line" smooth="yes"/>
      <point x="110" y="624"/>
      <point x="178" y="688"/>
      <point x="279" y="688" type="curve" smooth="yes"/>
      <point x="383" y="688"/>
      <point x="451" y="624"/>
      <point x="451" y="528" type="curve" smooth="yes"/>
      <point x="451" y="172" type="line" smooth="yes"/>
      <point x="451" y="76"/>
      <point x="383" y="12"/>
    </contour>
  </outline>
</glyph>
<glyph name="one" format="1">
  <advance width="346"/>
  <unicode hex="0031"/>
  <outline>
    <contour>
      <point x="229" y="0" type="line"/>
      <point x="229" y="700" type="line"/>
      <point x="207" y="700" type="line"/>
      <point x="207" y="0" type="line"/>
    </contour>
    <contour>
      <point x="207" y="669" type="line"/>
      <point x="207" y="700" type="line"/>
      <point x="72" y="628" type="line"/>
      <point x="72" y="607" type="line"/>
    </contour>
  </outline>
</glyph>
<glyph name="two" format="1">
  <advance width="469"/>
  <unicode hex="0032"/>
  <outline>
    <contour>
      <point x="424" y="0" type="line"/>
      <point x="424" y="21" type="line"/>
      <point x="89" y="21" type="line"/>
      <point x="165" y="122"/>
      <point x="240" y="222"/>
      <point x="316" y="323" type="curve" smooth="yes"/>
      <point x="382" y="410"/>
      <point x="416" y="485"/>
      <point x="416" y="544" type="curve" smooth="yes"/>
      <point x="416" y="642"/>
      <point x="344" y="708"/>
      <point x="237" y="708" type="curve" smooth="yes"/>
      <point x="133" y="708"/>
      <point x="63" y="642"/>
      <point x="63" y="544" type="curve" smooth="yes"/>
      <point x="63" y="500" type="line"/>
      <point x="85" y="500" type="line"/>
      <point x="85" y="544" type="line"/>
      <point x="84" y="630"/>
      <point x="145" y="687"/>
      <point x="237" y="687" type="curve" smooth="yes"/>
      <point x="331" y="687"/>
      <point x="394" y="630"/>
      <point x="394" y="544" type="curve" smooth="yes"/>
      <point x="394" y="490"/>
      <point x="361" y="420"/>
      <point x="298" y="335" type="curve" smooth="yes"/>
      <point x="220" y="230"/>
      <point x="141" y="126"/>
      <point x="63" y="21" type="curve"/>
      <point x="63" y="0" type="line"/>
    </contour>
  </outline>
</glyph>
<glyph name="three" format="1">
  <advance width="534"/>
  <unicode hex="0033"/>
  <outline>
    <contour>
      <point x="355" y="-8"/>
      <point x="421" y="46"/>
      <point x="438" y="123" type="curve" smooth="yes"/>
      <point x="445" y="155"/>
      <point x="443" y="194"/>
      <point x="443" y="205" type="curve" smooth="yes"/>
      <point x="443" y="217"/>
      <point x="445" y="264"/>
      <point x="438" y="297" type="curve" smooth="yes"/>
      <point x="421" y="377"/>
      <point x="357" y="431"/>
      <point x="251" y="426" type="curve"/>
      <point x="251" y="416" type="line"/>
      <point x="442" y="679" type="line"/>
      <point x="442" y="700" type="line"/>
      <point x="88" y="700" type="line"/>
      <point x="88" y="679" type="line"/>
      <point x="416" y="679" type="line"/>
      <point x="222" y="416" type="line"/>
      <point x="233" y="404" type="line"/>
      <point x="242" y="406"/>
      <point x="251" y="407"/>
      <point x="265" y="407" type="curve" smooth="yes"/>
      <point x="347" y="407"/>
      <point x="404" y="356"/>
      <point x="418" y="285" type="curve" smooth="yes"/>
      <point x="422" y="264"/>
      <point x="421" y="217"/>
      <point x="421" y="205" type="curve" smooth="yes"/>
      <point x="421" y="194"/>
      <point x="422" y="157"/>
      <point x="418" y="135" type="curve" smooth="yes"/>
      <point x="405" y="64"/>
      <point x="347" y="13"/>
      <point x="265" y="13" type="curve" smooth="yes"/>
      <point x="183" y="13"/>
      <point x="128" y="63"/>
      <point x="114" y="135" type="curve" smooth="yes"/>
      <point x="111" y="153"/>
      <point x="110" y="183"/>
      <point x="110" y="202" type="curve"/>
      <point x="88" y="202" type="line"/>
      <point x="88" y="183"/>
      <point x="88" y="151"/>
      <point x="95" y="123" type="curve" smooth="yes"/>
      <point x="114" y="46"/>
      <point x="175" y="-8"/>
      <point x="265" y="-8" type="curve" smooth="yes"/>
    </contour>
  </outline>
</glyph>
<glyph name="four" format="1">
  <advance width="477"/>
  <unicode hex="0034"/>
  <outline>
    <contour>
      <point x="349" y="-7" type="line"/>
      <point x="371" y="-7" type="line"/>
      <point x="371" y="415" type="line"/>
      <point x="349" y="415" type="line"/>
    </contour>
    <contour>
      <point x="74" y="223" type="line"/>
      <point x="294" y="700" type="line"/>
      <point x="272" y="700" type="line"/>
      <point x="52" y="223" type="line"/>
      <point x="52" y="202" type="line"/>
      <point x="425" y="202" type="line"/>
      <point x="425" y="223" type="line"/>
    </contour>
  </outline>
</glyph>
<glyph name="five" format="1">
  <advance width="482"/>
  <unicode hex="0035"/>
  <outline>
    <contour>
      <point x="339" y="-9"/>
      <point x="405" y="57"/>
      <point x="405" y="157" type="curve" smooth="yes"/>
      <point x="405" y="262" type="line" smooth="yes"/>
      <point x="405" y="362"/>
      <point x="339" y="428"/>
      <point x="240" y="428" type="curve" smooth="yes"/>
      <point x="140" y="428"/>
      <point x="79" y="381"/>
      <point x="79" y="311" type="curve"/>
      <point x="79" y="307" type="line"/>
      <point x="99" y="307" type="line"/>
      <point x="99" y="311" type="line" smooth="yes"/>
      <point x="99" y="369"/>
      <point x="153" y="407"/>
      <point x="241" y="407" type="curve" smooth="yes"/>
      <point x="326" y="407"/>
      <point x="383" y="350"/>
      <point x="383" y="265" type="curve" smooth="yes"/>
      <point x="383" y="154" type="line" smooth="yes"/>
      <point x="383" y="69"/>
      <point x="326" y="12"/>
      <point x="241" y="12" type="curve" smooth="yes"/>
      <point x="156" y="12"/>
      <point x="99" y="69"/>
      <point x="99" y="154" type="curve" smooth="yes"/>
      <point x="99" y="158" type="line"/>
      <point x="77" y="158" type="line"/>
      <point x="77" y="157" type="line" smooth="yes"/>
      <point x="77" y="57"/>
      <point x="143" y="-9"/>
      <point x="241" y="-9" type="curve" smooth="yes"/>
    </contour>
    <contour>
      <point x="99" y="307" type="line"/>
      <point x="99" y="679" type="line"/>
      <point x="391" y="679" type="line"/>
      <point x="391" y="700" type="line"/>
      <point x="77" y="700" type="line"/>
      <point x="77" y="307" type="line"/>
    </contour>
  </outline>
</glyph>
<glyph name="six" format="1">
  <advance width="523"/>
  <unicode hex="0036"/>
  <outline>
    <contour>
      <point x="378" y="-8"/>
      <point x="446" y="58"/>
      <point x="446" y="158" type="curve" smooth="yes"/>
      <point x="446" y="262" type="line" smooth="yes"/>
      <point x="446" y="362"/>
      <point x="378" y="428"/>
      <point x="273" y="428" type="curve" smooth="yes"/>
      <point x="201" y="428"/>
      <point x="145" y="395"/>
      <point x="118" y="340" type="curve"/>
      <point x="121" y="340" type="line"/>
      <point x="121" y="545" type="line" smooth="yes"/>
      <point x="121" y="630"/>
      <point x="182" y="687"/>
      <point x="273" y="687" type="curve" smooth="yes"/>
      <point x="349" y="687"/>
      <point x="409" y="630"/>
      <point x="409" y="545" type="curve" smooth="yes"/>
      <point x="409" y="529" type="line"/>
      <point x="431" y="529" type="line"/>
      <point x="431" y="542" type="line" smooth="yes"/>
      <point x="431" y="642"/>
      <point x="363" y="708"/>
      <point x="273" y="708" type="curve" smooth="yes"/>
      <point x="168" y="708"/>
      <point x="99" y="642"/>
      <point x="99" y="542" type="curve" smooth="yes"/>
      <point x="99" y="158" type="line" smooth="yes"/>
      <point x="99" y="58"/>
      <point x="168" y="-8"/>
      <point x="273" y="-8" type="curve" smooth="yes"/>
    </contour>
    <contour>
      <point x="182" y="13"/>
      <point x="121" y="70"/>
      <point x="121" y="155" type="curve" smooth="yes"/>
      <point x="121" y="265" type="line" smooth="yes"/>
      <point x="121" y="350"/>
      <point x="182" y="407"/>
      <point x="273" y="407" type="curve" smooth="yes"/>
      <point x="364" y="407"/>
      <point x="424" y="350"/>
      <point x="424" y="265" type="curve" smooth="yes"/>
      <point x="424" y="155" type="line" smooth="yes"/>
      <point x="424" y="70"/>
      <point x="364" y="13"/>
      <point x="273" y="13" type="curve" smooth="yes"/>
    </contour>
  </outline>
</glyph>
<glyph name="seven" format="1">
  <advance width="437"/>
  <unicode hex="0037"/>
  <outline>
    <contour>
      <point x="168" y="0" type="line"/>
      <point x="404" y="679" type="line"/>
      <point x="404" y="700" type="line"/>
      <point x="33" y="700" type="line"/>
      <point x="33" y="642" type="line"/>
      <point x="55" y="642" type="line"/>
      <point x="55" y="679" type="line"/>
      <point x="380" y="679" type="line"/>
      <point x="143" y="0" type="line"/>
    </contour>
  </outline>
</glyph>
<glyph name="eight" format="1">
  <advance width="504"/>
  <unicode hex="0038"/>
  <outline>
    <contour>
      <point x="361" y="-18"/>
      <point x="432" y="54"/>
      <point x="432" y="161" type="curve" smooth="yes"/>
      <point x="432" y="215" type="line" smooth="yes"/>
      <point x="432" y="322"/>
      <point x="361" y="394"/>
      <point x="253" y="394" type="curve" smooth="yes"/>
      <point x="145" y="394"/>
      <point x="72" y="322"/>
      <point x="72" y="215" type="curve" smooth="yes"/>
      <point x="72" y="161" type="line" smooth="yes"/>
      <point x="72" y="54"/>
      <point x="145" y="-18"/>
      <point x="253" y="-18" type="curve" smooth="yes"/>
    </contour>
    <contour>
      <point x="158" y="2"/>
      <point x="94" y="66"/>
      <point x="94" y="161" type="curve" smooth="yes"/>
      <point x="94" y="215" type="line" smooth="yes"/>
      <point x="94" y="311"/>
      <point x="158" y="375"/>
      <point x="253" y="375" type="curve" smooth="yes"/>
      <point x="348" y="375"/>
      <point x="410" y="311"/>
      <point x="410" y="215" type="curve" smooth="yes"/>
      <point x="410" y="161" type="line" smooth="yes"/>
      <point x="410" y="66"/>
      <point x="348" y="2"/>
      <point x="253" y="2" type="curve" smooth="yes"/>
    </contour>
    <contour>
      <point x="361" y="375"/>
      <point x="430" y="439"/>
      <point x="430" y="534" type="curve" smooth="yes"/>
      <point x="430" y="549" type="line" smooth="yes"/>
      <point x="430" y="644"/>
      <point x="361" y="708"/>
      <point x="253" y="708" type="curve" smooth="yes"/>
      <point x="145" y="708"/>
      <point x="74" y="644"/>
      <point x="74" y="549" type="curve" smooth="yes"/>
      <point x="74" y="534" type="line" smooth="yes"/>
      <point x="74" y="439"/>
      <point x="145" y="375"/>
      <point x="253" y="375" type="curve" smooth="yes"/>
    </contour>
    <contour>
      <point x="158" y="395"/>
      <point x="96" y="451"/>
      <point x="96" y="534" type="curve" smooth="yes"/>
      <point x="96" y="549" type="line" smooth="yes"/>
      <point x="96" y="633"/>
      <point x="158" y="689"/>
      <point x="253" y="689" type="curve" smooth="yes"/>
      <point x="348" y="689"/>
      <point x="408" y="633"/>
      <point x="408" y="549" type="curve" smooth="yes"/>
      <point x="408" y="534" type="line" smooth="yes"/>
      <point x="408" y="451"/>
      <point x="348" y="395"/>
      <point x="253" y="395" type="curve" smooth="yes"/>
    </contour>
  </outline>
</glyph>
<glyph name="greater" format="1">
  <advance width="454"/>
  <unicode hex="003E"/>
  <outline>
    <contour>
      <point x="42" y="455" type="line"/>
      <point x="392" y="267" type="line"/>
      <point x="42" y="79" type="line"/>
      <point x="42" y="54" type="line"/>
      <point x="412" y="255" type="line"/>
      <point x="412" y="279" type="line"/>
      <point x="42" y="480" type="line"/>
    </contour>
  </outline>
</glyph>
<glyph name="at" format="1">
  <advance width="821"/>
  <unicode hex="0040"/>
  <outline>
    <contour>
      <point x="476" y="187"/>
      <point x="522" y="225"/>
      <point x="522" y="281" type="curve" smooth="yes"/>
      <point x="522" y="365" type="line"/>
      <point x="433" y="365" type="line" smooth="yes"/>
      <point x="357" y="365"/>
      <point x="309" y="329"/>
      <point x="309" y="270" type="curve" smooth="yes"/>
      <point x="309" y="219"/>
      <point x="347" y="187"/>
      <point x="408" y="187" type="curve" smooth="yes"/>
    </contour>
    <contour>
      <point x="360" y="208"/>
      <point x="332" y="233"/>
      <point x="332" y="271" type="curve" smooth="yes"/>
      <point x="332" y="315"/>
      <point x="370" y="344"/>
      <point x="431" y="344" type="curve" smooth="yes"/>
      <point x="503" y="344" type="line"/>
      <point x="503" y="281" type="line" smooth="yes"/>
      <point x="503" y="238"/>
      <point x="464" y="208"/>
      <point x="407" y="208" type="curve" smooth="yes"/>
    </contour>
    <contour>
      <point x="525" y="192" type="line"/>
      <point x="525" y="399" type="line" smooth="yes"/>
      <point x="525" y="465"/>
      <point x="490" y="502"/>
      <point x="425" y="502" type="curve" smooth="yes"/>
      <point x="365" y="502"/>
      <point x="324" y="472"/>
      <point x="319" y="424" type="curve"/>
      <point x="342" y="420" type="line"/>
      <point x="344" y="457"/>
      <point x="375" y="481"/>
      <point x="423" y="481" type="curve" smooth="yes"/>
      <point x="476" y="481"/>
      <point x="503" y="452"/>
      <point x="503" y="401" type="curve" smooth="yes"/>
      <point x="503" y="192" type="line"/>
    </contour>
    <contour>
      <point x="616" y="-8"/>
      <point x="773" y="151"/>
      <point x="773" y="347" type="curve" smooth="yes"/>
      <point x="773" y="549"/>
      <point x="616" y="708"/>
      <point x="410" y="708" type="curve" smooth="yes"/>
      <point x="205" y="708"/>
      <point x="48" y="549"/>
      <point x="48" y="347" type="curve" smooth="yes"/>
      <point x="48" y="151"/>
      <point x="205" y="-8"/>
      <point x="410" y="-8" type="curve" smooth="yes"/>
    </contour>
    <contour>
      <point x="217" y="13"/>
      <point x="70" y="163"/>
      <point x="70" y="347" type="curve" smooth="yes"/>
      <point x="70" y="537"/>
      <point x="217" y="687"/>
      <point x="410" y="687" type="curve" smooth="yes"/>
      <point x="603" y="687"/>
      <point x="750" y="537"/>
      <point x="750" y="347" type="curve" smooth="yes"/>
      <point x="750" y="163"/>
      <point x="603" y="13"/>
      <point x="410" y="13" type="curve" smooth="yes"/>
    </contour>
  </outline>
</glyph>
<glyph name="A" format="1">
  <advance width="504"/>
  <unicode hex="0041"/>
  <outline>
    <contour>
      <point x="55" y="0" type="line"/>
      <point x="251" y="663" type="line"/>
      <point x="449" y="0" type="line"/>
      <point x="471" y="0" type="line"/>
      <point x="262" y="700" type="line"/>
      <point x="240" y="700" type="line"/>
      <point x="33" y="0" type="line"/>
    </contour>
    <contour>
      <point x="415" y="155" type="line"/>
      <point x="415" y="176" type="line"/>
      <point x="92" y="176" type="line"/>
      <point x="92" y="155" type="line"/>
    </contour>
    <contour>
      <point x="251" y="700" type="move" name="top"/>
    </contour>
  </outline>
</glyph>
<glyph name="B" format="1">
  <advance width="559"/>
  <unicode hex="0042"/>
  <outline>
    <contour>
      <point x="126" y="679" type="line"/>
      <point x="302" y="679" type="line" smooth="yes"/>
      <point x="400" y="679"/>
      <point x="465" y="617"/>
      <point x="465" y="523" type="curve" smooth="yes"/>
      <point x="465" y="433"/>
      <point x="400" y="373"/>
      <point x="302" y="373" type="curve" smooth="yes"/>
      <point x="126" y="373" type="line"/>
    </contour>
    <contour>
      <point x="303" y="352" type="line" smooth="yes"/>
      <point x="413" y="352"/>
      <point x="487" y="420"/>
      <point x="487" y="523" type="curve" smooth="yes"/>
      <point x="487" y="629"/>
      <point x="413" y="700"/>
      <point x="302" y="700" type="curve" smooth="yes"/>
      <point x="104" y="700" type="line"/>
      <point x="104" y="352" type="line"/>
    </contour>
    <contour>
      <point x="126" y="352" type="line"/>
      <point x="302" y="352" type="line" smooth="yes"/>
      <point x="404" y="352"/>
      <point x="472" y="286"/>
      <point x="472" y="186" type="curve" smooth="yes"/>
      <point x="472" y="88"/>
      <point x="406" y="22"/>
      <point x="308" y="22" type="curve" smooth="yes"/>
      <point x="126" y="22" type="line"/>
    </contour>
    <contour>
      <point x="308" y="0" type="line" smooth="yes"/>
      <point x="420" y="0"/>
      <point x="494" y="74"/>
      <point x="494" y="186" type="curve" smooth="yes"/>
      <point x="494" y="298"/>
      <point x="418" y="373"/>
      <point x="303" y="373" type="curve" smooth="yes"/>
      <point x="104" y="373" type="line"/>
      <point x="104" y="0" type="line"/>
    </contour>
  </outline>
</glyph>
<glyph name="C" format="1">
  <advance width="499"/>
  <unicode hex="0043"/>
  <outline>
    <contour>
      <point x="380" y="-9"/>
      <point x="459" y="66"/>
      <point x="459" y="178" type="curve" smooth="yes"/>
      <point x="459" y="187" type="line"/>
      <point x="437" y="188" type="line"/>
      <point x="437" y="176" type="line" smooth="yes"/>
      <point x="437" y="78"/>
      <point x="367" y="12"/>
      <point x="262" y="12" type="curve" smooth="yes"/>
      <point x="156" y="12"/>
      <point x="86" y="78"/>
      <point x="86" y="176" type="curve" smooth="yes"/>
      <point x="86" y="524" type="line" smooth="yes"/>
      <point x="86" y="622"/>
      <point x="156" y="687"/>
      <point x="262" y="687" type="curve" smooth="yes"/>
      <point x="367" y="687"/>
      <point x="437" y="622"/>
      <point x="437" y="524" type="curve" smooth="yes"/>
      <point x="437" y="511" type="line"/>
      <point x="459" y="512" type="line"/>
      <point x="459" y="523" type="line" smooth="yes"/>
      <point x="459" y="634"/>
      <point x="380" y="708"/>
      <point x="262" y="708" type="curve" smooth="yes"/>
      <point x="143" y="708"/>
      <point x="64" y="634"/>
      <point x="64" y="523" type="curve" smooth="yes"/>
      <point x="64" y="178" type="line" smooth="yes"/>
      <point x="64" y="66"/>
      <point x="143" y="-9"/>
      <point x="262" y="-9" type="curve" smooth="yes"/>
    </contour>
    <contour>
      <point x="262" y="708" type="move" name="top"/>
    </contour>
  </outline>
</glyph>
<glyph name="D" format="1">
  <advance width="618"/>
  <unicode hex="0044"/>
  <outline>
    <contour>
      <point x="327" y="0" type="line" smooth="yes"/>
      <point x="446" y="0"/>
      <point x="519" y="68"/>
      <point x="519" y="180" type="curve" smooth="yes"/>
      <point x="519" y="520" type="line" smooth="yes"/>
      <point x="519" y="632"/>
      <point x="446" y="700"/>
      <point x="327" y="700" type="curve" smooth="yes"/>
      <point x="117" y="700" type="line"/>
      <point x="117" y="0" type="line"/>
    </contour>
    <contour>
      <point x="139" y="679" type="line"/>
      <point x="329" y="679" type="line" smooth="yes"/>
      <point x="433" y="679"/>
      <point x="497" y="619"/>
      <point x="497" y="520" type="curve" smooth="yes"/>
      <point x="497" y="179" type="line" smooth="yes"/>
      <point x="497" y="81"/>
      <point x="433" y="21"/>
      <point x="329" y="21" type="curve" smooth="yes"/>
      <point x="139" y="21" type="line"/>
    </contour>
    <contour>
      <point x="310" y="705" type="move" name="top"/>
    </contour>
  </outline>
</glyph>
<glyph name="E" format="1">
  <advance width="533"/>
  <unicode hex="0045"/>
  <outline>
    <contour>
      <point x="481" y="0" type="line"/>
      <point x="481" y="21" type="line"/>
      <point x="139" y="21" type="line"/>
      <point x="139" y="679" type="line"/>
      <point x="481" y="679" type="line"/>
      <point x="481" y="700" type="line"/>
      <point x="117" y="700" type="line"/>
      <point x="117" y="0" type="line"/>
    </contour>
    <contour>
      <point x="374" y="340" type="line"/>
      <point x="374" y="361" type="line"/>
      <point x="128" y="361" type="line"/>
      <point x="128" y="340" type="line"/>
    </contour>
    <contour>
      <point x="299" y="710" type="move" name="top"/>
    </contour>
  </outline>
</glyph>
<glyph name="F" format="1">
  <advance width="505"/>
  <unicode hex="0046"/>
  <outline>
    <contour>
      <point x="130" y="0" type="line"/>
      <point x="130" y="679" type="line"/>
      <point x="478" y="679" type="line"/>
      <point x="478" y="700" type="line"/>
      <point x="108" y="700" type="line"/>
      <point x="108" y="0" type="line"/>
    </contour>
    <contour>
      <point x="369" y="340" type="line"/>
      <point x="369" y="361" type="line"/>
      <point x="119" y="361" type="line"/>
      <point x="119" y="340" type="line"/>
    </contour>
  </outline>
</glyph>
<glyph name="G" format="1">
  <advance width="546"/>
  <unicode hex="0047"/>
  <outline>
    <contour>
      <point x="396" y="-8"/>
      <point x="474" y="64"/>
      <point x="474" y="174" type="curve" smooth="yes"/>
      <point x="474" y="337" type="line"/>
      <point x="287" y="337" type="line"/>
      <point x="287" y="316" type="line"/>
      <point x="452" y="316" type="line"/>
      <point x="452" y="173" type="line" smooth="yes"/>
      <point x="452" y="77"/>
      <point x="383" y="13"/>
      <point x="278" y="13" type="curve" smooth="yes"/>
      <point x="172" y="13"/>
      <point x="102" y="77"/>
      <point x="102" y="173" type="curve" smooth="yes"/>
      <point x="102" y="527" type="line" smooth="yes"/>
      <point x="102" y="623"/>
      <point x="172" y="687"/>
      <point x="278" y="687" type="curve" smooth="yes"/>
      <point x="383" y="687"/>
      <point x="452" y="623"/>
      <point x="452" y="527" type="curve" smooth="yes"/>
      <point x="452" y="500" type="line"/>
      <point x="474" y="500" type="line"/>
      <point x="474" y="526" type="line" smooth="yes"/>
      <point x="474" y="636"/>
      <point x="396" y="708"/>
      <point x="278" y="708" type="curve" smooth="yes"/>
      <point x="159" y="708"/>
      <point x="80" y="636"/>
      <point x="80" y="526" type="curve" smooth="yes"/>
      <point x="80" y="174" type="line" smooth="yes"/>
      <point x="80" y="64"/>
      <point x="159" y="-8"/>
      <point x="278" y="-8" type="curve" smooth="yes"/>
    </contour>
  </outline>
</glyph>
<glyph name="H" format="1">
  <advance width="564"/>
  <unicode hex="0048"/>
  <outline>
    <contour>
      <point x="468" y="0" type="line"/>
      <point x="468" y="700" type="line"/>
      <point x="446" y="700" type="line"/>
      <point x="446" y="0" type="line"/>
    </contour>
    <contour>
      <point x="118" y="0" type="line"/>
      <point x="118" y="700" type="line"/>
      <point x="96" y="700" type="line"/>
      <point x="96" y="0" type="line"/>
    </contour>
    <contour>
      <point x="451" y="340" type="line"/>
      <point x="451" y="361" type="line"/>
      <point x="113" y="361" type="line"/>
      <point x="113" y="340" type="line"/>
    </contour>
  </outline>
</glyph>
<glyph name="I" format="1">
  <advance width="230"/>
  <unicode hex="0049"/>
  <outline>
    <contour>
      <point x="126" y="0" type="line"/>
      <point x="126" y="700" type="line"/>
      <point x="104" y="700" type="line"/>
      <point x="104" y="0" type="line"/>
    </contour>
    <contour>
      <point x="115" y="710" type="move" name="top"/>
    </contour>
  </outline>
</glyph>
<glyph name="J" format="1">
  <advance width="529"/>
  <unicode hex="004A"/>
  <outline>
    <contour>
      <point x="337" y="-8"/>
      <point x="412" y="62"/>
      <point x="412" y="168" type="curve" smooth="yes"/>
      <point x="412" y="700" type="line"/>
      <point x="390" y="700" type="line"/>
      <point x="390" y="167" type="line" smooth="yes"/>
      <point x="390" y="75"/>
      <point x="323" y="13"/>
      <point x="225" y="13" type="curve" smooth="yes"/>
      <point x="127" y="13"/>
      <point x="61" y="75"/>
      <point x="61" y="167" type="curve" smooth="yes"/>
      <point x="61" y="251" type="line"/>
      <point x="39" y="251" type="line"/>
      <point x="39" y="168" type="line" smooth="yes"/>
      <point x="39" y="62"/>
      <point x="113" y="-8"/>
      <point x="225" y="-8" type="curve" smooth="yes"/>
    </contour>
  </outline>
</glyph>
<glyph name="K" format="1">
  <advance width="561"/>
  <unicode hex="004B"/>
  <outline>
    <contour>
      <point x="130" y="0" type="line"/>
      <point x="130" y="275" type="line"/>
      <point x="252" y="408" type="line"/>
      <point x="506" y="0" type="line"/>
      <point x="534" y="0" type="line"/>
      <point x="267" y="427" type="line"/>
      <point x="510" y="700" type="line"/>
      <point x="482" y="700" type="line"/>
      <point x="130" y="306" type="line"/>
      <point x="130" y="700" type="line"/>
      <point x="108" y="700" type="line"/>
      <point x="108" y="0" type="line"/>
    </contour>
  </outline>
</glyph>
<glyph name="L" format="1">
  <advance width="479"/>
  <unicode hex="004C"/>
  <outline>
    <contour>
      <point x="446" y="0" type="line"/>
      <point x="446" y="21" type="line"/>
      <point x="110" y="21" type="line"/>
      <point x="110" y="700" type="line"/>
      <point x="88" y="700" type="line"/>
      <point x="88" y="0" type="line"/>
    </contour>
  </outline>
</glyph>
<glyph name="M" format="1">
  <advance width="676"/>
  <unicode hex="004D"/>
  <outline>
    <contour>
      <point x="139" y="0" type="line"/>
      <point x="139" y="654" type="line"/>
      <point x="330" y="329" type="line"/>
      <point x="348" y="329" type="line"/>
      <point x="537" y="654" type="line"/>
      <point x="537" y="0" type="line"/>
      <point x="559" y="0" type="line"/>
      <point x="559" y="700" type="line"/>
      <point x="537" y="700" type="line"/>
      <point x="337" y="358" type="line"/>
      <point x="139" y="700" type="line"/>
      <point x="117" y="700" type="line"/>
      <point x="117" y="0" type="line"/>
    </contour>
  </outline>
</glyph>
<glyph name="N" format="1">
  <advance width="591"/>
  <unicode hex="004E"/>
  <outline>
    <contour>
      <point x="126" y="0" type="line"/>
      <point x="126" y="648" type="line"/>
      <point x="465" y="0" type="line"/>
      <point x="487" y="0" type="line"/>
      <point x="487" y="700" type="line"/>
      <point x="465" y="700" type="line"/>
      <point x="465" y="52" type="line"/>
      <point x="126" y="700" type="line"/>
      <point x="104" y="700" type="line"/>
      <point x="104" y="0" type="line"/>
    </contour>
    <contour>
      <point x="297" y="710" type="move" name="top"/>
    </contour>
  </outline>
</glyph>
<glyph name="O" format="1">
  <advance width="498"/>
  <unicode hex="004F"/>
  <outline>
    <contour>
      <point x="369" y="-7"/>
      <point x="450" y="77"/>
      <point x="450" y="190" type="curve" smooth="yes"/>
      <point x="450" y="509" type="line" smooth="yes"/>
      <point x="450" y="623"/>
      <point x="369" y="708"/>
      <point x="248" y="708" type="curve" smooth="yes"/>
      <point x="127" y="708"/>
      <point x="48" y="623"/>
      <point x="48" y="509" type="curve" smooth="yes"/>
      <point x="48" y="190" type="line" smooth="yes"/>
      <point x="48" y="77"/>
      <point x="127" y="-7"/>
      <point x="248" y="-7" type="curve" smooth="yes"/>
    </contour>
    <contour>
      <point x="141" y="13"/>
      <point x="70" y="89"/>
      <point x="70" y="189" type="curve" smooth="yes"/>
      <point x="70" y="510" type="line" smooth="yes"/>
      <point x="70" y="610"/>
      <point x="141" y="687"/>
      <point x="248" y="687" type="curve" smooth="yes"/>
      <point x="356" y="687"/>
      <point x="428" y="610"/>
      <point x="428" y="510" type="curve" smooth="yes"/>
      <point x="428" y="189" type="line" smooth="yes"/>
      <point x="428" y="89"/>
      <point x="356" y="13"/>
      <point x="248" y="13" type="curve" smooth="yes"/>
    </contour>
    <contour>
      <point x="248" y="708" type="move" name="top"/>
    </contour>
  </outline>
</glyph>
<glyph name="P" format="1">
  <advance width="578"/>
  <unicode hex="0050"/>
  <outline>
    <contour>
      <point x="130" y="0" type="line"/>
      <point x="130" y="681" type="line"/>
      <point x="348" y="681" type="line" smooth="yes"/>
      <point x="440" y="681"/>
      <point x="502" y="617"/>
      <point x="502" y="520" type="curve" smooth="yes"/>
      <point x="502" y="425"/>
      <point x="440" y="361"/>
      <point x="348" y="361" type="curve" smooth="yes"/>
      <point x="125" y="361" type="line"/>
      <point x="125" y="340" type="line"/>
      <point x="346" y="340" type="line" smooth="yes"/>
      <point x="453" y="340"/>
      <point x="524" y="411"/>
      <point x="524" y="520" type="curve" smooth="yes"/>
      <point x="524" y="629"/>
      <point x="453" y="702"/>
      <point x="346" y="702" type="curve" smooth="yes"/>
      <point x="108" y="702" type="line"/>
      <point x="108" y="0" type="line"/>
    </contour>
  </outline>
</glyph>
<glyph name="Q" format="1">
  <advance width="510"/>
  <unicode hex="0051"/>
  <outline>
    <contour>
      <point x="257" y="-127" type="line"/>
      <point x="257" y="0" type="line"/>
      <point x="235" y="0" type="line"/>
      <point x="235" y="-127" type="line"/>
    </contour>
    <contour>
      <point x="143" y="13"/>
      <point x="76" y="80"/>
      <point x="76" y="180" type="curve" smooth="yes"/>
      <point x="76" y="520" type="line" smooth="yes"/>
      <point x="76" y="620"/>
      <point x="143" y="687"/>
      <point x="246" y="687" type="curve" smooth="yes"/>
      <point x="348" y="687"/>
      <point x="416" y="620"/>
      <point x="416" y="520" type="curve" smooth="yes"/>
      <point x="416" y="180" type="line" smooth="yes"/>
      <point x="416" y="80"/>
      <point x="348" y="13"/>
      <point x="246" y="13" type="curve" smooth="yes"/>
    </contour>
    <contour>
      <point x="361" y="-8"/>
      <point x="438" y="67"/>
      <point x="438" y="181" type="curve" smooth="yes"/>
      <point x="438" y="519" type="line" smooth="yes"/>
      <point x="438" y="633"/>
      <point x="361" y="708"/>
      <point x="246" y="708" type="curve" smooth="yes"/>
      <point x="130" y="708"/>
      <point x="54" y="633"/>
      <point x="54" y="519" type="curve" smooth="yes"/>
      <point x="54" y="181" type="line" smooth="yes"/>
      <point x="54" y="67"/>
      <point x="130" y="-8"/>
      <point x="246" y="-8" type="curve" smooth="yes"/>
    </contour>
  </outline>
</glyph>
<glyph name="R" format="1">
  <advance width="601"/>
  <unicode hex="0052"/>
  <outline>
    <contour>
      <point x="139" y="0" type="line"/>
      <point x="139" y="681" type="line"/>
      <point x="357" y="681" type="line" smooth="yes"/>
      <point x="449" y="681"/>
      <point x="511" y="617"/>
      <point x="511" y="522" type="curve" smooth="yes"/>
      <point x="511" y="429"/>
      <point x="449" y="365"/>
      <point x="357" y="365" type="curve" smooth="yes"/>
      <point x="134" y="365" type="line"/>
      <point x="134" y="344" type="line"/>
      <point x="355" y="344" type="line" smooth="yes"/>
      <point x="462" y="344"/>
      <point x="533" y="415"/>
      <point x="533" y="522" type="curve" smooth="yes"/>
      <point x="533" y="629"/>
      <point x="462" y="702"/>
      <point x="355" y="702" type="curve" smooth="yes"/>
      <point x="117" y="702" type="line"/>
      <point x="117" y="0" type="line"/>
    </contour>
    <contour>
      <point x="546" y="0" type="line"/>
      <point x="373" y="355" type="line"/>
      <point x="355" y="347" type="line"/>
      <point x="525" y="0" type="line"/>
    </contour>
    <contour>
      <point x="307" y="700" type="move" name="top"/>
    </contour>
    <contour>
      <point x="321" y="0" type="move" name="bottom"/>
    </contour>
  </outline>
</glyph>
<glyph name="S" format="1">
  <advance width="540"/>
  <unicode hex="0053"/>
  <outline>
    <contour>
      <point x="385" y="-8"/>
      <point x="468" y="61"/>
      <point x="468" y="161" type="curve" smooth="yes"/>
      <point x="468" y="257"/>
      <point x="392" y="301"/>
      <point x="271" y="371" type="curve" smooth="yes"/>
      <point x="164" y="433"/>
      <point x="98" y="456"/>
      <point x="98" y="549" type="curve" smooth="yes"/>
      <point x="98" y="639"/>
      <point x="162" y="687"/>
      <point x="258" y="687" type="curve" smooth="yes"/>
      <point x="368" y="687"/>
      <point x="439" y="625"/>
      <point x="439" y="533" type="curve" smooth="yes"/>
      <point x="439" y="500" type="line"/>
      <point x="461" y="500" type="line"/>
      <point x="461" y="535" type="line" smooth="yes"/>
      <point x="461" y="639"/>
      <point x="383" y="708"/>
      <point x="261" y="708" type="curve" smooth="yes"/>
      <point x="150" y="708"/>
      <point x="77" y="652"/>
      <point x="77" y="548" type="curve" smooth="yes"/>
      <point x="77" y="444"/>
      <point x="150" y="412"/>
      <point x="256" y="351" type="curve" smooth="yes"/>
      <point x="397" y="270"/>
      <point x="446" y="231"/>
      <point x="446" y="159" type="curve" smooth="yes"/>
      <point x="446" y="71"/>
      <point x="373" y="13"/>
      <point x="265" y="13" type="curve" smooth="yes"/>
      <point x="154" y="13"/>
      <point x="83" y="74"/>
      <point x="83" y="166" type="curve" smooth="yes"/>
      <point x="83" y="210" type="line"/>
      <point x="63" y="210" type="line"/>
      <point x="63" y="164" type="line" smooth="yes"/>
      <point x="63" y="60"/>
      <point x="142" y="-8"/>
      <point x="263" y="-8" type="curve" smooth="yes"/>
    </contour>
    <contour>
      <point x="258" y="708" type="move" name="top"/>
    </contour>
  </outline>
</glyph>
<glyph name="T" format="1">
  <advance width="558"/>
  <unicode hex="0054"/>
  <outline>
    <contour>
      <point x="285" y="0" type="line"/>
      <point x="285" y="689" type="line"/>
      <point x="263" y="689" type="line"/>
      <point x="263" y="0" type="line"/>
    </contour>
    <contour>
      <point x="504" y="679" type="line"/>
      <point x="504" y="700" type="line"/>
      <point x="54" y="700" type="line"/>
      <point x="54" y="679" type="line"/>
    </contour>
  </outline>
</glyph>
<glyph name="U" format="1">
  <advance width="603"/>
  <unicode hex="0055"/>
  <outline>
    <contour>
      <point x="422" y="-8"/>
      <point x="504" y="69"/>
      <point x="504" y="185" type="curve" smooth="yes"/>
      <point x="504" y="700" type="line"/>
      <point x="482" y="700" type="line"/>
      <point x="482" y="182" type="line" smooth="yes"/>
      <point x="482" y="81"/>
      <point x="409" y="13"/>
      <point x="301" y="13" type="curve" smooth="yes"/>
      <point x="192" y="13"/>
      <point x="121" y="81"/>
      <point x="121" y="182" type="curve" smooth="yes"/>
      <point x="121" y="700" type="line"/>
      <point x="99" y="700" type="line"/>
      <point x="99" y="185" type="line" smooth="yes"/>
      <point x="99" y="69"/>
      <point x="180" y="-8"/>
      <point x="301" y="-8" type="curve" smooth="yes"/>
    </contour>
    <contour>
      <point x="301" y="712" type="move" name="top"/>
    </contour>
  </outline>
</glyph>
<glyph name="V" format="1">
  <advance width="497"/>
  <unicode hex="0056"/>
  <outline>
    <contour>
      <point x="259" y="0" type="line"/>
      <point x="473" y="700" type="line"/>
      <point x="452" y="700" type="line"/>
      <point x="248" y="33" type="line"/>
      <point x="46" y="700" type="line"/>
      <point x="24" y="700" type="line"/>
      <point x="237" y="0" type="line"/>
    </contour>
  </outline>
</glyph>
<glyph name="W" format="1">
  <advance width="891"/>
  <unicode hex="0057"/>
  <outline>
    <contour>
      <point x="262" y="0" type="line"/>
      <point x="444" y="666" type="line"/>
      <point x="624" y="0" type="line"/>
      <point x="646" y="0" type="line"/>
      <point x="847" y="700" type="line"/>
      <point x="825" y="700" type="line"/>
      <point x="636" y="40" type="line"/>
      <point x="454" y="700" type="line"/>
      <point x="432" y="700" type="line"/>
      <point x="252" y="40" type="line"/>
      <point x="66" y="700" type="line"/>
      <point x="44" y="700" type="line"/>
      <point x="240" y="0" type="line"/>
    </contour>
    <contour>
      <point x="444" y="700" type="move" name="top"/>
    </contour>
  </outline>
</glyph>
<glyph name="X" format="1">
  <advance width="471"/>
  <unicode hex="0058"/>
  <outline>
    <contour>
      <point x="49" y="0" type="line"/>
      <point x="236" y="330" type="line"/>
      <point x="422" y="0" type="line"/>
      <point x="447" y="0" type="line"/>
      <point x="246" y="349" type="line"/>
      <point x="447" y="700" type="line"/>
      <point x="422" y="700" type="line"/>
      <point x="236" y="369" type="line"/>
      <point x="49" y="700" type="line"/>
      <point x="24" y="700" type="line"/>
      <point x="225" y="350" type="line"/>
      <point x="24" y="0" type="line"/>
    </contour>
  </outline>
</glyph>
<glyph name="Y" format="1">
  <advance width="524"/>
  <unicode hex="0059"/>
  <outline>
    <contour>
      <point x="273" y="0" type="line"/>
      <point x="273" y="339" type="line"/>
      <point x="470" y="700" type="line"/>
      <point x="448" y="700" type="line"/>
      <point x="262" y="358" type="line"/>
      <point x="76" y="700" type="line"/>
      <point x="54" y="700" type="line"/>
      <point x="251" y="339" type="line"/>
      <point x="251" y="0" type="line"/>
    </contour>
    <contour>
      <point x="262" y="699" type="move" name="top"/>
    </contour>
  </outline>
</glyph>
<glyph name="Z" format="1">
  <advance width="467"/>
  <unicode hex="005A"/>
  <outline>
    <contour>
      <point x="422" y="0" type="line"/>
      <point x="422" y="21" type="line"/>
      <point x="61" y="21" type="line"/>
      <point x="422" y="679" type="line"/>
      <point x="422" y="700" type="line"/>
      <point x="36" y="700" type="line"/>
      <point x="36" y="679" type="line"/>
      <point x="398" y="679" type="line"/>
      <point x="36" y="21" type="line"/>
      <point x="36" y="0" type="line"/>
    </contour>
    <contour>
      <point x="223" y="713" type="move" name="top"/>
    </contour>
  </outline>
</glyph>
<glyph name="asciicircum" format="1">
  <advance width="388"/>
  <unicode hex="005E"/>
  <outline>
    <contour>
      <point x="45" y="314" type="line"/>
      <point x="194" y="679" type="line"/>
      <point x="343" y="314" type="line"/>
      <point x="365" y="314" type="line"/>
      <point x="206" y="700" type="line"/>
      <point x="182" y="700" type="line"/>
      <point x="23" y="314" type="line"/>
    </contour>
  </outline>
</glyph>
<glyph name="underscore" format="1">
  <advance width="457"/>
  <unicode hex="005F"/>
  <outline>
    <contour>
      <point x="36" y="0" type="line"/>
      <point x="421" y="0" type="line"/>
      <point x="421" y="22" type="line"/>
      <point x="36" y="22" type="line"/>
    </contour>
  </outline>
</glyph>
<glyph name="grave" format="1">
  <advance width="161"/>
  <unicode hex="0060"/>
  <outline>
    <component base="gravecomb" xOffset="32"/>
    <contour>
      <point x="80" y="500" type="move" name="_top"/>
    </contour>
  </outline>
</glyph>
<glyph name="a" format="1">
  <advance width="519"/>
  <unicode hex="0061"/>
  <outline>
    <contour>
      <point x="428" y="0" type="line"/>
      <point x="428" y="342" type="line" smooth="yes"/>
      <point x="428" y="442"/>
      <point x="380" y="508"/>
      <point x="266" y="508" type="curve" smooth="yes"/>
      <point x="171" y="508"/>
      <point x="107" y="462"/>
      <point x="96" y="392" type="curve"/>
      <point x="118" y="388" type="line"/>
      <point x="126" y="449"/>
      <point x="181" y="487"/>
      <point x="263" y="487" type="curve" smooth="yes"/>
      <point x="367" y="487"/>
      <point x="406" y="425"/>
      <point x="406" y="345" type="curve" smooth="yes"/>
      <point x="406" y="0" type="line"/>
    </contour>
    <contour>
      <point x="330" y="-8"/>
      <point x="423" y="37"/>
      <point x="423" y="142" type="curve"/>
      <point x="423" y="277" type="line"/>
      <point x="279" y="277" type="line"/>
      <point x="156" y="277"/>
      <point x="78" y="211"/>
      <point x="78" y="116" type="curve" smooth="yes"/>
      <point x="78" y="18"/>
      <point x="161" y="-8"/>
      <point x="234" y="-8" type="curve" smooth="yes"/>
    </contour>
    <contour>
      <point x="161" y="13"/>
      <point x="100" y="43"/>
      <point x="100" y="119" type="curve" smooth="yes"/>
      <point x="100" y="202"/>
      <point x="174" y="256"/>
      <point x="276" y="256" type="curve"/>
      <point x="406" y="256" type="line"/>
      <point x="406" y="142" type="line" smooth="yes"/>
      <point x="406" y="52"/>
      <point x="319" y="13"/>
      <point x="235" y="13" type="curve" smooth="yes"/>
    </contour>
    <contour>
      <point x="269" y="508" type="move" name="top"/>
    </contour>
  </outline>
</glyph>
<glyph name="b" format="1">
  <advance width="540"/>
  <unicode hex="0062"/>
  <outline>
    <contour>
      <point x="130" y="0" type="line"/>
      <point x="130" y="700" type="line"/>
      <point x="108" y="700" type="line"/>
      <point x="108" y="0" type="line"/>
    </contour>
    <component base="b.bowl" xOffset="110"/>
  </outline>
</glyph>
<glyph name="c" format="1">
  <advance width="467"/>
  <unicode hex="0063"/>
  <outline>
    <contour>
      <point x="323" y="-8"/>
      <point x="392" y="45"/>
      <point x="406" y="113" type="curve" smooth="yes"/>
      <point x="408" y="124"/>
      <point x="408" y="129"/>
      <point x="409" y="137" type="curve"/>
      <point x="388" y="139" type="line"/>
      <point x="386" y="131"/>
      <point x="387" y="131"/>
      <point x="386" y="125" type="curve" smooth="yes"/>
      <point x="375" y="64"/>
      <point x="315" y="13"/>
      <point x="233" y="13" type="curve" smooth="yes"/>
      <point x="151" y="13"/>
      <point x="95" y="63"/>
      <point x="82" y="135" type="curve" smooth="yes"/>
      <point x="78" y="156"/>
      <point x="78" y="193"/>
      <point x="78" y="250" type="curve" smooth="yes"/>
      <point x="78" y="302"/>
      <point x="78" y="343"/>
      <point x="82" y="365" type="curve" smooth="yes"/>
      <point x="95" y="436"/>
      <point x="151" y="487"/>
      <point x="233" y="487" type="curve" smooth="yes"/>
      <point x="315" y="487"/>
      <point x="374" y="436"/>
      <point x="386" y="375" type="curve" smooth="yes"/>
      <point x="387" y="369"/>
      <point x="388" y="361"/>
      <point x="389" y="352" type="curve"/>
      <point x="411" y="353" type="line"/>
      <point x="410" y="363"/>
      <point x="408" y="376"/>
      <point x="406" y="387" type="curve" smooth="yes"/>
      <point x="393" y="455"/>
      <point x="323" y="508"/>
      <point x="233" y="508" type="curve" smooth="yes"/>
      <point x="144" y="508"/>
      <point x="80" y="454"/>
      <point x="63" y="377" type="curve" smooth="yes"/>
      <point x="55" y="345"/>
      <point x="56" y="310"/>
      <point x="56" y="251" type="curve" smooth="yes"/>
      <point x="56" y="195"/>
      <point x="55" y="156"/>
      <point x="63" y="123" type="curve" smooth="yes"/>
      <point x="81" y="46"/>
      <point x="144" y="-8"/>
      <point x="233" y="-8" type="curve" smooth="yes"/>
    </contour>
    <contour>
      <point x="233" y="508" type="move" name="top"/>
    </contour>
  </outline>
</glyph>
<glyph name="e" format="1">
  <advance width="473"/>
  <unicode hex="0065"/>
  <outline>
    <contour>
      <point x="328" y="-8"/>
      <point x="392" y="44"/>
      <point x="411" y="118" type="curve"/>
      <point x="389" y="117" type="line"/>
      <point x="371" y="56"/>
      <point x="316" y="13"/>
      <point x="240" y="13" type="curve" smooth="yes"/>
      <point x="158" y="13"/>
      <point x="102" y="63"/>
      <point x="89" y="135" type="curve" smooth="yes"/>
      <point x="85" y="156"/>
      <point x="85" y="193"/>
      <point x="85" y="250" type="curve" smooth="yes"/>
      <point x="85" y="302"/>
      <point x="85" y="343"/>
      <point x="89" y="365" type="curve" smooth="yes"/>
      <point x="102" y="436"/>
      <point x="158" y="487"/>
      <point x="240" y="487" type="curve" smooth="yes"/>
      <point x="322" y="487"/>
      <point x="379" y="436"/>
      <point x="393" y="365" type="curve" smooth="yes"/>
      <point x="396" y="345"/>
      <point x="397" y="302"/>
      <point x="397" y="258" type="curve"/>
      <point x="406" y="267" type="line"/>
      <point x="75" y="267" type="line"/>
      <point x="75" y="249" type="line"/>
      <point x="419" y="249" type="line"/>
      <point x="419" y="335"/>
      <point x="419" y="350"/>
      <point x="413" y="377" type="curve" smooth="yes"/>
      <point x="395" y="454"/>
      <point x="330" y="508"/>
      <point x="240" y="508" type="curve" smooth="yes"/>
      <point x="151" y="508"/>
      <point x="87" y="454"/>
      <point x="70" y="377" type="curve" smooth="yes"/>
      <point x="62" y="345"/>
      <point x="63" y="310"/>
      <point x="63" y="251" type="curve" smooth="yes"/>
      <point x="63" y="195"/>
      <point x="62" y="156"/>
      <point x="70" y="123" type="curve" smooth="yes"/>
      <point x="88" y="46"/>
      <point x="151" y="-8"/>
      <point x="240" y="-8" type="curve" smooth="yes"/>
    </contour>
    <contour>
      <point x="240" y="508" type="move" name="top"/>
    </contour>
  </outline>
</glyph>
<glyph name="f" format="1">
  <advance width="327"/>
  <unicode hex="0066"/>
  <outline>
    <contour>
      <point x="151" y="0" type="line"/>
      <point x="151" y="540" type="line" smooth="yes"/>
      <point x="151" y="627"/>
      <point x="169" y="679"/>
      <point x="262" y="679" type="curve" smooth="yes"/>
      <point x="293" y="679" type="line"/>
      <point x="293" y="700" type="line"/>
      <point x="262" y="700" type="line" smooth="yes"/>
      <point x="156" y="700"/>
      <point x="129" y="640"/>
      <point x="129" y="540" type="curve" smooth="yes"/>
      <point x="129" y="0" type="line"/>
    </contour>
    <contour>
      <point x="288" y="479" type="line"/>
      <point x="288" y="500" type="line"/>
      <point x="52" y="500" type="line"/>
      <point x="52" y="479" type="line"/>
    </contour>
  </outline>
</glyph>
<glyph name="g" format="1">
  <advance width="488"/>
  <unicode hex="0067"/>
  <outline>
    <contour>
      <point x="327" y="-206"/>
      <point x="400" y="-132"/>
      <point x="400" y="0" type="curve" smooth="yes"/>
      <point x="400" y="500" type="line"/>
      <point x="378" y="500" type="line"/>
      <point x="378" y="0" type="line" smooth="yes"/>
      <point x="378" y="-118"/>
      <point x="313" y="-184"/>
      <point x="202" y="-179" type="curve"/>
      <point x="202" y="-200" type="line"/>
    </contour>
    <component base="b.bowl" xOffset="397" xScale="-1"/>
  </outline>
</glyph>
<glyph name="h" format="1">
  <advance width="533"/>
  <unicode hex="0068"/>
  <outline>
    <contour>
      <point x="126" y="0" type="line"/>
      <point x="126" y="700" type="line"/>
      <point x="104" y="700" type="line"/>
      <point x="104" y="0" type="line"/>
    </contour>
    <component base="n.curve" xOffset="108"/>
  </outline>
</glyph>
<glyph name="i" format="1">
  <advance width="234"/>
  <unicode hex="0069"/>
  <outline>
    <contour>
      <point x="124" y="0" type="line"/>
      <point x="124" y="500" type="line"/>
      <point x="102" y="500" type="line"/>
      <point x="102" y="0" type="line"/>
    </contour>
    <contour>
      <point x="131" y="620"/>
      <point x="144" y="633"/>
      <point x="144" y="650" type="curve" smooth="yes"/>
      <point x="144" y="666"/>
      <point x="131" y="679"/>
      <point x="113" y="679" type="curve" smooth="yes"/>
      <point x="95" y="679"/>
      <point x="81" y="666"/>
      <point x="81" y="650" type="curve" smooth="yes"/>
      <point x="81" y="633"/>
      <point x="95" y="620"/>
      <point x="113" y="620" type="curve" smooth="yes"/>
    </contour>
  </outline>
</glyph>
<glyph name="j" format="1">
  <advance width="209"/>
  <unicode hex="006A"/>
  <outline>
    <contour>
      <point x="80" y="-211"/>
      <point x="132" y="-159"/>
      <point x="132" y="-74" type="curve" smooth="yes"/>
      <point x="132" y="500" type="line"/>
      <point x="110" y="500" type="line"/>
      <point x="110" y="-74" type="line" smooth="yes"/>
      <point x="110" y="-146"/>
      <point x="67" y="-190"/>
      <point x="-5" y="-190" type="curve"/>
      <point x="-5" y="-211" type="line"/>
    </contour>
    <contour>
      <point x="141" y="620"/>
      <point x="153" y="631"/>
      <point x="153" y="650" type="curve" smooth="yes"/>
      <point x="153" y="669"/>
      <point x="141" y="679"/>
      <point x="121" y="679" type="curve" smooth="yes"/>
      <point x="103" y="679"/>
      <point x="90" y="669"/>
      <point x="90" y="650" type="curve" smooth="yes"/>
      <point x="90" y="631"/>
      <point x="103" y="620"/>
      <point x="121" y="620" type="curve" smooth="yes"/>
    </contour>
  </outline>
</glyph>
<glyph name="k" format="1">
  <advance width="461"/>
  <unicode hex="006B"/>
  <outline>
    <contour>
      <point x="110" y="0" type="line"/>
      <point x="110" y="200" type="line"/>
      <point x="255" y="347" type="line"/>
      <point x="404" y="0" type="line"/>
      <point x="428" y="0" type="line"/>
      <point x="271" y="363" type="line"/>
      <point x="408" y="500" type="line"/>
      <point x="380" y="502" type="line"/>
      <point x="110" y="228" type="line"/>
      <point x="110" y="700" type="line"/>
      <point x="88" y="700" type="line"/>
      <point x="88" y="0" type="line"/>
    </contour>
  </outline>
</glyph>
<glyph name="l" format="1">
  <advance width="176"/>
  <unicode hex="006C"/>
  <outline>
    <contour>
      <point x="99" y="0" type="line"/>
      <point x="99" y="700" type="line"/>
      <point x="77" y="700" type="line"/>
      <point x="77" y="0" type="line"/>
    </contour>
  </outline>
</glyph>
<glyph name="m" format="1">
  <advance width="837"/>
  <unicode hex="006D"/>
  <outline>
    <contour>
      <point x="130" y="0" type="line"/>
      <point x="130" y="500" type="line"/>
      <point x="108" y="500" type="line"/>
      <point x="108" y="0" type="line"/>
    </contour>
    <contour>
      <point x="438" y="0" type="line"/>
      <point x="438" y="347" type="line" smooth="yes"/>
      <point x="438" y="446"/>
      <point x="373" y="507"/>
      <point x="279" y="507" type="curve" smooth="yes"/>
      <point x="178" y="507"/>
      <point x="113" y="448"/>
      <point x="113" y="346" type="curve"/>
      <point x="130" y="346" type="line"/>
      <point x="130" y="433"/>
      <point x="187" y="486"/>
      <point x="277" y="486" type="curve" smooth="yes"/>
      <point x="359" y="486"/>
      <point x="416" y="432"/>
      <point x="416" y="344" type="curve" smooth="yes"/>
      <point x="416" y="0" type="line"/>
    </contour>
    <contour>
      <point x="747" y="0" type="line"/>
      <point x="747" y="347" type="line" smooth="yes"/>
      <point x="747" y="446"/>
      <point x="681" y="507"/>
      <point x="587" y="507" type="curve" smooth="yes"/>
      <point x="487" y="507"/>
      <point x="421" y="448"/>
      <point x="421" y="346" type="curve"/>
      <point x="438" y="346" type="line"/>
      <point x="438" y="433"/>
      <point x="496" y="486"/>
      <point x="585" y="486" type="curve" smooth="yes"/>
      <point x="667" y="486"/>
      <point x="725" y="432"/>
      <point x="725" y="344" type="curve" smooth="yes"/>
      <point x="725" y="0" type="line"/>
    </contour>
  </outline>
</glyph>
<glyph name="n" format="1">
  <advance width="543"/>
  <unicode hex="006E"/>
  <outline>
    <contour>
      <point x="130" y="0" type="line"/>
      <point x="130" y="500" type="line"/>
      <point x="108" y="500" type="line"/>
      <point x="108" y="0" type="line"/>
    </contour>
    <component base="n.curve" xOffset="112"/>
    <contour>
      <point x="275" y="500" type="move" name="top"/>
    </contour>
  </outline>
</glyph>
<glyph name="o" format="1">
  <advance width="459"/>
  <unicode hex="006F"/>
  <outline>
    <contour>
      <point x="317" y="-8"/>
      <point x="381" y="46"/>
      <point x="398" y="123" type="curve" smooth="yes"/>
      <point x="405" y="155"/>
      <point x="404" y="191"/>
      <point x="404" y="250" type="curve" smooth="yes"/>
      <point x="404" y="305"/>
      <point x="405" y="344"/>
      <point x="398" y="377" type="curve" smooth="yes"/>
      <point x="381" y="454"/>
      <point x="317" y="508"/>
      <point x="229" y="508" type="curve" smooth="yes"/>
      <point x="141" y="508"/>
      <point x="78" y="454"/>
      <point x="61" y="377" type="curve" smooth="yes"/>
      <point x="54" y="345"/>
      <point x="55" y="310"/>
      <point x="55" y="251" type="curve" smooth="yes"/>
      <point x="55" y="195"/>
      <point x="54" y="156"/>
      <point x="61" y="123" type="curve" smooth="yes"/>
      <point x="78" y="46"/>
      <point x="141" y="-8"/>
      <point x="229" y="-8" type="curve" smooth="yes"/>
    </contour>
    <contour>
      <point x="149" y="13"/>
      <point x="94" y="63"/>
      <point x="81" y="135" type="curve" smooth="yes"/>
      <point x="77" y="156"/>
      <point x="77" y="193"/>
      <point x="77" y="250" type="curve" smooth="yes"/>
      <point x="77" y="302"/>
      <point x="77" y="343"/>
      <point x="81" y="365" type="curve" smooth="yes"/>
      <point x="94" y="436"/>
      <point x="149" y="487"/>
      <point x="229" y="487" type="curve" smooth="yes"/>
      <point x="309" y="487"/>
      <point x="365" y="436"/>
      <point x="378" y="365" type="curve" smooth="yes"/>
      <point x="382" y="344"/>
      <point x="382" y="307"/>
      <point x="382" y="250" type="curve" smooth="yes"/>
      <point x="382" y="198"/>
      <point x="382" y="157"/>
      <point x="378" y="135" type="curve" smooth="yes"/>
      <point x="365" y="64"/>
      <point x="309" y="13"/>
      <point x="229" y="13" type="curve" smooth="yes"/>
    </contour>
    <contour>
      <point x="229" y="508" type="move" name="top"/>
    </contour>
  </outline>
</glyph>
<glyph name="r" format="1">
  <advance width="360"/>
  <unicode hex="0072"/>
  <outline>
    <contour>
      <point x="130" y="331" type="line"/>
      <point x="130" y="419"/>
      <point x="189" y="479"/>
      <point x="274" y="479" type="curve" smooth="yes"/>
      <point x="301" y="479"/>
      <point x="316" y="474"/>
      <point x="331" y="466" type="curve"/>
      <point x="342" y="489" type="line"/>
      <point x="325" y="498"/>
      <point x="307" y="504"/>
      <point x="275" y="504" type="curve" smooth="yes"/>
      <point x="178" y="504"/>
      <point x="115" y="438"/>
      <point x="115" y="331" type="curve"/>
    </contour>
    <contour>
      <point x="130" y="0" type="line"/>
      <point x="130" y="500" type="line"/>
      <point x="108" y="500" type="line"/>
      <point x="108" y="0" type="line"/>
    </contour>
  </outline>
</glyph>
<glyph name="s" format="1">
  <advance width="458"/>
  <unicode hex="0073"/>
  <outline>
    <contour>
      <point x="332" y="-4"/>
      <point x="396" y="53"/>
      <point x="396" y="130" type="curve" smooth="yes"/>
      <point x="396" y="218"/>
      <point x="311" y="241"/>
      <point x="230" y="267" type="curve" smooth="yes"/>
      <point x="155" y="291"/>
      <point x="90" y="313"/>
      <point x="90" y="379" type="curve" smooth="yes"/>
      <point x="90" y="440"/>
      <point x="145" y="483"/>
      <point x="229" y="483" type="curve" smooth="yes"/>
      <point x="316" y="483"/>
      <point x="372" y="437"/>
      <point x="372" y="379" type="curve" smooth="yes"/>
      <point x="372" y="366" type="line"/>
      <point x="394" y="366" type="line"/>
      <point x="394" y="379" type="line" smooth="yes"/>
      <point x="394" y="450"/>
      <point x="329" y="504"/>
      <point x="230" y="504" type="curve" smooth="yes"/>
      <point x="134" y="504"/>
      <point x="68" y="454"/>
      <point x="68" y="378" type="curve" smooth="yes"/>
      <point x="68" y="297"/>
      <point x="143" y="271"/>
      <point x="225" y="245" type="curve" smooth="yes"/>
      <point x="300" y="221"/>
      <point x="374" y="202"/>
      <point x="374" y="129" type="curve" smooth="yes"/>
      <point x="374" y="65"/>
      <point x="317" y="17"/>
      <point x="232" y="17" type="curve" smooth="yes"/>
      <point x="145" y="17"/>
      <point x="88" y="67"/>
      <point x="88" y="122" type="curve" smooth="yes"/>
      <point x="88" y="147" type="line"/>
      <point x="66" y="147" type="line"/>
      <point x="66" y="122" type="line" smooth="yes"/>
      <point x="66" y="54"/>
      <point x="133" y="-4"/>
      <point x="233" y="-4" type="curve" smooth="yes"/>
    </contour>
    <contour>
      <point x="231" y="504" type="move" name="top"/>
    </contour>
  </outline>
</glyph>
<glyph name="t" format="1">
  <advance width="299"/>
  <unicode hex="0074"/>
  <outline>
    <contour>
      <point x="266" y="0" type="line"/>
      <point x="266" y="21" type="line"/>
      <point x="237" y="21" type="line" smooth="yes"/>
      <point x="166" y="21"/>
      <point x="129" y="43"/>
      <point x="129" y="123" type="curve" smooth="yes"/>
      <point x="129" y="626" type="line"/>
      <point x="107" y="626" type="line"/>
      <point x="107" y="124" type="line" smooth="yes"/>
      <point x="107" y="23"/>
      <point x="161" y="0"/>
      <point x="237" y="0" type="curve" smooth="yes"/>
    </contour>
    <contour>
      <point x="264" y="479" type="line"/>
      <point x="264" y="500" type="line"/>
      <point x="33" y="500" type="line"/>
      <point x="33" y="479" type="line"/>
    </contour>
  </outline>
</glyph>
<glyph name="u" format="1">
  <advance width="520"/>
  <unicode hex="0075"/>
  <outline>
    <contour>
      <point x="344" y="-7"/>
      <point x="412" y="57"/>
      <point x="412" y="161" type="curve"/>
      <point x="394" y="161" type="line"/>
      <point x="394" y="74"/>
      <point x="335" y="14"/>
      <point x="244" y="14" type="curve" smooth="yes"/>
      <point x="159" y="14"/>
      <point x="100" y="71"/>
      <point x="100" y="161" type="curve" smooth="yes"/>
      <point x="100" y="500" type="line"/>
      <point x="78" y="500" type="line"/>
      <point x="78" y="158" type="line" smooth="yes"/>
      <point x="78" y="57"/>
      <point x="145" y="-7"/>
      <point x="241" y="-7" type="curve" smooth="yes"/>
    </contour>
    <contour>
      <point x="416" y="0" type="line"/>
      <point x="416" y="500" type="line"/>
      <point x="394" y="500" type="line"/>
      <point x="394" y="0" type="line"/>
    </contour>
    <contour>
      <point x="247" y="500" type="move" name="top"/>
    </contour>
  </outline>
</glyph>
<glyph name="v" format="1">
  <advance width="436"/>
  <unicode hex="0076"/>
  <outline>
    <contour>
      <point x="229" y="0" type="line"/>
      <point x="404" y="500" type="line"/>
      <point x="379" y="500" type="line"/>
      <point x="218" y="33" type="line"/>
      <point x="57" y="500" type="line"/>
      <point x="32" y="500" type="line"/>
      <point x="207" y="0" type="line"/>
    </contour>
  </outline>
</glyph>
<glyph name="w" format="1">
  <advance width="698"/>
  <unicode hex="0077"/>
  <outline>
    <contour>
      <point x="216" y="0" type="line"/>
      <point x="348" y="461" type="line"/>
      <point x="480" y="0" type="line"/>
      <point x="502" y="0" type="line"/>
      <point x="646" y="500" type="line"/>
      <point x="624" y="500" type="line"/>
      <point x="491" y="27" type="line"/>
      <point x="359" y="500" type="line"/>
      <point x="337" y="500" type="line"/>
      <point x="205" y="27" type="line"/>
      <point x="74" y="500" type="line"/>
      <point x="52" y="500" type="line"/>
      <point x="194" y="0" type="line"/>
    </contour>
  </outline>
</glyph>
<glyph name="x" format="1">
  <advance width="440"/>
  <unicode hex="0078"/>
  <outline>
    <contour>
      <point x="58" y="0" type="line"/>
      <point x="220" y="233" type="line"/>
      <point x="381" y="0" type="line"/>
      <point x="407" y="0" type="line"/>
      <point x="231" y="250" type="line"/>
      <point x="407" y="500" type="line"/>
      <point x="381" y="500" type="line"/>
      <point x="220" y="267" type="line"/>
      <point x="58" y="500" type="line"/>
      <point x="33" y="500" type="line"/>
      <point x="209" y="250" type="line"/>
      <point x="33" y="0" type="line"/>
    </contour>
  </outline>
</glyph>
<glyph name="y" format="1">
  <advance width="435"/>
  <unicode hex="0079"/>
  <outline>
    <contour>
      <point x="75" y="-200" type="line"/>
      <point x="140" y="-200"/>
      <point x="166" y="-185"/>
      <point x="208" y="-62" type="curve" smooth="yes"/>
      <point x="402" y="500" type="line"/>
      <point x="380" y="500" type="line"/>
      <point x="219" y="27" type="line"/>
      <point x="55" y="500" type="line"/>
      <point x="33" y="500" type="line"/>
      <point x="208" y="0" type="line"/>
      <point x="161" y="-147"/>
      <point x="148" y="-178"/>
      <point x="75" y="-179" type="curve"/>
      <point x="61" y="-179" type="line"/>
      <point x="61" y="-200" type="line"/>
    </contour>
    <contour>
      <point x="218" y="500" type="move" name="top"/>
    </contour>
  </outline>
</glyph>
<glyph name="z" format="1">
  <advance width="419"/>
  <unicode hex="007A"/>
  <outline>
    <contour>
      <point x="384" y="0" type="line"/>
      <point x="384" y="21" type="line"/>
      <point x="56" y="21" type="line"/>
      <point x="387" y="479" type="line"/>
      <point x="387" y="500" type="line"/>
      <point x="35" y="500" type="line"/>
      <point x="35" y="479" type="line"/>
      <point x="363" y="479" type="line"/>
      <point x="32" y="21" type="line"/>
      <point x="32" y="0" type="line"/>
    </contour>
    <contour>
      <point x="207" y="509" type="move" name="top"/>
    </contour>
  </outline>
</glyph>
<glyph name="asciitilde" format="1">
  <advance width="477"/>
  <unicode hex="007E"/>
  <outline>
    <contour>
      <point x="337" y="253" type="curve" smooth="yes"/>
      <point x="383" y="253"/>
      <point x="408" y="279"/>
      <point x="431" y="313" type="curve"/>
      <point x="416" y="324" type="line"/>
      <point x="393" y="297"/>
      <point x="376" y="275"/>
      <point x="339" y="275" type="curve" smooth="yes"/>
      <point x="293" y="275"/>
      <point x="265" y="293"/>
      <point x="237" y="309" type="curve" smooth="yes"/>
      <point x="212" y="323"/>
      <point x="187" y="336"/>
      <point x="149" y="336" type="curve" smooth="yes"/>
      <point x="100" y="336"/>
      <point x="65" y="311"/>
      <point x="46" y="272" type="curve"/>
      <point x="62" y="262" type="line"/>
      <point x="80" y="294"/>
      <point x="105" y="314"/>
      <point x="149" y="314" type="curve" smooth="yes"/>
      <point x="180" y="314"/>
      <point x="203" y="303"/>
      <point x="225" y="291" type="curve" smooth="yes"/>
      <point x="257" y="273"/>
      <point x="288" y="253"/>
    </contour>
  </outline>
</glyph>
<glyph name="cent" format="1">
  <advance width="508"/>
  <unicode hex="00A2"/>
  <outline>
    <contour>
      <point x="264" y="500" type="line"/>
      <point x="264" y="590" type="line"/>
      <point x="242" y="590" type="line"/>
      <point x="242" y="500" type="line"/>
    </contour>
    <contour>
      <point x="264" y="-90" type="line"/>
      <point x="264" y="0" type="line"/>
      <point x="242" y="0" type="line"/>
      <point x="242" y="-90" type="line"/>
    </contour>
    <component base="c"/>
  </outline>
</glyph>
<glyph name="sterling" format="1">
  <advance width="553"/>
  <unicode hex="00A3"/>
  <outline>
    <contour>
      <point x="521" y="0" type="line"/>
      <point x="521" y="20" type="line"/>
      <point x="163" y="20" type="line"/>
      <point x="194" y="48"/>
      <point x="214" y="102"/>
      <point x="214" y="165" type="curve" smooth="yes"/>
      <point x="214" y="527" type="line" smooth="yes"/>
      <point x="214" y="626"/>
      <point x="265" y="684"/>
      <point x="355" y="688" type="curve" smooth="yes"/>
      <point x="424" y="691"/>
      <point x="469" y="656"/>
      <point x="489" y="578" type="curve"/>
      <point x="511" y="584" type="line"/>
      <point x="488" y="670"/>
      <point x="434" y="712"/>
      <point x="355" y="708" type="curve" smooth="yes"/>
      <point x="252" y="703"/>
      <point x="192" y="636"/>
      <point x="192" y="527" type="curve" smooth="yes"/>
      <point x="192" y="162" type="line" smooth="yes"/>
      <point x="192" y="93"/>
      <point x="165" y="35"/>
      <point x="131" y="20" type="curve"/>
      <point x="131" y="0" type="line"/>
    </contour>
    <contour>
      <point x="410" y="323" type="line"/>
      <point x="410" y="343" type="line"/>
      <point x="104" y="343" type="line"/>
      <point x="104" y="323" type="line"/>
    </contour>
  </outline>
</glyph>
<glyph name="currency" format="1">
  <advance width="530"/>
  <unicode hex="00A4"/>
  <outline>
    <contour>
      <point x="373" y="104"/>
      <point x="464" y="194"/>
      <point x="465" y="306" type="curve"/>
      <point x="464" y="418"/>
      <point x="372" y="508"/>
      <point x="261" y="508" type="curve" smooth="yes"/>
      <point x="150" y="508"/>
      <point x="57" y="418"/>
      <point x="57" y="306" type="curve" smooth="yes"/>
      <point x="57" y="195"/>
      <point x="149" y="104"/>
      <point x="261" y="104" type="curve" smooth="yes"/>
    </contour>
    <contour>
      <point x="137" y="160" type="line"/>
      <point x="121" y="174" type="line"/>
      <point x="35" y="88" type="line"/>
      <point x="51" y="74" type="line"/>
    </contour>
    <contour>
      <point x="132" y="449" type="line"/>
      <point x="43" y="538" type="line"/>
      <point x="27" y="524" type="line"/>
      <point x="117" y="434" type="line"/>
    </contour>
    <contour>
      <point x="161" y="124"/>
      <point x="79" y="206"/>
      <point x="79" y="306" type="curve" smooth="yes"/>
      <point x="79" y="407"/>
      <point x="161" y="488"/>
      <point x="261" y="488" type="curve" smooth="yes"/>
      <point x="360" y="488"/>
      <point x="442" y="406"/>
      <point x="442" y="306" type="curve" smooth="yes"/>
      <point x="442" y="205"/>
      <point x="361" y="124"/>
      <point x="261" y="124" type="curve" smooth="yes"/>
    </contour>
    <contour>
      <point x="495" y="88" type="line"/>
      <point x="406" y="177" type="line"/>
      <point x="390" y="162" type="line"/>
      <point x="479" y="74" type="line"/>
    </contour>
    <contour>
      <point x="503" y="524" type="line"/>
      <point x="487" y="538" type="line"/>
      <point x="393" y="444" type="line"/>
      <point x="408" y="430" type="line"/>
    </contour>
  </outline>
</glyph>
<glyph name="yen" format="1">
  <advance width="690"/>
  <unicode hex="00A5"/>
  <outline>
    <contour>
      <point x="504" y="323" type="line"/>
      <point x="504" y="343" type="line"/>
      <point x="168" y="343" type="line"/>
      <point x="168" y="323" type="line"/>
    </contour>
    <contour>
      <point x="504" y="193" type="line"/>
      <point x="504" y="213" type="line"/>
      <point x="168" y="213" type="line"/>
      <point x="168" y="193" type="line"/>
    </contour>
    <component base="Y" xOffset="73"/>
  </outline>
</glyph>
<glyph name="brokenbar" format="1">
  <advance width="140"/>
  <unicode hex="00A6"/>
  <outline>
    <contour>
      <point x="59" y="395" type="line"/>
      <point x="81" y="395" type="line"/>
      <point x="81" y="760" type="line"/>
      <point x="59" y="760" type="line"/>
    </contour>
    <contour>
      <point x="59" y="-80" type="line"/>
      <point x="81" y="-80" type="line"/>
      <point x="81" y="285" type="line"/>
      <point x="59" y="285" type="line"/>
    </contour>
  </outline>
</glyph>
<glyph name="section" format="1">
  <advance width="416"/>
  <unicode hex="00A7"/>
  <outline>
    <contour>
      <point x="293" y="-207"/>
      <point x="349" y="-140"/>
      <point x="349" y="-57" type="curve" smooth="yes"/>
      <point x="349" y="21"/>
      <point x="301" y="71"/>
      <point x="241" y="90" type="curve"/>
      <point x="280" y="94"/>
      <point x="312" y="118"/>
      <point x="331" y="152" type="curve" smooth="yes"/>
      <point x="347" y="180"/>
      <point x="355" y="215"/>
      <point x="355" y="253" type="curve" smooth="yes"/>
      <point x="355" y="298"/>
      <point x="343" y="330"/>
      <point x="326" y="353" type="curve" smooth="yes"/>
      <point x="295" y="394"/>
      <point x="250" y="408"/>
      <point x="225" y="416" type="curve" smooth="yes"/>
      <point x="147" y="441"/>
      <point x="93" y="480"/>
      <point x="93" y="554" type="curve" smooth="yes"/>
      <point x="93" y="622"/>
      <point x="138" y="687"/>
      <point x="211" y="687" type="curve" smooth="yes"/>
      <point x="276" y="687"/>
      <point x="324" y="633"/>
      <point x="324" y="559" type="curve" smooth="yes"/>
      <point x="324" y="538" type="line"/>
      <point x="346" y="538" type="line"/>
      <point x="346" y="559" type="line"/>
      <point x="344" y="644"/>
      <point x="290" y="707"/>
      <point x="210" y="707" type="curve" smooth="yes"/>
      <point x="125" y="707"/>
      <point x="71" y="636"/>
      <point x="71" y="558" type="curve" smooth="yes"/>
      <point x="71" y="486"/>
      <point x="121" y="425"/>
      <point x="184" y="406" type="curve"/>
      <point x="142" y="399"/>
      <point x="108" y="375"/>
      <point x="86" y="341" type="curve" smooth="yes"/>
      <point x="70" y="315"/>
      <point x="61" y="282"/>
      <point x="61" y="245" type="curve" smooth="yes"/>
      <point x="61" y="211"/>
      <point x="69" y="181"/>
      <point x="81" y="159" type="curve" smooth="yes"/>
      <point x="106" y="112"/>
      <point x="151" y="94"/>
      <point x="195" y="81" type="curve" smooth="yes"/>
      <point x="244" y="67"/>
      <point x="326" y="41"/>
      <point x="326" y="-55" type="curve" smooth="yes"/>
      <point x="326" y="-128"/>
      <point x="279" y="-187"/>
      <point x="210" y="-187" type="curve" smooth="yes"/>
      <point x="142" y="-187"/>
      <point x="97" y="-133"/>
      <point x="96" y="-47" type="curve"/>
      <point x="96" y="-26" type="line"/>
      <point x="74" y="-26" type="line"/>
      <point x="74" y="-47" type="line" smooth="yes"/>
      <point x="74" y="-146"/>
      <point x="128" y="-207"/>
      <point x="209" y="-207" type="curve" smooth="yes"/>
    </contour>
    <contour>
      <point x="160" y="107"/>
      <point x="125" y="128"/>
      <point x="101" y="165" type="curve" smooth="yes"/>
      <point x="87" y="187"/>
      <point x="83" y="213"/>
      <point x="83" y="242" type="curve" smooth="yes"/>
      <point x="83" y="272"/>
      <point x="89" y="298"/>
      <point x="102" y="321" type="curve" smooth="yes"/>
      <point x="123" y="359"/>
      <point x="163" y="388"/>
      <point x="209" y="388" type="curve" smooth="yes"/>
      <point x="252" y="388"/>
      <point x="283" y="369"/>
      <point x="306" y="340" type="curve" smooth="yes"/>
      <point x="324" y="318"/>
      <point x="333" y="286"/>
      <point x="333" y="247" type="curve" smooth="yes"/>
      <point x="333" y="216"/>
      <point x="327" y="187"/>
      <point x="314" y="164" type="curve" smooth="yes"/>
      <point x="293" y="127"/>
      <point x="257" y="107"/>
      <point x="207" y="107" type="curve" smooth="yes"/>
    </contour>
  </outline>
</glyph>
<glyph name="copyright" format="1">
  <advance width="905"/>
  <unicode hex="00A9"/>
  <outline>
    <contour>
      <point x="658" y="-8"/>
      <point x="815" y="151"/>
      <point x="815" y="347" type="curve" smooth="yes"/>
      <point x="815" y="549"/>
      <point x="658" y="708"/>
      <point x="452" y="708" type="curve" smooth="yes"/>
      <point x="247" y="708"/>
      <point x="90" y="549"/>
      <point x="90" y="347" type="curve" smooth="yes"/>
      <point x="90" y="151"/>
      <point x="247" y="-8"/>
      <point x="452" y="-8" type="curve" smooth="yes"/>
    </contour>
    <contour>
      <point x="259" y="13"/>
      <point x="112" y="163"/>
      <point x="112" y="347" type="curve" smooth="yes"/>
      <point x="112" y="537"/>
      <point x="259" y="687"/>
      <point x="452" y="687" type="curve" smooth="yes"/>
      <point x="645" y="687"/>
      <point x="792" y="537"/>
      <point x="792" y="347" type="curve" smooth="yes"/>
      <point x="792" y="163"/>
      <point x="645" y="13"/>
      <point x="452" y="13" type="curve" smooth="yes"/>
    </contour>
    <contour>
      <point x="516" y="165"/>
      <point x="558" y="203"/>
      <point x="558" y="260" type="curve" smooth="yes"/>
      <point x="558" y="272" type="line"/>
      <point x="536" y="269" type="line"/>
      <point x="536" y="256" type="line" smooth="yes"/>
      <point x="536" y="214"/>
      <point x="503" y="186"/>
      <point x="455" y="186" type="curve" smooth="yes"/>
      <point x="407" y="186"/>
      <point x="374" y="214"/>
      <point x="374" y="256" type="curve" smooth="yes"/>
      <point x="374" y="436" type="line" smooth="yes"/>
      <point x="374" y="478"/>
      <point x="406" y="506"/>
      <point x="455" y="506" type="curve" smooth="yes"/>
      <point x="503" y="506"/>
      <point x="536" y="478"/>
      <point x="536" y="436" type="curve" smooth="yes"/>
      <point x="536" y="423" type="line"/>
      <point x="558" y="420" type="line"/>
      <point x="558" y="433" type="line" smooth="yes"/>
      <point x="558" y="490"/>
      <point x="517" y="527"/>
      <point x="455" y="527" type="curve" smooth="yes"/>
      <point x="393" y="527"/>
      <point x="352" y="489"/>
      <point x="352" y="433" type="curve" smooth="yes"/>
      <point x="352" y="260" type="line" smooth="yes"/>
      <point x="352" y="203"/>
      <point x="393" y="165"/>
      <point x="455" y="165" type="curve" smooth="yes"/>
    </contour>
  </outline>
</glyph>
<glyph name="ordfeminine" format="1">
  <advance width="321"/>
  <unicode hex="00AA"/>
  <outline>
    <contour>
      <point x="272" y="472" type="line"/>
      <point x="272" y="698" type="line" smooth="yes"/>
      <point x="272" y="764"/>
      <point x="236" y="808"/>
      <point x="159" y="808" type="curve" smooth="yes"/>
      <point x="94" y="808"/>
      <point x="50" y="776"/>
      <point x="44" y="728" type="curve"/>
      <point x="67" y="725" type="line"/>
      <point x="71" y="763"/>
      <point x="106" y="788"/>
      <point x="157" y="788" type="curve" smooth="yes"/>
      <point x="223" y="788"/>
      <point x="249" y="749"/>
      <point x="249" y="698" type="curve" smooth="yes"/>
      <point x="249" y="472" type="line"/>
    </contour>
    <contour>
      <point x="203" y="467"/>
      <point x="263" y="498"/>
      <point x="263" y="567" type="curve"/>
      <point x="263" y="661" type="line"/>
      <point x="166" y="661" type="line"/>
      <point x="82" y="661"/>
      <point x="30" y="622"/>
      <point x="30" y="557" type="curve" smooth="yes"/>
      <point x="30" y="491"/>
      <point x="84" y="467"/>
      <point x="138" y="467" type="curve" smooth="yes"/>
    </contour>
    <contour>
      <point x="91" y="487"/>
      <point x="52" y="509"/>
      <point x="52" y="559" type="curve" smooth="yes"/>
      <point x="52" y="612"/>
      <point x="99" y="640"/>
      <point x="165" y="640" type="curve"/>
      <point x="249" y="640" type="line"/>
      <point x="249" y="572" type="line" smooth="yes"/>
      <point x="249" y="513"/>
      <point x="194" y="487"/>
      <point x="139" y="487" type="curve" smooth="yes"/>
    </contour>
    <component base="minus" xOffset="2" yOffset="94" xScale="0.6"/>
  </outline>
</glyph>
<glyph name="logicalnot" format="1">
  <advance width="510"/>
  <unicode hex="00AC"/>
  <outline>
    <contour>
      <point x="464" y="186" type="line"/>
      <point x="464" y="316" type="line"/>
      <point x="442" y="316" type="line"/>
      <point x="442" y="186" type="line"/>
    </contour>
    <component base="minus"/>
  </outline>
</glyph>
<glyph name="registered" format="1">
  <advance width="905"/>
  <unicode hex="00AE"/>
  <outline>
    <contour>
      <point x="663" y="-8"/>
      <point x="815" y="146"/>
      <point x="815" y="347" type="curve" smooth="yes"/>
      <point x="815" y="554"/>
      <point x="663" y="708"/>
      <point x="452" y="708" type="curve" smooth="yes"/>
      <point x="242" y="708"/>
      <point x="90" y="554"/>
      <point x="90" y="347" type="curve" smooth="yes"/>
      <point x="90" y="146"/>
      <point x="242" y="-8"/>
      <point x="452" y="-8" type="curve" smooth="yes"/>
    </contour>
    <contour>
      <point x="254" y="13"/>
      <point x="112" y="158"/>
      <point x="112" y="347" type="curve" smooth="yes"/>
      <point x="112" y="542"/>
      <point x="254" y="687"/>
      <point x="452" y="687" type="curve" smooth="yes"/>
      <point x="650" y="687"/>
      <point x="792" y="542"/>
      <point x="792" y="347" type="curve" smooth="yes"/>
      <point x="792" y="158"/>
      <point x="650" y="13"/>
      <point x="452" y="13" type="curve" smooth="yes"/>
    </contour>
    <contour>
      <point x="564" y="180" type="line"/>
      <point x="480" y="353" type="line"/>
      <point x="461" y="345" type="line"/>
      <point x="539" y="180" type="line"/>
    </contour>
    <contour>
      <point x="393" y="180" type="line"/>
      <point x="393" y="487" type="line"/>
      <point x="470" y="487" type="line" smooth="yes"/>
      <point x="507" y="487"/>
      <point x="532" y="462"/>
      <point x="532" y="420" type="curve" smooth="yes"/>
      <point x="532" y="379"/>
      <point x="507" y="353"/>
      <point x="470" y="353" type="curve" smooth="yes"/>
      <point x="379" y="353" type="line"/>
      <point x="379" y="333" type="line"/>
      <point x="469" y="333" type="line" smooth="yes"/>
      <point x="520" y="333"/>
      <point x="554" y="368"/>
      <point x="554" y="420" type="curve" smooth="yes"/>
      <point x="554" y="472"/>
      <point x="520" y="508"/>
      <point x="469" y="508" type="curve" smooth="yes"/>
      <point x="371" y="508" type="line"/>
      <point x="371" y="180" type="line"/>
    </contour>
  </outline>
</glyph>
<glyph name="macron" format="1">
  <advance width="251"/>
  <unicode hex="00AF"/>
  <outline>
    <contour>
      <point x="0" y="601" type="line"/>
      <point x="251" y="601" type="line"/>
      <point x="251" y="622" type="line"/>
      <point x="0" y="622" type="line"/>
    </contour>
    <contour>
      <point x="125" y="500" type="move" name="_top"/>
    </contour>
  </outline>
</glyph>
<glyph name="paragraph" format="1">
  <advance width="543"/>
  <unicode hex="00B6"/>
  <outline>
    <contour>
      <point x="228" y="-200" type="line"/>
      <point x="250" y="-200" type="line"/>
      <point x="250" y="679" type="line"/>
      <point x="406" y="679" type="line"/>
      <point x="406" y="-200" type="line"/>
      <point x="426" y="-200" type="line"/>
      <point x="426" y="700" type="line"/>
      <point x="241" y="700" type="line" smooth="yes"/>
      <point x="133" y="700"/>
      <point x="44" y="599"/>
      <point x="44" y="475" type="curve" smooth="yes"/>
      <point x="44" y="351"/>
      <point x="128" y="250"/>
      <point x="230" y="250" type="curve"/>
      <point x="228" y="280" type="line"/>
    </contour>
  </outline>
</glyph>
<glyph name="ordmasculine" format="1">
  <advance width="338"/>
  <unicode hex="00BA"/>
  <outline>
    <contour>
      <point x="236" y="460"/>
      <point x="281" y="496"/>
      <point x="293" y="547" type="curve" smooth="yes"/>
      <point x="298" y="568"/>
      <point x="297" y="593"/>
      <point x="297" y="631" type="curve" smooth="yes"/>
      <point x="297" y="666"/>
      <point x="298" y="692"/>
      <point x="293" y="714" type="curve" smooth="yes"/>
      <point x="281" y="766"/>
      <point x="236" y="801"/>
      <point x="176" y="801" type="curve" smooth="yes"/>
      <point x="116" y="801"/>
      <point x="72" y="766"/>
      <point x="60" y="714" type="curve" smooth="yes"/>
      <point x="55" y="693"/>
      <point x="55" y="668"/>
      <point x="55" y="631" type="curve" smooth="yes"/>
      <point x="55" y="596"/>
      <point x="55" y="570"/>
      <point x="61" y="547" type="curve" smooth="yes"/>
      <point x="75" y="495"/>
      <point x="116" y="460"/>
      <point x="176" y="460" type="curve" smooth="yes"/>
    </contour>
    <contour>
      <point x="125" y="480"/>
      <point x="91" y="511"/>
      <point x="81" y="557" type="curve" smooth="yes"/>
      <point x="78" y="571"/>
      <point x="78" y="595"/>
      <point x="78" y="631" type="curve" smooth="yes"/>
      <point x="78" y="663"/>
      <point x="78" y="689"/>
      <point x="81" y="704" type="curve" smooth="yes"/>
      <point x="90" y="749"/>
      <point x="125" y="781"/>
      <point x="176" y="781" type="curve" smooth="yes"/>
      <point x="227" y="781"/>
      <point x="262" y="749"/>
      <point x="272" y="704" type="curve" smooth="yes"/>
      <point x="275" y="690"/>
      <point x="275" y="666"/>
      <point x="275" y="631" type="curve" smooth="yes"/>
      <point x="275" y="598"/>
      <point x="275" y="572"/>
      <point x="272" y="557" type="curve" smooth="yes"/>
      <point x="263" y="512"/>
      <point x="227" y="480"/>
      <point x="176" y="480" type="curve" smooth="yes"/>
    </contour>
    <component base="minus" xOffset="13" yOffset="94" xScale="0.6"/>
  </outline>
</glyph>
<glyph name="AE" format="1">
  <advance width="825"/>
  <unicode hex="00C6"/>
  <outline>
    <contour>
      <point x="52" y="0" type="line"/>
      <point x="400" y="684" type="line"/>
      <point x="400" y="0" type="line"/>
      <point x="771" y="0" type="line"/>
      <point x="771" y="21" type="line"/>
      <point x="422" y="21" type="line"/>
      <point x="422" y="679" type="line"/>
      <point x="771" y="679" type="line"/>
      <point x="771" y="700" type="line"/>
      <point x="386" y="700" type="line"/>
      <point x="27" y="0" type="line"/>
    </contour>
    <contour>
      <point x="413" y="155" type="line"/>
      <point x="413" y="176" type="line"/>
      <point x="132" y="176" type="line"/>
      <point x="127" y="155" type="line"/>
    </contour>
    <contour>
      <point x="662" y="340" type="line"/>
      <point x="662" y="361" type="line"/>
      <point x="411" y="361" type="line"/>
      <point x="411" y="340" type="line"/>
    </contour>
  </outline>
</glyph>
<glyph name="Eth" format="1">
  <advance width="693"/>
  <unicode hex="00D0"/>
  <outline>
    <contour>
      <point x="117" y="356" type="line"/>
      <point x="402" y="356" type="line"/>
      <point x="402" y="377" type="line"/>
      <point x="117" y="377" type="line"/>
    </contour>
    <component base="D" xOffset="95"/>
  </outline>
</glyph>
<glyph name="multiply" format="1">
  <advance width="469"/>
  <unicode hex="00D7"/>
  <outline>
    <contour>
      <point x="235" y="297" type="line"/>
      <point x="407" y="124" type="line"/>
      <point x="423" y="138" type="line"/>
      <point x="249" y="312" type="line"/>
      <point x="423" y="486" type="line"/>
      <point x="407" y="500" type="line"/>
      <point x="235" y="327" type="line"/>
      <point x="62" y="500" type="line"/>
      <point x="46" y="486" type="line"/>
      <point x="220" y="312" type="line"/>
      <point x="46" y="138" type="line"/>
      <point x="62" y="124" type="line"/>
    </contour>
  </outline>
</glyph>
<glyph name="Oslash" format="1">
  <advance width="526"/>
  <unicode hex="00D8"/>
  <outline>
    <contour>
      <point x="94" y="-21" type="line"/>
      <point x="114" y="-30" type="line"/>
      <point x="435" y="730" type="line"/>
      <point x="415" y="739" type="line"/>
    </contour>
    <component base="O"/>
  </outline>
</glyph>
<glyph name="Thorn" format="1">
  <advance width="588"/>
  <unicode hex="00DE"/>
  <outline>
    <contour>
      <point x="130" y="0" type="line"/>
      <point x="130" y="700" type="line"/>
      <point x="108" y="700" type="line"/>
      <point x="108" y="0" type="line"/>
    </contour>
    <contour>
      <point x="356" y="169" type="line" smooth="yes"/>
      <point x="463" y="169"/>
      <point x="534" y="240"/>
      <point x="534" y="349" type="curve" smooth="yes"/>
      <point x="534" y="458"/>
      <point x="463" y="531"/>
      <point x="356" y="531" type="curve" smooth="yes"/>
      <point x="130" y="531" type="line"/>
      <point x="130" y="510" type="line"/>
      <point x="358" y="510" type="line" smooth="yes"/>
      <point x="450" y="510"/>
      <point x="512" y="446"/>
      <point x="512" y="349" type="curve" smooth="yes"/>
      <point x="512" y="254"/>
      <point x="450" y="190"/>
      <point x="358" y="190" type="curve" smooth="yes"/>
      <point x="130" y="190" type="line"/>
      <point x="130" y="169" type="line"/>
    </contour>
  </outline>
</glyph>
<glyph name="germandbls" format="1">
  <advance width="535"/>
  <unicode hex="00DF"/>
  <outline>
    <contour>
      <point x="121" y="0" type="line"/>
      <point x="121" y="528" type="line"/>
      <point x="122" y="631"/>
      <point x="175" y="689"/>
      <point x="268" y="689" type="curve" smooth="yes"/>
      <point x="365" y="689"/>
      <point x="424" y="633"/>
      <point x="427" y="532" type="curve" smooth="yes"/>
      <point x="430" y="435"/>
      <point x="379" y="380"/>
      <point x="287" y="380" type="curve"/>
      <point x="211" y="380" type="line"/>
      <point x="211" y="360" type="line"/>
      <point x="286" y="360" type="line"/>
      <point x="380" y="357"/>
      <point x="432" y="297"/>
      <point x="432" y="187" type="curve" smooth="yes"/>
      <point x="432" y="82"/>
      <point x="371" y="20"/>
      <point x="258" y="20" type="curve" smooth="yes"/>
      <point x="177" y="20" type="line"/>
      <point x="177" y="0" type="line"/>
      <point x="258" y="0" type="line" smooth="yes"/>
      <point x="383" y="0"/>
      <point x="454" y="72"/>
      <point x="454" y="187" type="curve" smooth="yes"/>
      <point x="454" y="282"/>
      <point x="412" y="347"/>
      <point x="344" y="369" type="curve"/>
      <point x="410" y="388"/>
      <point x="451" y="447"/>
      <point x="449" y="532" type="curve" smooth="yes"/>
      <point x="446" y="644"/>
      <point x="377" y="709"/>
      <point x="268" y="709" type="curve" smooth="yes"/>
      <point x="162" y="709"/>
      <point x="100" y="641"/>
      <point x="99" y="528" type="curve"/>
      <point x="99" y="0" type="line"/>
    </contour>
  </outline>
</glyph>
<glyph name="ae" format="1">
  <advance width="827"/>
  <unicode hex="00E6"/>
  <outline>
    <contour>
      <point x="303" y="-8"/>
      <point x="386" y="26"/>
      <point x="406" y="95" type="curve"/>
      <point x="425" y="26"/>
      <point x="489" y="-8"/>
      <point x="571" y="-8" type="curve" smooth="yes"/>
      <point x="659" y="-8"/>
      <point x="723" y="44"/>
      <point x="742" y="118" type="curve"/>
      <point x="720" y="117" type="line"/>
      <point x="702" y="56"/>
      <point x="647" y="13"/>
      <point x="571" y="13" type="curve" smooth="yes"/>
      <point x="489" y="13"/>
      <point x="416" y="56"/>
      <point x="416" y="142" type="curve"/>
      <point x="416" y="180"/>
      <point x="416" y="217"/>
      <point x="416" y="255" type="curve"/>
      <point x="750" y="255" type="line"/>
      <point x="750" y="341"/>
      <point x="750" y="350"/>
      <point x="744" y="377" type="curve" smooth="yes"/>
      <point x="727" y="454"/>
      <point x="661" y="508"/>
      <point x="571" y="508" type="curve" smooth="yes"/>
      <point x="492" y="508"/>
      <point x="433" y="466"/>
      <point x="409" y="403" type="curve"/>
      <point x="391" y="468"/>
      <point x="342" y="508"/>
      <point x="251" y="508" type="curve" smooth="yes"/>
      <point x="157" y="508"/>
      <point x="92" y="462"/>
      <point x="82" y="392" type="curve"/>
      <point x="104" y="388" type="line"/>
      <point x="111" y="449"/>
      <point x="167" y="487"/>
      <point x="248" y="487" type="curve" smooth="yes"/>
      <point x="354" y="487"/>
      <point x="394" y="425"/>
      <point x="394" y="345" type="curve" smooth="yes"/>
      <point x="394" y="276" type="line"/>
      <point x="264" y="276" type="line" smooth="yes"/>
      <point x="137" y="276"/>
      <point x="59" y="224"/>
      <point x="59" y="128" type="curve" smooth="yes"/>
      <point x="59" y="26"/>
      <point x="143" y="-8"/>
      <point x="221" y="-8" type="curve" smooth="yes"/>
    </contour>
    <contour>
      <point x="143" y="13"/>
      <point x="81" y="49"/>
      <point x="81" y="129" type="curve" smooth="yes"/>
      <point x="81" y="213"/>
      <point x="156" y="255"/>
      <point x="261" y="255" type="curve" smooth="yes"/>
      <point x="394" y="255" type="line"/>
      <point x="394" y="142" type="line"/>
      <point x="394" y="52"/>
      <point x="304" y="13"/>
      <point x="220" y="13" type="curve" smooth="yes"/>
    </contour>
    <contour>
      <point x="416" y="316"/>
      <point x="417" y="347"/>
      <point x="420" y="365" type="curve" smooth="yes"/>
      <point x="432" y="436"/>
      <point x="489" y="487"/>
      <point x="571" y="487" type="curve" smooth="yes"/>
      <point x="653" y="487"/>
      <point x="711" y="436"/>
      <point x="724" y="365" type="curve" smooth="yes"/>
      <point x="727" y="348"/>
      <point x="728" y="313"/>
      <point x="728" y="276" type="curve"/>
      <point x="416" y="276" type="line"/>
    </contour>
  </outline>
</glyph>
<glyph name="eth" format="1">
  <advance width="516"/>
  <unicode hex="00F0"/>
  <outline>
    <contour>
      <point x="347" y="-8"/>
      <point x="413" y="46"/>
      <point x="430" y="123" type="curve" smooth="yes"/>
      <point x="437" y="155"/>
      <point x="435" y="191"/>
      <point x="435" y="250" type="curve" smooth="yes"/>
      <point x="435" y="290"/>
      <point x="436" y="321"/>
      <point x="434" y="348" type="curve" smooth="yes"/>
      <point x="421" y="562"/>
      <point x="300" y="642"/>
      <point x="226" y="700" type="curve"/>
      <point x="194" y="700" type="line"/>
      <point x="280" y="634"/>
      <point x="386" y="539"/>
      <point x="401" y="427" type="curve"/>
      <point x="408" y="430" type="line"/>
      <point x="379" y="478"/>
      <point x="324" y="508"/>
      <point x="257" y="508" type="curve" smooth="yes"/>
      <point x="168" y="508"/>
      <point x="104" y="454"/>
      <point x="87" y="377" type="curve" smooth="yes"/>
      <point x="79" y="345"/>
      <point x="80" y="310"/>
      <point x="80" y="251" type="curve" smooth="yes"/>
      <point x="80" y="195"/>
      <point x="79" y="156"/>
      <point x="87" y="123" type="curve" smooth="yes"/>
      <point x="105" y="46"/>
      <point x="167" y="-8"/>
      <point x="257" y="-8" type="curve" smooth="yes"/>
    </contour>
    <contour>
      <point x="175" y="13"/>
      <point x="119" y="63"/>
      <point x="106" y="135" type="curve" smooth="yes"/>
      <point x="102" y="156"/>
      <point x="102" y="193"/>
      <point x="102" y="250" type="curve" smooth="yes"/>
      <point x="102" y="302"/>
      <point x="102" y="343"/>
      <point x="106" y="365" type="curve" smooth="yes"/>
      <point x="119" y="436"/>
      <point x="175" y="487"/>
      <point x="257" y="487" type="curve" smooth="yes"/>
      <point x="339" y="487"/>
      <point x="397" y="436"/>
      <point x="410" y="365" type="curve" smooth="yes"/>
      <point x="414" y="344"/>
      <point x="413" y="307"/>
      <point x="413" y="250" type="curve" smooth="yes"/>
      <point x="413" y="198"/>
      <point x="414" y="157"/>
      <point x="410" y="135" type="curve" smooth="yes"/>
      <point x="397" y="64"/>
      <point x="339" y="13"/>
      <point x="257" y="13" type="curve" smooth="yes"/>
    </contour>
    <contour>
      <point x="400" y="634" type="line"/>
      <point x="394" y="653" type="line"/>
      <point x="207" y="589" type="line"/>
      <point x="213" y="570" type="line"/>
    </contour>
  </outline>
</glyph>
<glyph name="divide" format="1">
  <advance width="508"/>
  <unicode hex="00F7"/>
  <outline>
    <contour>
      <point x="462" y="305" type="line"/>
      <point x="462" y="326" type="line"/>
      <point x="46" y="326" type="line"/>
      <point x="46" y="305" type="line"/>
    </contour>
    <contour>
      <point x="276" y="124"/>
      <point x="296" y="142"/>
      <point x="296" y="165" type="curve" smooth="yes"/>
      <point x="296" y="187"/>
      <point x="276" y="205"/>
      <point x="254" y="205" type="curve" smooth="yes"/>
      <point x="232" y="205"/>
      <point x="213" y="187"/>
      <point x="213" y="165" type="curve" smooth="yes"/>
      <point x="213" y="142"/>
      <point x="231" y="124"/>
      <point x="254" y="124" type="curve" smooth="yes"/>
    </contour>
    <contour>
      <point x="276" y="426"/>
      <point x="296" y="444"/>
      <point x="296" y="467" type="curve" smooth="yes"/>
      <point x="296" y="489"/>
      <point x="276" y="507"/>
      <point x="254" y="507" type="curve" smooth="yes"/>
      <point x="232" y="507"/>
      <point x="213" y="489"/>
      <point x="213" y="467" type="curve" smooth="yes"/>
      <point x="213" y="444"/>
      <point x="231" y="426"/>
      <point x="254" y="426" type="curve" smooth="yes"/>
    </contour>
  </outline>
</glyph>
<glyph name="oslash" format="1">
  <advance width="459"/>
  <unicode hex="00F8"/>
  <outline>
    <contour>
      <point x="52" y="-10" type="line"/>
      <point x="70" y="-22" type="line"/>
      <point x="404" y="510" type="line"/>
      <point x="386" y="522" type="line"/>
    </contour>
    <component base="o"/>
  </outline>
</glyph>
<glyph name="thorn" format="1">
  <advance width="512"/>
  <unicode hex="00FE"/>
  <outline>
    <contour>
      <point x="88" y="-167" type="line"/>
      <point x="110" y="-167" type="line"/>
      <point x="110" y="725" type="line"/>
      <point x="88" y="725" type="line"/>
    </contour>
    <component base="b.bowl" xOffset="91"/>
  </outline>
</glyph>
<glyph name="idotless" format="1">
  <advance width="206"/>
  <unicode hex="0131"/>
  <outline>
    <contour>
      <point x="108" y="0" type="line"/>
      <point x="108" y="500" type="line"/>
      <point x="86" y="500" type="line"/>
      <point x="86" y="0" type="line"/>
    </contour>
    <contour>
      <point x="97" y="509" type="move" name="top"/>
    </contour>
  </outline>
</glyph>
<glyph name="lslash" format="1">
  <advance width="220"/>
  <unicode hex="0142"/>
  <outline>
    <contour>
      <point x="236" y="409" type="line"/>
      <point x="224" y="428" type="line"/>
      <point x="13" y="291" type="line"/>
      <point x="25" y="273" type="line"/>
    </contour>
    <component base="l"/>
  </outline>
</glyph>
<glyph name="Eng" format="1">
  <advance width="684"/>
  <unicode hex="014A"/>
  <outline>
    <contour>
      <point x="448" y="-139" type="line"/>
      <point x="534" y="-139"/>
      <point x="567" y="-87"/>
      <point x="567" y="-2" type="curve" smooth="yes"/>
      <point x="567" y="572" type="line"/>
      <point x="545" y="572" type="line"/>
      <point x="545" y="-2" type="line" smooth="yes"/>
      <point x="545" y="-74"/>
      <point x="521" y="-118"/>
      <point x="448" y="-118" type="curve"/>
    </contour>
    <component base="N"/>
  </outline>
</glyph>
<glyph name="eng" format="1">
  <advance width="534"/>
  <unicode hex="014B"/>
  <outline>
    <contour>
      <point x="401" y="-161"/>
      <point x="444" y="-105"/>
      <point x="444" y="-24" type="curve" smooth="yes"/>
      <point x="444" y="200" type="line"/>
      <point x="422" y="200" type="line"/>
      <point x="422" y="-24" type="line" smooth="yes"/>
      <point x="422" y="-92"/>
      <point x="388" y="-140"/>
      <point x="325" y="-140" type="curve"/>
      <point x="325" y="-161" type="line"/>
    </contour>
    <component base="n"/>
  </outline>
</glyph>
<glyph name="oe" format="1">
  <advance width="848"/>
  <unicode hex="0153"/>
  <outline>
    <contour>
      <point x="348" y="-8"/>
      <point x="416" y="49"/>
      <point x="431" y="126" type="curve" smooth="yes"/>
      <point x="437" y="158"/>
      <point x="436" y="191"/>
      <point x="436" y="250" type="curve" smooth="yes"/>
      <point x="436" y="305"/>
      <point x="437" y="341"/>
      <point x="431" y="374" type="curve" smooth="yes"/>
      <point x="416" y="451"/>
      <point x="348" y="508"/>
      <point x="258" y="508" type="curve" smooth="yes"/>
      <point x="169" y="508"/>
      <point x="105" y="454"/>
      <point x="88" y="377" type="curve" smooth="yes"/>
      <point x="80" y="345"/>
      <point x="81" y="310"/>
      <point x="81" y="251" type="curve" smooth="yes"/>
      <point x="81" y="195"/>
      <point x="80" y="156"/>
      <point x="88" y="123" type="curve" smooth="yes"/>
      <point x="106" y="46"/>
      <point x="168" y="-8"/>
      <point x="258" y="-8" type="curve" smooth="yes"/>
    </contour>
    <contour>
      <point x="176" y="13"/>
      <point x="120" y="63"/>
      <point x="107" y="135" type="curve" smooth="yes"/>
      <point x="103" y="156"/>
      <point x="103" y="193"/>
      <point x="103" y="250" type="curve" smooth="yes"/>
      <point x="103" y="302"/>
      <point x="103" y="343"/>
      <point x="107" y="365" type="curve" smooth="yes"/>
      <point x="120" y="436"/>
      <point x="176" y="487"/>
      <point x="258" y="487" type="curve" smooth="yes"/>
      <point x="340" y="487"/>
      <point x="398" y="436"/>
      <point x="411" y="365" type="curve" smooth="yes"/>
      <point x="415" y="344"/>
      <point x="414" y="307"/>
      <point x="414" y="250" type="curve" smooth="yes"/>
      <point x="414" y="198"/>
      <point x="415" y="157"/>
      <point x="411" y="135" type="curve" smooth="yes"/>
      <point x="398" y="64"/>
      <point x="340" y="13"/>
      <point x="258" y="13" type="curve" smooth="yes"/>
    </contour>
    <contour>
      <point x="679" y="-8"/>
      <point x="743" y="44"/>
      <point x="762" y="116" type="curve"/>
      <point x="740" y="117" type="line"/>
      <point x="722" y="56"/>
      <point x="667" y="13"/>
      <point x="591" y="13" type="curve" smooth="yes"/>
      <point x="509" y="13"/>
      <point x="454" y="63"/>
      <point x="440" y="135" type="curve" smooth="yes"/>
      <point x="436" y="156"/>
      <point x="436" y="193"/>
      <point x="436" y="250" type="curve" smooth="yes"/>
      <point x="436" y="302"/>
      <point x="436" y="343"/>
      <point x="440" y="365" type="curve" smooth="yes"/>
      <point x="453" y="436"/>
      <point x="509" y="487"/>
      <point x="591" y="487" type="curve" smooth="yes"/>
      <point x="673" y="487"/>
      <point x="730" y="436"/>
      <point x="744" y="365" type="curve" smooth="yes"/>
      <point x="748" y="345"/>
      <point x="748" y="302"/>
      <point x="748" y="258" type="curve"/>
      <point x="757" y="267" type="line"/>
      <point x="426" y="267" type="line"/>
      <point x="426" y="247" type="line"/>
      <point x="770" y="247" type="line"/>
      <point x="770" y="333"/>
      <point x="770" y="350"/>
      <point x="764" y="377" type="curve" smooth="yes"/>
      <point x="747" y="454"/>
      <point x="681" y="508"/>
      <point x="591" y="508" type="curve" smooth="yes"/>
      <point x="502" y="508"/>
      <point x="438" y="454"/>
      <point x="421" y="377" type="curve" smooth="yes"/>
      <point x="414" y="345"/>
      <point x="414" y="310"/>
      <point x="414" y="251" type="curve" smooth="yes"/>
      <point x="414" y="195"/>
      <point x="413" y="156"/>
      <point x="421" y="123" type="curve" smooth="yes"/>
      <point x="440" y="46"/>
      <point x="502" y="-8"/>
      <point x="591" y="-8" type="curve" smooth="yes"/>
    </contour>
  </outline>
</glyph>
<glyph name="florin" format="1">
  <advance width="543"/>
  <unicode hex="0192"/>
  <outline>
    <contour>
      <point x="71" y="-200" type="line" smooth="yes"/>
      <point x="179" y="-200"/>
      <point x="215" y="-140"/>
      <point x="231" y="-40" type="curve" smooth="yes"/>
      <point x="323" y="540" type="line" smooth="yes"/>
      <point x="337" y="627"/>
      <point x="364" y="679"/>
      <point x="459" y="679" type="curve" smooth="yes"/>
      <point x="493" y="679" type="line"/>
      <point x="493" y="700" type="line"/>
      <point x="462" y="700" type="line" smooth="yes"/>
      <point x="354" y="700"/>
      <point x="318" y="640"/>
      <point x="302" y="540" type="curve" smooth="yes"/>
      <point x="210" y="-40" type="line" smooth="yes"/>
      <point x="196" y="-127"/>
      <point x="169" y="-179"/>
      <point x="74" y="-179" type="curve" smooth="yes"/>
      <point x="40" y="-179" type="line"/>
      <point x="40" y="-200" type="line"/>
    </contour>
    <contour>
      <point x="417" y="349" type="line"/>
      <point x="417" y="370" type="line"/>
      <point x="177" y="370" type="line"/>
      <point x="177" y="349" type="line"/>
    </contour>
  </outline>
</glyph>
<glyph name="caron" format="1">
  <advance width="216"/>
  <unicode hex="02C7"/>
  <outline>
    <contour>
      <point x="98" y="560" type="line"/>
      <point x="118" y="560" type="line"/>
      <point x="216" y="685" type="line"/>
      <point x="190" y="685" type="line"/>
      <point x="109" y="580" type="line"/>
      <point x="26" y="685" type="line"/>
      <point x="0" y="685" type="line"/>
    </contour>
    <contour>
      <point x="109" y="503" type="move" name="_top"/>
    </contour>
  </outline>
</glyph>
<glyph name="breve" format="1">
  <advance width="198"/>
  <unicode hex="02D8"/>
  <outline>
    <contour>
      <point x="154" y="544"/>
      <point x="198" y="587"/>
      <point x="198" y="641" type="curve"/>
      <point x="176" y="641" type="line"/>
      <point x="176" y="598"/>
      <point x="141" y="565"/>
      <point x="99" y="565" type="curve" smooth="yes"/>
      <point x="57" y="565"/>
      <point x="22" y="598"/>
      <point x="22" y="641" type="curve"/>
      <point x="0" y="641" type="line"/>
      <point x="0" y="587"/>
      <point x="44" y="544"/>
      <point x="99" y="544" type="curve" smooth="yes"/>
    </contour>
    <contour>
      <point x="99" y="500" type="move" name="_top"/>
    </contour>
  </outline>
</glyph>
<glyph name="ogonek" format="1">
  <advance width="600"/>
  <unicode hex="02DB"/>
  <outline>
    <contour>
      <point x="375" y="-158" type="line"/>
      <point x="335" y="-168"/>
      <point x="293" y="-162"/>
      <point x="285" y="-118" type="curve" smooth="yes"/>
      <point x="277" y="-73"/>
      <point x="312" y="-30"/>
      <point x="349" y="0" type="curve"/>
      <point x="317" y="0" type="line"/>
      <point x="273" y="-42"/>
      <point x="255" y="-85"/>
      <point x="263" y="-124" type="curve" smooth="yes"/>
      <point x="275" y="-182"/>
      <point x="334" y="-189"/>
      <point x="381" y="-178" type="curve"/>
    </contour>
    <contour>
      <point x="331" y="0" type="move" name="_ogo"/>
    </contour>
  </outline>
</glyph>
<glyph name="acutecomb" format="1">
  <advance width="264"/>
  <unicode hex="0301"/>
  <outline>
    <contour>
      <point x="116" y="570" type="line"/>
      <point x="191" y="701" type="line"/>
      <point x="167" y="701" type="line"/>
      <point x="94" y="570" type="line"/>
    </contour>
    <contour>
      <point x="123" y="500" type="move" name="_top"/>
    </contour>
  </outline>
</glyph>
<glyph name="circumflexcomb" format="1">
  <advance width="216"/>
  <unicode hex="0302"/>
  <outline>
    <contour>
      <point x="26" y="570" type="line"/>
      <point x="109" y="675" type="line"/>
      <point x="190" y="570" type="line"/>
      <point x="216" y="570" type="line"/>
      <point x="118" y="695" type="line"/>
      <point x="98" y="695" type="line"/>
      <point x="0" y="570" type="line"/>
    </contour>
    <contour>
      <point x="109" y="500" type="move" name="_top"/>
    </contour>
  </outline>
</glyph>
<glyph name="tildecomb" format="1">
  <advance width="262"/>
  <unicode hex="0303"/>
  <outline>
    <contour>
      <point x="208" y="604"/>
      <point x="243" y="615"/>
      <point x="262" y="656" type="curve"/>
      <point x="250" y="669" type="line"/>
      <point x="230" y="635"/>
      <point x="207" y="626"/>
      <point x="186" y="626" type="curve" smooth="yes"/>
      <point x="169" y="626"/>
      <point x="153" y="638"/>
      <point x="136" y="649" type="curve" smooth="yes"/>
      <point x="120" y="661"/>
      <point x="102" y="672"/>
      <point x="78" y="672" type="curve" smooth="yes"/>
      <point x="50" y="672"/>
      <point x="23" y="660"/>
      <point x="0" y="624" type="curve"/>
      <point x="17" y="613" type="line"/>
      <point x="39" y="645"/>
      <point x="55" y="650"/>
      <point x="78" y="650" type="curve" smooth="yes"/>
      <point x="98" y="650"/>
      <point x="111" y="640"/>
      <point x="127" y="628" type="curve" smooth="yes"/>
      <point x="142" y="617"/>
      <point x="161" y="604"/>
      <point x="185" y="604" type="curve" smooth="yes"/>
    </contour>
    <contour>
      <point x="115" y="500" type="move" name="_top"/>
    </contour>
  </outline>
</glyph>
<glyph name="macroncomb" format="1">
  <advance width="251"/>
  <unicode hex="0304"/>
  <outline>
    <contour>
      <point x="251" y="605" type="line"/>
      <point x="251" y="626" type="line"/>
      <point x="0" y="626" type="line"/>
      <point x="0" y="605" type="line"/>
    </contour>
    <contour>
      <point x="125" y="500" type="move" name="_top"/>
    </contour>
  </outline>
</glyph>
<glyph name="brevecomb" format="1">
  <advance width="270"/>
  <unicode hex="0306"/>
  <outline>
    <contour>
      <point x="135" y="544" type="curve" smooth="yes"/>
      <point x="190" y="544"/>
      <point x="234" y="587"/>
      <point x="234" y="641" type="curve"/>
      <point x="212" y="641" type="line"/>
      <point x="212" y="598"/>
      <point x="177" y="565"/>
      <point x="135" y="565" type="curve" smooth="yes"/>
      <point x="93" y="565"/>
      <point x="58" y="598"/>
      <point x="58" y="641" type="curve"/>
      <point x="36" y="641" type="line"/>
      <point x="36" y="587"/>
      <point x="80" y="544"/>
    </contour>
    <contour>
      <point x="135" y="500" type="move" name="_top"/>
    </contour>
  </outline>
</glyph>
<glyph name="dotaccentcomb" format="1">
  <advance width="62"/>
  <unicode hex="0307"/>
  <outline>
    <contour>
      <point x="49" y="612"/>
      <point x="62" y="625"/>
      <point x="62" y="642" type="curve" smooth="yes"/>
      <point x="62" y="658"/>
      <point x="49" y="671"/>
      <point x="32" y="671" type="curve" smooth="yes"/>
      <point x="14" y="671"/>
      <point x="0" y="658"/>
      <point x="0" y="642" type="curve" smooth="yes"/>
      <point x="0" y="625"/>
      <point x="14" y="612"/>
      <point x="32" y="612" type="curve" smooth="yes"/>
    </contour>
    <contour>
      <point x="32" y="500" type="move" name="_top"/>
    </contour>
  </outline>
</glyph>
<glyph name="dieresiscomb" format="1">
  <advance width="214"/>
  <unicode hex="0308"/>
  <outline>
    <contour>
      <point x="201" y="620"/>
      <point x="214" y="633"/>
      <point x="214" y="650" type="curve" smooth="yes"/>
      <point x="214" y="666"/>
      <point x="201" y="679"/>
      <point x="184" y="679" type="curve" smooth="yes"/>
      <point x="166" y="679"/>
      <point x="152" y="666"/>
      <point x="152" y="650" type="curve" smooth="yes"/>
      <point x="152" y="633"/>
      <point x="166" y="620"/>
      <point x="184" y="620" type="curve" smooth="yes"/>
    </contour>
    <contour>
      <point x="49" y="620"/>
      <point x="62" y="633"/>
      <point x="62" y="650" type="curve" smooth="yes"/>
      <point x="62" y="666"/>
      <point x="49" y="679"/>
      <point x="32" y="679" type="curve" smooth="yes"/>
      <point x="14" y="679"/>
      <point x="0" y="666"/>
      <point x="0" y="650" type="curve" smooth="yes"/>
      <point x="0" y="633"/>
      <point x="14" y="620"/>
      <point x="32" y="620" type="curve" smooth="yes"/>
    </contour>
    <contour>
      <point x="107" y="500" type="move" name="_top"/>
    </contour>
  </outline>
</glyph>
<glyph name="ringcomb" format="1">
  <advance width="198"/>
  <unicode hex="030A"/>
  <outline>
    <contour>
      <point x="154" y="549"/>
      <point x="198" y="592"/>
      <point x="198" y="646" type="curve" smooth="yes"/>
      <point x="198" y="700"/>
      <point x="154" y="743"/>
      <point x="99" y="743" type="curve" smooth="yes"/>
      <point x="44" y="743"/>
      <point x="0" y="700"/>
      <point x="0" y="646" type="curve" smooth="yes"/>
      <point x="0" y="592"/>
      <point x="44" y="549"/>
      <point x="99" y="549" type="curve" smooth="yes"/>
    </contour>
    <contour>
      <point x="57" y="570"/>
      <point x="22" y="603"/>
      <point x="22" y="646" type="curve" smooth="yes"/>
      <point x="22" y="689"/>
      <point x="57" y="722"/>
      <point x="99" y="722" type="curve" smooth="yes"/>
      <point x="141" y="722"/>
      <point x="176" y="689"/>
      <point x="176" y="646" type="curve" smooth="yes"/>
      <point x="176" y="603"/>
      <point x="141" y="570"/>
      <point x="99" y="570" type="curve" smooth="yes"/>
    </contour>
    <contour>
      <point x="99" y="500" type="move" name="_top"/>
    </contour>
  </outline>
</glyph>
<glyph name="hungarumlautcomb" format="1">
  <advance width="297"/>
  <unicode hex="030B"/>
  <outline>
    <component base="acutecomb" xOffset="-70" yOffset="8"/>
    <component base="acutecomb" xOffset="82" yOffset="8"/>
    <contour>
      <point x="121" y="500" type="move" name="_top"/>
    </contour>
  </outline>
</glyph>
<glyph name="caroncomb" format="1">
  <advance width="288"/>
  <unicode hex="030C"/>
  <outline>
    <contour>
      <point x="154" y="560" type="line"/>
      <point x="252" y="685" type="line"/>
      <point x="226" y="685" type="line"/>
      <point x="145" y="580" type="line"/>
      <point x="62" y="685" type="line"/>
      <point x="36" y="685" type="line"/>
      <point x="134" y="560" type="line"/>
    </contour>
    <contour>
      <point x="145" y="503" type="move" name="_top"/>
    </contour>
  </outline>
</glyph>
<glyph name="commaturnedabovecomb" format="1">
  <advance width="169"/>
  <unicode hex="0312"/>
  <outline>
    <component base="acutecomb" xOffset="227" yOffset="1272" xScale="-1" yScale="-1"/>
    <contour>
      <point x="47" y="500" type="move" name="_top"/>
    </contour>
  </outline>
</glyph>
<glyph name="commaaccentcomb" format="1">
  <advance width="264"/>
  <unicode hex="0326"/>
  <outline>
    <contour>
      <point x="105" y="-266" type="line"/>
      <point x="161" y="-47" type="line"/>
      <point x="139" y="-47" type="line"/>
      <point x="83" y="-266" type="line"/>
    </contour>
    <contour>
      <point x="151" y="0" type="move" name="_bottom"/>
    </contour>
  </outline>
</glyph>
<glyph name="cedillacomb" format="1">
  <advance width="600"/>
  <unicode hex="0327"/>
  <outline>
    <contour>
      <point x="356" y="-259"/>
      <point x="474" y="-101"/>
      <point x="391" y="-45" type="curve" smooth="yes"/>
      <point x="368" y="-30"/>
      <point x="328" y="-26"/>
      <point x="313" y="-42" type="curve"/>
      <point x="316" y="-43" type="line"/>
      <point x="324" y="-16" type="line"/>
      <point x="304" y="-10" type="line"/>
      <point x="287" y="-64" type="line"/>
      <point x="307" y="-71" type="line"/>
      <point x="319" y="-44"/>
      <point x="348" y="-40"/>
      <point x="379" y="-61" type="curve" smooth="yes"/>
      <point x="437" y="-101"/>
      <point x="352" y="-219"/>
      <point x="273" y="-114" type="curve"/>
      <point x="255" y="-126" type="line"/>
    </contour>
  </outline>
</glyph>
<glyph name="strokeshortcomb" format="1">
  <advance width="292"/>
  <unicode hex="0335"/>
  <outline>
    <contour>
      <point x="0" y="604" type="line"/>
      <point x="0" y="583" type="line"/>
      <point x="292" y="583" type="line"/>
      <point x="292" y="604" type="line"/>
    </contour>
    <contour>
      <point x="146" y="576" type="move" name="_shortstroke"/>
    </contour>
  </outline>
</glyph>
<glyph name="slashshortcomb" format="1">
  <advance width="359"/>
  <unicode hex="0337"/>
  <outline>
    <contour>
      <point x="-15" y="83" type="line"/>
      <point x="416" y="379" type="line"/>
      <point x="404" y="398" type="line"/>
      <point x="-27" y="101" type="line"/>
    </contour>
  </outline>
</glyph>
<glyph name="slashlongcomb" format="1">
  <advance width="355"/>
  <unicode hex="0338"/>
  <outline>
    <contour>
      <point x="24" y="-30" type="line"/>
      <point x="355" y="739" type="line"/>
      <point x="331" y="739" type="line"/>
      <point x="0" y="-30" type="line"/>
    </contour>
  </outline>
</glyph>
<glyph name="Delta" format="1">
  <advance width="634"/>
  <unicode hex="0394"/>
  <outline>
    <contour>
      <point x="590" y="0" type="line"/>
      <point x="590" y="20" type="line"/>
      <point x="329" y="700" type="line"/>
      <point x="305" y="700" type="line"/>
      <point x="44" y="21" type="line"/>
      <point x="44" y="0" type="line"/>
    </contour>
    <contour>
      <point x="317" y="673" type="line"/>
      <point x="568" y="20" type="line"/>
      <point x="66" y="20" type="line"/>
    </contour>
  </outline>
</glyph>
<glyph name="Omega" format="1">
  <advance width="646"/>
  <unicode hex="03A9"/>
  <outline>
    <contour>
      <point x="90" y="0" type="line"/>
      <point x="269" y="0" type="line"/>
      <point x="269" y="21" type="line"/>
      <point x="203" y="30"/>
      <point x="124" y="106"/>
      <point x="124" y="216" type="curve" smooth="yes"/>
      <point x="124" y="490" type="line" smooth="yes"/>
      <point x="124" y="608"/>
      <point x="203" y="687"/>
      <point x="322" y="687" type="curve" smooth="yes"/>
      <point x="442" y="687"/>
      <point x="522" y="608"/>
      <point x="522" y="490" type="curve" smooth="yes"/>
      <point x="522" y="216" type="line" smooth="yes"/>
      <point x="522" y="106"/>
      <point x="442" y="30"/>
      <point x="374" y="21" type="curve"/>
      <point x="374" y="0" type="line"/>
      <point x="556" y="0" type="line"/>
      <point x="556" y="21" type="line"/>
      <point x="426" y="21" type="line"/>
      <point x="499" y="54"/>
      <point x="544" y="125"/>
      <point x="544" y="217" type="curve" smooth="yes"/>
      <point x="544" y="489" type="line" smooth="yes"/>
      <point x="544" y="620"/>
      <point x="455" y="708"/>
      <point x="322" y="708" type="curve" smooth="yes"/>
      <point x="190" y="708"/>
      <point x="102" y="620"/>
      <point x="102" y="489" type="curve" smooth="yes"/>
      <point x="102" y="217" type="line" smooth="yes"/>
      <point x="102" y="125"/>
      <point x="146" y="54"/>
      <point x="219" y="21" type="curve"/>
      <point x="90" y="21" type="line"/>
    </contour>
  </outline>
</glyph>
<glyph name="pi" format="1">
  <advance width="534"/>
  <unicode hex="03C0"/>
  <outline>
    <contour>
      <point x="515" y="22" type="line"/>
      <point x="462" y="22"/>
      <point x="444" y="44"/>
      <point x="444" y="124" type="curve" smooth="yes"/>
      <point x="444" y="517" type="line"/>
      <point x="422" y="517" type="line"/>
      <point x="422" y="125" type="line" smooth="yes"/>
      <point x="422" y="24"/>
      <point x="458" y="1"/>
      <point x="515" y="1" type="curve"/>
    </contour>
    <contour>
      <point x="121" y="0" type="line"/>
      <point x="121" y="500" type="line"/>
      <point x="99" y="500" type="line"/>
      <point x="99" y="0" type="line"/>
    </contour>
    <contour>
      <point x="517" y="500" type="line"/>
      <point x="517" y="520" type="line"/>
      <point x="15" y="520" type="line"/>
      <point x="15" y="500" type="line"/>
    </contour>
  </outline>
</glyph>
<glyph name="emdash" format="1">
  <advance width="660"/>
  <unicode hex="2014"/>
  <outline>
    <contour>
      <point x="636" y="271" type="line"/>
      <point x="636" y="292" type="line"/>
      <point x="24" y="292" type="line"/>
      <point x="24" y="271" type="line"/>
    </contour>
  </outline>
</glyph>
<glyph name="quoteleft" format="1">
  <advance width="96"/>
  <unicode hex="2018"/>
  <outline>
    <contour>
      <point x="76" y="700" type="line"/>
      <point x="0" y="510" type="line"/>
      <point x="26" y="510" type="line"/>
      <point x="96" y="700" type="line"/>
    </contour>
  </outline>
</glyph>
<glyph name="quotedblleft" format="1">
  <advance width="199"/>
  <unicode hex="201C"/>
  <outline>
    <contour>
      <point x="103" y="510" type="line"/>
      <point x="129" y="510" type="line"/>
      <point x="199" y="700" type="line"/>
      <point x="179" y="700" type="line"/>
    </contour>
    <contour>
      <point x="0" y="510" type="line"/>
      <point x="26" y="510" type="line"/>
      <point x="96" y="700" type="line"/>
      <point x="76" y="700" type="line"/>
    </contour>
  </outline>
</glyph>
<glyph name="dagger" format="1">
  <advance width="412"/>
  <unicode hex="2020"/>
  <outline>
    <contour>
      <point x="217" y="-200" type="line"/>
      <point x="217" y="700" type="line"/>
      <point x="195" y="700" type="line"/>
      <point x="195" y="-200" type="line"/>
    </contour>
    <contour>
      <point x="366" y="436" type="line"/>
      <point x="366" y="457" type="line"/>
      <point x="46" y="457" type="line"/>
      <point x="46" y="436" type="line"/>
    </contour>
  </outline>
</glyph>
<glyph name="daggerdbl" format="1">
  <advance width="412"/>
  <unicode hex="2021"/>
  <outline>
    <contour>
      <point x="195" y="-200" type="line"/>
      <point x="217" y="-200" type="line"/>
      <point x="217" y="700" type="line"/>
      <point x="195" y="700" type="line"/>
    </contour>
    <contour>
      <point x="46" y="43" type="line"/>
      <point x="366" y="43" type="line"/>
      <point x="366" y="64" type="line"/>
      <point x="46" y="64" type="line"/>
    </contour>
    <contour>
      <point x="46" y="436" type="line"/>
      <point x="366" y="436" type="line"/>
      <point x="366" y="457" type="line"/>
      <point x="46" y="457" type="line"/>
    </contour>
  </outline>
</glyph>
<glyph name="bullet" format="1">
  <advance width="275"/>
  <unicode hex="2022"/>
  <outline>
    <contour>
      <point x="190" y="164"/>
      <point x="233" y="207"/>
      <point x="233" y="260" type="curve" smooth="yes"/>
      <point x="233" y="313"/>
      <point x="190" y="355"/>
      <point x="138" y="355" type="curve" smooth="yes"/>
      <point x="85" y="355"/>
      <point x="42" y="313"/>
      <point x="42" y="260" type="curve" smooth="yes"/>
      <point x="42" y="207"/>
      <point x="85" y="164"/>
      <point x="138" y="164" type="curve" smooth="yes"/>
    </contour>
  </outline>
</glyph>
<glyph name="guilsinglright" format="1">
  <advance width="413"/>
  <unicode hex="203A"/>
  <outline>
    <contour>
      <point x="140" y="107" type="line"/>
      <point x="296" y="281" type="line"/>
      <point x="140" y="455" type="line"/>
      <point x="117" y="455" type="line"/>
      <point x="273" y="281" type="line"/>
      <point x="117" y="107" type="line"/>
    </contour>
  </outline>
</glyph>
<glyph name="fraction" format="1">
  <advance width="245"/>
  <unicode hex="2044"/>
  <outline>
    <contour>
      <point x="-92" y="0" type="line"/>
      <point x="365" y="700" type="line"/>
      <point x="341" y="700" type="line"/>
      <point x="-116" y="0" type="line"/>
    </contour>
  </outline>
</glyph>
<glyph name="euro" format="1">
  <advance width="588"/>
  <unicode hex="20AC"/>
  <outline>
    <contour>
      <point x="439" y="-9"/>
      <point x="508" y="58"/>
      <point x="516" y="159" type="curve"/>
      <point x="494" y="162" type="line"/>
      <point x="488" y="71"/>
      <point x="427" y="12"/>
      <point x="338" y="12" type="curve" smooth="yes"/>
      <point x="244" y="12"/>
      <point x="181" y="78"/>
      <point x="181" y="176" type="curve" smooth="yes"/>
      <point x="181" y="524" type="line" smooth="yes"/>
      <point x="181" y="622"/>
      <point x="244" y="687"/>
      <point x="338" y="687" type="curve" smooth="yes"/>
      <point x="429" y="687"/>
      <point x="490" y="626"/>
      <point x="494" y="533" type="curve"/>
      <point x="516" y="537" type="line"/>
      <point x="510" y="640"/>
      <point x="441" y="708"/>
      <point x="338" y="708" type="curve" smooth="yes"/>
      <point x="230" y="708"/>
      <point x="159" y="634"/>
      <point x="159" y="523" type="curve" smooth="yes"/>
      <point x="159" y="178" type="line" smooth="yes"/>
      <point x="159" y="66"/>
      <point x="230" y="-9"/>
      <point x="338" y="-9" type="curve" smooth="yes"/>
    </contour>
    <contour>
      <point x="406" y="280" type="line"/>
      <point x="416" y="301" type="line"/>
      <point x="80" y="301" type="line"/>
      <point x="80" y="280" type="line"/>
    </contour>
    <contour>
      <point x="438" y="395" type="line"/>
      <point x="447" y="416" type="line"/>
      <point x="80" y="416" type="line"/>
      <point x="80" y="395" type="line"/>
    </contour>
    <contour>
      <point x="338" y="708" type="move" name="top"/>
    </contour>
  </outline>
</glyph>
<glyph name="uni20BA" format="1">
  <advance width="630"/>
  <unicode hex="20BA"/>
  <outline>
    <contour>
      <point x="96" y="309" type="line"/>
      <point x="398" y="394" type="line"/>
      <point x="392" y="414" type="line"/>
      <point x="90" y="329" type="line"/>
    </contour>
    <contour>
      <point x="96" y="409" type="line"/>
      <point x="398" y="494" type="line"/>
      <point x="392" y="514" type="line"/>
      <point x="90" y="429" type="line"/>
    </contour>
    <contour>
      <point x="223" y="0" type="line"/>
      <point x="252" y="-1"/>
      <point x="285" y="2"/>
      <point x="313" y="7" type="curve" smooth="yes"/>
      <point x="459" y="33"/>
      <point x="549" y="138"/>
      <point x="549" y="259" type="curve"/>
      <point x="527" y="259" type="line"/>
      <point x="527" y="133"/>
      <point x="415" y="25"/>
      <point x="245" y="20" type="curve"/>
      <point x="245" y="700" type="line"/>
      <point x="223" y="700" type="line"/>
    </contour>
  </outline>
</glyph>
<glyph name="uni20BD" format="1">
  <advance width="698"/>
  <unicode hex="20BD"/>
  <outline>
    <contour>
      <point x="240" y="0" type="line"/>
      <point x="240" y="681" type="line"/>
      <point x="478" y="681" type="line" smooth="yes"/>
      <point x="570" y="681"/>
      <point x="632" y="617"/>
      <point x="632" y="520" type="curve" smooth="yes"/>
      <point x="632" y="425"/>
      <point x="570" y="361"/>
      <point x="478" y="361" type="curve" smooth="yes"/>
      <point x="117" y="361" type="line"/>
      <point x="117" y="340" type="line"/>
      <point x="476" y="340" type="line" smooth="yes"/>
      <point x="583" y="340"/>
      <point x="654" y="411"/>
      <point x="654" y="520" type="curve" smooth="yes"/>
      <point x="654" y="629"/>
      <point x="583" y="702"/>
      <point x="476" y="702" type="curve" smooth="yes"/>
      <point x="218" y="702" type="line"/>
      <point x="218" y="0" type="line"/>
    </contour>
    <contour>
      <point x="117" y="205" type="line"/>
      <point x="528" y="205" type="line"/>
      <point x="528" y="226" type="line"/>
      <point x="117" y="226" type="line"/>
    </contour>
  </outline>
</glyph>
<glyph name="uni2113" format="1">
  <advance width="502"/>
  <unicode hex="2113"/>
  <outline>
    <contour>
      <point x="334" y="-8"/>
      <point x="386" y="10"/>
      <point x="400" y="28" type="curve"/>
      <point x="400" y="50" type="line"/>
      <point x="384" y="35"/>
      <point x="348" y="12"/>
      <point x="297" y="12" type="curve" smooth="yes"/>
      <point x="230" y="12"/>
      <point x="196" y="51"/>
      <point x="196" y="135" type="curve"/>
      <point x="194" y="503" type="line" smooth="yes"/>
      <point x="194" y="598"/>
      <point x="241" y="680"/>
      <point x="298" y="688" type="curve" smooth="yes"/>
      <point x="346" y="695"/>
      <point x="381" y="648"/>
      <point x="381" y="589" type="curve" smooth="yes"/>
      <point x="381" y="459"/>
      <point x="214" y="362"/>
      <point x="99" y="254" type="curve"/>
      <point x="115" y="240" type="line"/>
      <point x="228" y="348"/>
      <point x="403" y="449"/>
      <point x="403" y="589" type="curve" smooth="yes"/>
      <point x="403" y="661"/>
      <point x="356" y="715"/>
      <point x="296" y="708" type="curve" smooth="yes"/>
      <point x="225" y="700"/>
      <point x="171" y="607"/>
      <point x="172" y="503" type="curve" smooth="yes"/>
      <point x="174" y="135" type="line" smooth="yes"/>
      <point x="174" y="45"/>
      <point x="216" y="-8"/>
      <point x="291" y="-8" type="curve" smooth="yes"/>
    </contour>
  </outline>
</glyph>
<glyph name="trademark" format="1">
  <advance width="649"/>
  <unicode hex="2122"/>
  <outline>
    <contour>
      <point x="370" y="349" type="line"/>
      <point x="370" y="659" type="line"/>
      <point x="463" y="516" type="line"/>
      <point x="476" y="516" type="line"/>
      <point x="568" y="659" type="line"/>
      <point x="568" y="349" type="line"/>
      <point x="590" y="349" type="line"/>
      <point x="590" y="700" type="line"/>
      <point x="568" y="700" type="line"/>
      <point x="469" y="544" type="line"/>
      <point x="370" y="700" type="line"/>
      <point x="348" y="700" type="line"/>
      <point x="348" y="349" type="line"/>
    </contour>
    <contour>
      <point x="152" y="349" type="line"/>
      <point x="152" y="695" type="line"/>
      <point x="130" y="695" type="line"/>
      <point x="130" y="349" type="line"/>
    </contour>
    <contour>
      <point x="261" y="680" type="line"/>
      <point x="261" y="700" type="line"/>
      <point x="27" y="700" type="line"/>
      <point x="27" y="680" type="line"/>
    </contour>
  </outline>
</glyph>
<glyph name="estimated" format="1">
  <advance width="905"/>
  <unicode hex="212E"/>
  <outline>
    <contour>
      <point x="780" y="189" type="curve"/>
      <point x="754" y="189" type="line"/>
      <point x="699" y="83"/>
      <point x="589" y="13"/>
      <point x="452" y="13" type="curve" smooth="yes"/>
      <point x="254" y="13"/>
      <point x="112" y="158"/>
      <point x="112" y="347" type="curve" smooth="yes"/>
      <point x="112" y="542"/>
      <point x="254" y="687"/>
      <point x="452" y="687" type="curve" smooth="yes"/>
      <point x="650" y="687"/>
      <point x="792" y="542"/>
      <point x="792" y="347" type="curve" smooth="yes"/>
      <point x="792" y="345"/>
      <point x="792" y="344"/>
      <point x="792" y="343" type="curve"/>
      <point x="815" y="343" type="line"/>
      <point x="815" y="344"/>
      <point x="815" y="345"/>
      <point x="815" y="347" type="curve" smooth="yes"/>
      <point x="815" y="554"/>
      <point x="663" y="708"/>
      <point x="452" y="708" type="curve" smooth="yes"/>
      <point x="242" y="708"/>
      <point x="90" y="554"/>
      <point x="90" y="347" type="curve" smooth="yes"/>
      <point x="90" y="146"/>
      <point x="242" y="-8"/>
      <point x="452" y="-8" type="curve" smooth="yes"/>
      <point x="603" y="-8"/>
      <point x="723" y="70"/>
    </contour>
    <contour>
      <point x="101" y="364" type="line"/>
      <point x="101" y="343" type="line"/>
      <point x="802" y="343" type="line"/>
      <point x="802" y="364" type="line"/>
    </contour>
    <contour>
      <point x="163" y="544" type="line"/>
      <point x="149" y="524"/>
      <point x="100" y="448"/>
      <point x="100" y="353" type="curve" smooth="yes"/>
      <point x="100" y="267"/>
      <point x="137" y="154"/>
      <point x="162" y="141" type="curve"/>
    </contour>
    <contour>
      <point x="804" y="352" type="line"/>
      <point x="804" y="420"/>
      <point x="779" y="492"/>
      <point x="741" y="546" type="curve"/>
      <point x="741" y="352" type="line"/>
    </contour>
  </outline>
</glyph>
<glyph name="partialdiff" format="1">
  <advance width="580"/>
  <unicode hex="2202"/>
  <outline>
    <contour>
      <point x="269" y="-8" type="curve" smooth="yes"/>
      <point x="464" y="-8"/>
      <point x="483" y="189"/>
      <point x="481" y="340" type="curve" smooth="yes"/>
      <point x="480" y="440"/>
      <point x="465" y="552"/>
      <point x="412" y="627" type="curve" smooth="yes"/>
      <point x="379" y="674"/>
      <point x="335" y="701"/>
      <point x="278" y="707" type="curve" smooth="yes"/>
      <point x="238" y="711"/>
      <point x="191" y="706"/>
      <point x="146" y="669" type="curve"/>
      <point x="153" y="651" type="line"/>
      <point x="198" y="687"/>
      <point x="243" y="691"/>
      <point x="278" y="687" type="curve" smooth="yes"/>
      <point x="329" y="681"/>
      <point x="366" y="657"/>
      <point x="395" y="615" type="curve" smooth="yes"/>
      <point x="444" y="544"/>
      <point x="458" y="437"/>
      <point x="460" y="346" type="curve" smooth="yes"/>
      <point x="465" y="139"/>
      <point x="418" y="13"/>
      <point x="270" y="13" type="curve" smooth="yes"/>
      <point x="170" y="13"/>
      <point x="102" y="88"/>
      <point x="102" y="203" type="curve" smooth="yes"/>
      <point x="102" y="321"/>
      <point x="183" y="399"/>
      <point x="283" y="399" type="curve" smooth="yes"/>
      <point x="378" y="399"/>
      <point x="447" y="329"/>
      <point x="467" y="260" type="curve"/>
      <point x="479" y="275" type="line"/>
      <point x="458" y="342"/>
      <point x="387" y="422"/>
      <point x="281" y="422" type="curve" smooth="yes"/>
      <point x="169" y="422"/>
      <point x="80" y="332"/>
      <point x="80" y="203" type="curve" smooth="yes"/>
      <point x="80" y="76"/>
      <point x="155" y="-8"/>
    </contour>
  </outline>
</glyph>
<glyph name="summation" format="1">
  <advance width="624"/>
  <unicode hex="2211"/>
  <outline>
    <contour>
      <point x="117" y="-199" type="line"/>
      <point x="552" y="-199" type="line"/>
      <point x="552" y="-179" type="line"/>
      <point x="143" y="-179" type="line"/>
      <point x="396" y="290" type="line"/>
      <point x="143" y="679" type="line"/>
      <point x="552" y="679" type="line"/>
      <point x="552" y="699" type="line"/>
      <point x="118" y="699" type="line"/>
      <point x="118" y="679" type="line"/>
      <point x="370" y="290" type="line"/>
      <point x="117" y="-179" type="line"/>
    </contour>
  </outline>
</glyph>
<glyph name="minus" format="1">
  <advance width="520"/>
  <unicode hex="2212"/>
  <outline>
    <contour>
      <point x="474" y="312" type="line"/>
      <point x="474" y="332" type="line"/>
      <point x="46" y="332" type="line"/>
      <point x="46" y="312" type="line"/>
    </contour>
  </outline>
</glyph>
<glyph name="divisionslash" format="1">
  <advance width="454"/>
  <unicode hex="2215"/>
  <outline>
    <contour>
      <point x="36" y="0" type="line"/>
      <point x="59" y="0" type="line"/>
      <point x="418" y="700" type="line"/>
      <point x="396" y="700" type="line"/>
    </contour>
  </outline>
</glyph>
<glyph name="bulletoperator" format="1">
  <advance width="303"/>
  <unicode hex="2219"/>
  <outline>
    <contour>
      <point x="209" y="215"/>
      <point x="257" y="263"/>
      <point x="257" y="321" type="curve" smooth="yes"/>
      <point x="257" y="379"/>
      <point x="209" y="425"/>
      <point x="152" y="425" type="curve" smooth="yes"/>
      <point x="94" y="425"/>
      <point x="46" y="379"/>
      <point x="46" y="321" type="curve" smooth="yes"/>
      <point x="46" y="263"/>
      <point x="94" y="215"/>
      <point x="152" y="215" type="curve" smooth="yes"/>
    </contour>
  </outline>
</glyph>
<glyph name="radical" format="1">
  <advance width="686"/>
  <unicode hex="221A"/>
  <outline>
    <contour>
      <point x="161" y="-200" type="line"/>
      <point x="185" y="-200" type="line"/>
      <point x="448" y="767" type="line"/>
      <point x="587" y="767" type="line"/>
      <point x="587" y="787" type="line"/>
      <point x="430" y="787" type="line"/>
      <point x="171" y="-166" type="line"/>
      <point x="56" y="152" type="line"/>
      <point x="36" y="146" type="line"/>
    </contour>
  </outline>
</glyph>
<glyph name="infinity" format="1">
  <advance width="714"/>
  <unicode hex="221E"/>
  <outline>
    <contour>
      <point x="68" y="388"/>
      <point x="117" y="439"/>
      <point x="186" y="439" type="curve" smooth="yes"/>
      <point x="259" y="439"/>
      <point x="297" y="382"/>
      <point x="341" y="315" type="curve" smooth="yes"/>
      <point x="389" y="242"/>
      <point x="436" y="178"/>
      <point x="525" y="178" type="curve" smooth="yes"/>
      <point x="612" y="178"/>
      <point x="668" y="240"/>
      <point x="668" y="318" type="curve" smooth="yes"/>
      <point x="668" y="397"/>
      <point x="610" y="459"/>
      <point x="527" y="459" type="curve" smooth="yes"/>
      <point x="463" y="459"/>
      <point x="409" y="423"/>
      <point x="341" y="324" type="curve" smooth="yes"/>
      <point x="303" y="269"/>
      <point x="258" y="198"/>
      <point x="183" y="198" type="curve" smooth="yes"/>
      <point x="119" y="198"/>
      <point x="68" y="251"/>
      <point x="68" y="320" type="curve" smooth="yes"/>
    </contour>
    <contour>
      <point x="46" y="240"/>
      <point x="107" y="178"/>
      <point x="184" y="178" type="curve" smooth="yes"/>
      <point x="263" y="178"/>
      <point x="312" y="244"/>
      <point x="361" y="314" type="curve" smooth="yes"/>
      <point x="409" y="382"/>
      <point x="454" y="439"/>
      <point x="528" y="439" type="curve" smooth="yes"/>
      <point x="598" y="439"/>
      <point x="646" y="387"/>
      <point x="646" y="318" type="curve" smooth="yes"/>
      <point x="646" y="250"/>
      <point x="599" y="198"/>
      <point x="525" y="198" type="curve" smooth="yes"/>
      <point x="445" y="198"/>
      <point x="403" y="260"/>
      <point x="361" y="323" type="curve" smooth="yes"/>
      <point x="313" y="396"/>
      <point x="270" y="459"/>
      <point x="187" y="459" type="curve" smooth="yes"/>
      <point x="105" y="459"/>
      <point x="46" y="398"/>
      <point x="46" y="320" type="curve" smooth="yes"/>
    </contour>
  </outline>
</glyph>
<glyph name="notequal" format="1">
  <advance width="520"/>
  <unicode hex="2260"/>
  <outline>
    <contour>
      <point x="363" y="503" type="line"/>
      <point x="341" y="503" type="line"/>
      <point x="119" y="59" type="line"/>
      <point x="141" y="59" type="line"/>
    </contour>
    <component base="equal" yOffset="-40"/>
  </outline>
</glyph>
<glyph name="lozenge" format="1">
  <advance width="452"/>
  <unicode hex="25CA"/>
  <outline>
    <contour>
      <point x="239" y="-40" type="line"/>
      <point x="406" y="350" type="line"/>
      <point x="238" y="740" type="line"/>
      <point x="214" y="740" type="line"/>
      <point x="46" y="350" type="line"/>
      <point x="213" y="-40" type="line"/>
    </contour>
    <contour>
      <point x="70" y="350" type="line"/>
      <point x="226" y="719" type="line"/>
      <point x="382" y="350" type="line"/>
      <point x="226" y="-19" type="line"/>
    </contour>
  </outline>
</glyph>
<glyph name=".notdef" format="1">
  <advance width="380"/>
  <outline>
    <contour>
      <point x="0" y="700" type="line"/>
      <point x="380" y="700" type="line"/>
      <point x="380" y="0" type="line"/>
      <point x="0" y="0" type="line"/>
    </contour>
    <component base="question" xOffset="48" yOffset="88" xScale="0.714" yScale="0.714"/>
  </outline>
</glyph>
<glyph name="a.alt" format="1">
  <advance width="511"/>
  <outline>
    <contour>
      <point x="410" y="0" type="line"/>
      <point x="410" y="500" type="line"/>
      <point x="388" y="500" type="line"/>
      <point x="388" y="0" type="line"/>
    </contour>
    <component base="b.bowl" xOffset="407" xScale="-1"/>
    <contour>
      <point x="243" y="500" type="move" name="top"/>
    </contour>
  </outline>
</glyph>
<glyph name="a.sc" format="1">
  <advance width="547"/>
  <outline>
    <contour>
      <point x="64" y="0" type="line"/>
      <point x="273" y="571" type="line"/>
      <point x="483" y="0" type="line"/>
      <point x="505" y="0" type="line"/>
      <point x="284" y="600" type="line"/>
      <point x="261" y="600" type="line"/>
      <point x="42" y="0" type="line"/>
    </contour>
    <contour>
      <point x="441" y="132" type="line"/>
      <point x="441" y="153" type="line"/>
      <point x="107" y="153" type="line"/>
      <point x="107" y="132" type="line"/>
    </contour>
    <contour>
      <point x="273" y="600" type="move" name="top"/>
    </contour>
  </outline>
</glyph>
<glyph name="ae.sc" format="1">
  <advance width="856"/>
  <outline>
    <contour>
      <point x="67" y="0" type="line"/>
      <point x="415" y="582" type="line"/>
      <point x="415" y="0" type="line"/>
      <point x="788" y="0" type="line"/>
      <point x="788" y="21" type="line"/>
      <point x="438" y="21" type="line"/>
      <point x="438" y="579" type="line"/>
      <point x="788" y="579" type="line"/>
      <point x="788" y="600" type="line"/>
      <point x="402" y="600" type="line"/>
      <point x="42" y="0" type="line"/>
    </contour>
    <contour>
      <point x="428" y="132" type="line"/>
      <point x="428" y="153" type="line"/>
      <point x="142" y="153" type="line"/>
      <point x="137" y="132" type="line"/>
    </contour>
    <contour>
      <point x="684" y="290" type="line"/>
      <point x="684" y="311" type="line"/>
      <point x="426" y="311" type="line"/>
      <point x="426" y="290" type="line"/>
    </contour>
  </outline>
</glyph>
<glyph name="at.alt" format="1">
  <advance width="905"/>
  <outline>
    <contour>
      <point x="452" y="-8" type="curve" smooth="yes"/>
      <point x="658" y="-8"/>
      <point x="815" y="151"/>
      <point x="815" y="347" type="curve" smooth="yes"/>
      <point x="815" y="549"/>
      <point x="658" y="708"/>
      <point x="452" y="708" type="curve" smooth="yes"/>
      <point x="247" y="708"/>
      <point x="90" y="549"/>
      <point x="90" y="347" type="curve" smooth="yes"/>
      <point x="90" y="151"/>
      <point x="247" y="-8"/>
    </contour>
    <contour>
      <point x="442" y="187" type="curve" smooth="yes"/>
      <point x="510" y="187"/>
      <point x="556" y="225"/>
      <point x="556" y="281" type="curve" smooth="yes"/>
      <point x="556" y="365" type="line"/>
      <point x="467" y="365" type="line" smooth="yes"/>
      <point x="391" y="365"/>
      <point x="343" y="329"/>
      <point x="343" y="270" type="curve" smooth="yes"/>
      <point x="343" y="219"/>
      <point x="381" y="187"/>
    </contour>
    <contour>
      <point x="441" y="208" type="curve" smooth="yes"/>
      <point x="394" y="208"/>
      <point x="366" y="233"/>
      <point x="366" y="271" type="curve" smooth="yes"/>
      <point x="366" y="315"/>
      <point x="404" y="344"/>
      <point x="465" y="344" type="curve" smooth="yes"/>
      <point x="537" y="344" type="line"/>
      <point x="537" y="281" type="line" smooth="yes"/>
      <point x="537" y="238"/>
      <point x="498" y="208"/>
    </contour>
    <contour>
      <point x="452" y="13" type="curve" smooth="yes"/>
      <point x="259" y="13"/>
      <point x="112" y="163"/>
      <point x="112" y="347" type="curve" smooth="yes"/>
      <point x="112" y="537"/>
      <point x="259" y="687"/>
      <point x="452" y="687" type="curve" smooth="yes"/>
      <point x="645" y="687"/>
      <point x="792" y="537"/>
      <point x="792" y="347" type="curve" smooth="yes"/>
      <point x="792" y="163"/>
      <point x="645" y="13"/>
    </contour>
    <contour>
      <point x="537" y="192" type="line"/>
      <point x="559" y="192" type="line"/>
      <point x="559" y="399" type="line" smooth="yes"/>
      <point x="559" y="465"/>
      <point x="524" y="502"/>
      <point x="459" y="502" type="curve" smooth="yes"/>
      <point x="399" y="502"/>
      <point x="358" y="472"/>
      <point x="353" y="424" type="curve"/>
      <point x="376" y="420" type="line"/>
      <point x="378" y="457"/>
      <point x="409" y="481"/>
      <point x="457" y="481" type="curve" smooth="yes"/>
      <point x="510" y="481"/>
      <point x="537" y="452"/>
      <point x="537" y="401" type="curve" smooth="yes"/>
    </contour>
  </outline>
</glyph>
<glyph name="b.bowl" format="1">
  <advance width="342"/>
  <outline>
    <contour>
      <point x="255" y="-8"/>
      <point x="319" y="46"/>
      <point x="336" y="123" type="curve" smooth="yes"/>
      <point x="343" y="155"/>
      <point x="342" y="191"/>
      <point x="342" y="250" type="curve" smooth="yes"/>
      <point x="342" y="305"/>
      <point x="343" y="344"/>
      <point x="336" y="377" type="curve" smooth="yes"/>
      <point x="320" y="454"/>
      <point x="255" y="508"/>
      <point x="167" y="508" type="curve" smooth="yes"/>
      <point x="79" y="508"/>
      <point x="23" y="454"/>
      <point x="6" y="377" type="curve" smooth="yes"/>
      <point x="-1" y="345"/>
      <point x="0" y="310"/>
      <point x="0" y="251" type="curve"/>
      <point x="0" y="195"/>
      <point x="-1" y="156"/>
      <point x="6" y="123" type="curve" smooth="yes"/>
      <point x="22" y="46"/>
      <point x="79" y="-8"/>
      <point x="167" y="-8" type="curve" smooth="yes"/>
    </contour>
    <contour>
      <point x="87" y="13"/>
      <point x="37" y="63"/>
      <point x="23" y="135" type="curve" smooth="yes"/>
      <point x="19" y="156"/>
      <point x="19" y="193"/>
      <point x="19" y="250" type="curve" smooth="yes"/>
      <point x="19" y="302"/>
      <point x="19" y="343"/>
      <point x="23" y="365" type="curve" smooth="yes"/>
      <point x="36" y="436"/>
      <point x="87" y="487"/>
      <point x="167" y="487" type="curve" smooth="yes"/>
      <point x="247" y="487"/>
      <point x="302" y="436"/>
      <point x="316" y="365" type="curve" smooth="yes"/>
      <point x="320" y="344"/>
      <point x="320" y="307"/>
      <point x="320" y="250" type="curve" smooth="yes"/>
      <point x="320" y="198"/>
      <point x="320" y="157"/>
      <point x="316" y="135" type="curve" smooth="yes"/>
      <point x="303" y="64"/>
      <point x="247" y="13"/>
      <point x="167" y="13" type="curve" smooth="yes"/>
    </contour>
  </outline>
</glyph>
<glyph name="b.sc" format="1">
  <advance width="541"/>
  <outline>
    <contour>
      <point x="99" y="0" type="line"/>
      <point x="304" y="0" type="line" smooth="yes"/>
      <point x="402" y="0"/>
      <point x="467" y="60"/>
      <point x="467" y="153" type="curve" smooth="yes"/>
      <point x="467" y="246"/>
      <point x="400" y="307"/>
      <point x="297" y="307" type="curve" smooth="yes"/>
      <point x="99" y="307" type="line"/>
    </contour>
    <contour>
      <point x="121" y="22" type="line"/>
      <point x="121" y="288" type="line"/>
      <point x="299" y="288" type="line" smooth="yes"/>
      <point x="386" y="288"/>
      <point x="445" y="234"/>
      <point x="445" y="154" type="curve" smooth="yes"/>
      <point x="445" y="74"/>
      <point x="388" y="22"/>
      <point x="304" y="22" type="curve" smooth="yes"/>
    </contour>
    <contour>
      <point x="99" y="289" type="line"/>
      <point x="297" y="289" type="line" smooth="yes"/>
      <point x="396" y="289"/>
      <point x="461" y="344"/>
      <point x="461" y="429" type="curve"/>
      <point x="461" y="518"/>
      <point x="396" y="576"/>
      <point x="299" y="576" type="curve" smooth="yes"/>
      <point x="99" y="576" type="line"/>
    </contour>
    <contour>
      <point x="121" y="308" type="line"/>
      <point x="121" y="555" type="line"/>
      <point x="299" y="555" type="line" smooth="yes"/>
      <point x="383" y="555"/>
      <point x="439" y="505"/>
      <point x="439" y="429" type="curve" smooth="yes"/>
      <point x="439" y="357"/>
      <point x="383" y="308"/>
      <point x="299" y="308" type="curve" smooth="yes"/>
    </contour>
  </outline>
</glyph>
<glyph name="c.sc" format="1">
  <advance width="575"/>
  <outline>
    <contour>
      <point x="417" y="-8"/>
      <point x="499" y="64"/>
      <point x="499" y="180" type="curve" smooth="yes"/>
      <point x="499" y="188" type="line"/>
      <point x="477" y="189" type="line"/>
      <point x="477" y="178" type="line" smooth="yes"/>
      <point x="477" y="76"/>
      <point x="403" y="13"/>
      <point x="293" y="13" type="curve" smooth="yes"/>
      <point x="181" y="13"/>
      <point x="107" y="76"/>
      <point x="107" y="178" type="curve" smooth="yes"/>
      <point x="107" y="422" type="line" smooth="yes"/>
      <point x="107" y="524"/>
      <point x="181" y="591"/>
      <point x="293" y="586" type="curve" smooth="yes"/>
      <point x="403" y="581"/>
      <point x="477" y="524"/>
      <point x="477" y="422" type="curve" smooth="yes"/>
      <point x="477" y="410" type="line"/>
      <point x="499" y="411" type="line"/>
      <point x="499" y="421" type="line" smooth="yes"/>
      <point x="499" y="536"/>
      <point x="417" y="607"/>
      <point x="293" y="607" type="curve" smooth="yes"/>
      <point x="167" y="607"/>
      <point x="85" y="536"/>
      <point x="85" y="421" type="curve" smooth="yes"/>
      <point x="85" y="180" type="line" smooth="yes"/>
      <point x="85" y="64"/>
      <point x="167" y="-8"/>
      <point x="293" y="-8" type="curve" smooth="yes"/>
    </contour>
    <contour>
      <point x="293" y="607" type="move" name="top"/>
    </contour>
    <contour>
      <point x="259" y="-8" type="move" name="bottom"/>
    </contour>
  </outline>
</glyph>
<glyph name="cedilla.alt" format="1">
  <advance width="185"/>
  <outline>
    <contour>
      <point x="148" y="-179"/>
      <point x="185" y="-148"/>
      <point x="185" y="-101" type="curve" smooth="yes"/>
      <point x="185" y="-58"/>
      <point x="153" y="-28"/>
      <point x="108" y="-28" type="curve" smooth="yes"/>
      <point x="87" y="-28"/>
      <point x="67" y="-35"/>
      <point x="53" y="-44" type="curve"/>
      <point x="74" y="2" type="line"/>
      <point x="56" y="12" type="line"/>
      <point x="22" y="-57" type="line"/>
      <point x="42" y="-76" type="line"/>
      <point x="57" y="-63"/>
      <point x="80" y="-51"/>
      <point x="106" y="-51" type="curve" smooth="yes"/>
      <point x="140" y="-51"/>
      <point x="163" y="-71"/>
      <point x="163" y="-102" type="curve" smooth="yes"/>
      <point x="163" y="-136"/>
      <point x="135" y="-158"/>
      <point x="96" y="-158" type="curve" smooth="yes"/>
      <point x="62" y="-158"/>
      <point x="32" y="-141"/>
      <point x="19" y="-119" type="curve"/>
      <point x="0" y="-130" type="line"/>
      <point x="15" y="-156"/>
      <point x="52" y="-179"/>
      <point x="96" y="-179" type="curve" smooth="yes"/>
    </contour>
    <contour>
      <point x="62" y="0" type="move" name="_bottom"/>
    </contour>
  </outline>
</glyph>
<glyph name="cedillacomb.alt" format="1">
  <advance width="185"/>
  <outline>
    <contour>
      <point x="96" y="-179" type="curve" smooth="yes"/>
      <point x="148" y="-179"/>
      <point x="185" y="-148"/>
      <point x="185" y="-101" type="curve" smooth="yes"/>
      <point x="185" y="-58"/>
      <point x="154" y="-29"/>
      <point x="108" y="-29" type="curve" smooth="yes"/>
      <point x="89" y="-29"/>
      <point x="67" y="-35"/>
      <point x="53" y="-44" type="curve"/>
      <point x="74" y="2" type="line"/>
      <point x="56" y="12" type="line"/>
      <point x="22" y="-57" type="line"/>
      <point x="40" y="-73" type="line"/>
      <point x="56" y="-59"/>
      <point x="82" y="-50"/>
      <point x="105" y="-50" type="curve" smooth="yes"/>
      <point x="140" y="-50"/>
      <point x="163" y="-71"/>
      <point x="163" y="-102" type="curve" smooth="yes"/>
      <point x="163" y="-136"/>
      <point x="136" y="-158"/>
      <point x="95" y="-158" type="curve" smooth="yes"/>
      <point x="63" y="-158"/>
      <point x="33" y="-144"/>
      <point x="20" y="-122" type="curve"/>
      <point x="0" y="-130" type="line"/>
      <point x="15" y="-156"/>
      <point x="52" y="-179"/>
    </contour>
    <contour>
      <point x="62" y="0" type="move" name="_bottom"/>
    </contour>
  </outline>
</glyph>
<glyph name="d.sc" format="1">
  <advance width="588"/>
  <outline>
    <contour>
      <point x="335" y="0" type="line" smooth="yes"/>
      <point x="448" y="0"/>
      <point x="518" y="59"/>
      <point x="518" y="156" type="curve" smooth="yes"/>
      <point x="518" y="445" type="line" smooth="yes"/>
      <point x="518" y="541"/>
      <point x="448" y="600"/>
      <point x="335" y="600" type="curve" smooth="yes"/>
      <point x="111" y="600" type="line"/>
      <point x="111" y="0" type="line"/>
    </contour>
    <contour>
      <point x="133" y="579" type="line"/>
      <point x="337" y="579" type="line" smooth="yes"/>
      <point x="435" y="579"/>
      <point x="496" y="528"/>
      <point x="496" y="444" type="curve" smooth="yes"/>
      <point x="496" y="155" type="line" smooth="yes"/>
      <point x="496" y="72"/>
      <point x="435" y="21"/>
      <point x="337" y="21" type="curve" smooth="yes"/>
      <point x="133" y="21" type="line"/>
    </contour>
    <contour>
      <point x="302" y="604" type="move" name="top"/>
    </contour>
  </outline>
</glyph>
<glyph name="e.sc" format="1">
  <advance width="530"/>
  <outline>
    <contour>
      <point x="99" y="0" type="line"/>
      <point x="469" y="0" type="line"/>
      <point x="469" y="21" type="line"/>
      <point x="121" y="21" type="line"/>
      <point x="121" y="554" type="line"/>
      <point x="469" y="554" type="line"/>
      <point x="469" y="575" type="line"/>
      <point x="99" y="575" type="line"/>
    </contour>
    <contour>
      <point x="110" y="278" type="line"/>
      <point x="376" y="278" type="line"/>
      <point x="376" y="299" type="line"/>
      <point x="110" y="299" type="line"/>
    </contour>
    <contour>
      <point x="258" y="0" type="move" name="bottom"/>
    </contour>
    <contour>
      <point x="258" y="584" type="move" name="top"/>
    </contour>
  </outline>
</glyph>
<glyph name="eight.dnom" format="1">
  <advance width="305"/>
  <outline>
    <contour>
      <point x="151" y="-8" type="curve" smooth="yes"/>
      <point x="206" y="-8"/>
      <point x="246" y="24"/>
      <point x="258" y="70" type="curve" smooth="yes"/>
      <point x="263" y="89"/>
      <point x="262" y="100"/>
      <point x="262" y="112" type="curve" smooth="yes"/>
      <point x="262" y="123"/>
      <point x="263" y="135"/>
      <point x="258" y="155" type="curve" smooth="yes"/>
      <point x="246" y="201"/>
      <point x="205" y="231"/>
      <point x="151" y="231" type="curve" smooth="yes"/>
      <point x="97" y="231"/>
      <point x="58" y="201"/>
      <point x="46" y="154" type="curve" smooth="yes"/>
      <point x="41" y="135"/>
      <point x="40" y="125"/>
      <point x="40" y="113" type="curve" smooth="yes"/>
      <point x="40" y="103"/>
      <point x="40" y="91"/>
      <point x="46" y="70" type="curve" smooth="yes"/>
      <point x="59" y="24"/>
      <point x="96" y="-8"/>
    </contour>
    <contour>
      <point x="151" y="13" type="curve" smooth="yes"/>
      <point x="104" y="13"/>
      <point x="72" y="41"/>
      <point x="65" y="82" type="curve" smooth="yes"/>
      <point x="63" y="94"/>
      <point x="63" y="103"/>
      <point x="63" y="113" type="curve" smooth="yes"/>
      <point x="63" y="120"/>
      <point x="63" y="131"/>
      <point x="66" y="144" type="curve" smooth="yes"/>
      <point x="75" y="184"/>
      <point x="104" y="213"/>
      <point x="151" y="213" type="curve" smooth="yes"/>
      <point x="197" y="213"/>
      <point x="231" y="184"/>
      <point x="238" y="144" type="curve" smooth="yes"/>
      <point x="240" y="132"/>
      <point x="239" y="123"/>
      <point x="239" y="114" type="curve" smooth="yes"/>
      <point x="239" y="105"/>
      <point x="240" y="93"/>
      <point x="238" y="82" type="curve" smooth="yes"/>
      <point x="231" y="42"/>
      <point x="197" y="13"/>
    </contour>
    <contour>
      <point x="151" y="232" type="curve" smooth="yes"/>
      <point x="102" y="232"/>
      <point x="73" y="258"/>
      <point x="65" y="294" type="curve" smooth="yes"/>
      <point x="63" y="303"/>
      <point x="62" y="311"/>
      <point x="62" y="316" type="curve" smooth="yes"/>
      <point x="62" y="323"/>
      <point x="64" y="332"/>
      <point x="66" y="340" type="curve" smooth="yes"/>
      <point x="75" y="376"/>
      <point x="103" y="402"/>
      <point x="151" y="402" type="curve" smooth="yes"/>
      <point x="196" y="402"/>
      <point x="229" y="379"/>
      <point x="238" y="340" type="curve" smooth="yes"/>
      <point x="240" y="331"/>
      <point x="240" y="322"/>
      <point x="240" y="317" type="curve" smooth="yes"/>
      <point x="240" y="311"/>
      <point x="239" y="301"/>
      <point x="238" y="294" type="curve" smooth="yes"/>
      <point x="233" y="257"/>
      <point x="199" y="232"/>
    </contour>
    <contour>
      <point x="151" y="214" type="curve" smooth="yes"/>
      <point x="207" y="214"/>
      <point x="245" y="242"/>
      <point x="258" y="285" type="curve" smooth="yes"/>
      <point x="262" y="298"/>
      <point x="263" y="308"/>
      <point x="263" y="317" type="curve" smooth="yes"/>
      <point x="263" y="326"/>
      <point x="262" y="338"/>
      <point x="258" y="351" type="curve" smooth="yes"/>
      <point x="244" y="395"/>
      <point x="206" y="422"/>
      <point x="151" y="422" type="curve" smooth="yes"/>
      <point x="98" y="422"/>
      <point x="62" y="397"/>
      <point x="46" y="351" type="curve" smooth="yes"/>
      <point x="41" y="337"/>
      <point x="40" y="325"/>
      <point x="40" y="317" type="curve" smooth="yes"/>
      <point x="40" y="310"/>
      <point x="41" y="299"/>
      <point x="46" y="284" type="curve" smooth="yes"/>
      <point x="61" y="239"/>
      <point x="98" y="214"/>
    </contour>
  </outline>
</glyph>
<glyph name="eng.sc" format="1">
  <advance width="586"/>
  <outline>
    <contour>
      <point x="381" y="-117" type="line"/>
      <point x="458" y="-117"/>
      <point x="486" y="-73"/>
      <point x="486" y="-1" type="curve" smooth="yes"/>
      <point x="486" y="469" type="line"/>
      <point x="464" y="469" type="line"/>
      <point x="464" y="-1" type="line" smooth="yes"/>
      <point x="464" y="-60"/>
      <point x="444" y="-96"/>
      <point x="381" y="-96" type="curve"/>
    </contour>
    <component base="n.sc"/>
  </outline>
</glyph>
<glyph name="eth.sc" format="1">
  <advance width="659"/>
  <outline>
    <contour>
      <point x="354" y="302" type="line"/>
      <point x="354" y="322" type="line"/>
      <point x="111" y="322" type="line"/>
      <point x="111" y="302" type="line"/>
    </contour>
    <component base="d.sc" xOffset="71"/>
  </outline>
</glyph>
<glyph name="f.sc" format="1">
  <advance width="545"/>
  <outline>
    <contour>
      <point x="133" y="0" type="line"/>
      <point x="133" y="579" type="line"/>
      <point x="520" y="579" type="line"/>
      <point x="520" y="600" type="line"/>
      <point x="111" y="600" type="line"/>
      <point x="111" y="0" type="line"/>
    </contour>
    <contour>
      <point x="417" y="290" type="line"/>
      <point x="417" y="311" type="line"/>
      <point x="122" y="311" type="line"/>
      <point x="122" y="290" type="line"/>
    </contour>
  </outline>
</glyph>
<glyph name="f_f_l.liga" format="1">
  <advance width="890"/>
  <outline>
    <contour>
      <point x="119" y="0" type="line"/>
      <point x="140" y="0" type="line"/>
      <point x="140" y="540" type="line" smooth="yes"/>
      <point x="140" y="627"/>
      <point x="159" y="679"/>
      <point x="254" y="679" type="curve" smooth="yes"/>
      <point x="285" y="679" type="line"/>
      <point x="285" y="700" type="line"/>
      <point x="254" y="700" type="line" smooth="yes"/>
      <point x="146" y="700"/>
      <point x="119" y="640"/>
      <point x="119" y="540" type="curve" smooth="yes"/>
    </contour>
    <contour>
      <point x="40" y="479" type="line"/>
      <point x="280" y="479" type="line"/>
      <point x="280" y="500" type="line"/>
      <point x="40" y="500" type="line"/>
    </contour>
    <contour>
      <point x="454" y="0" type="line"/>
      <point x="475" y="0" type="line"/>
      <point x="475" y="540" type="line" smooth="yes"/>
      <point x="475" y="627"/>
      <point x="494" y="679"/>
      <point x="589" y="679" type="curve" smooth="yes"/>
      <point x="620" y="679" type="line"/>
      <point x="620" y="700" type="line"/>
      <point x="589" y="700" type="line" smooth="yes"/>
      <point x="481" y="700"/>
      <point x="454" y="640"/>
      <point x="454" y="540" type="curve" smooth="yes"/>
    </contour>
    <contour>
      <point x="375" y="479" type="line"/>
      <point x="615" y="479" type="line"/>
      <point x="615" y="500" type="line"/>
      <point x="375" y="500" type="line"/>
    </contour>
    <contour>
      <point x="769" y="0" type="line"/>
      <point x="791" y="0" type="line"/>
      <point x="791" y="700" type="line"/>
      <point x="769" y="700" type="line"/>
    </contour>
    <contour>
      <point x="781" y="700" type="move" name="top"/>
    </contour>
  </outline>
</glyph>
<glyph name="five.dnom" format="1">
  <advance width="293"/>
  <outline>
    <contour>
      <point x="200" y="-8"/>
      <point x="234" y="14"/>
      <point x="251" y="54" type="curve" smooth="yes"/>
      <point x="259" y="73"/>
      <point x="263" y="97"/>
      <point x="263" y="124" type="curve" smooth="yes"/>
      <point x="263" y="152"/>
      <point x="259" y="175"/>
      <point x="251" y="195" type="curve" smooth="yes"/>
      <point x="234" y="234"/>
      <point x="203" y="256"/>
      <point x="156" y="256" type="curve" smooth="yes"/>
      <point x="110" y="256"/>
      <point x="67" y="236"/>
      <point x="54" y="201" type="curve"/>
      <point x="65" y="199" type="line"/>
      <point x="65" y="397" type="line"/>
      <point x="245" y="397" type="line"/>
      <point x="245" y="417" type="line"/>
      <point x="43" y="417" type="line"/>
      <point x="43" y="179" type="line"/>
      <point x="66" y="179" type="line"/>
      <point x="74" y="215"/>
      <point x="111" y="235"/>
      <point x="154" y="235" type="curve" smooth="yes"/>
      <point x="191" y="235"/>
      <point x="215" y="218"/>
      <point x="229" y="188" type="curve" smooth="yes"/>
      <point x="237" y="171"/>
      <point x="241" y="149"/>
      <point x="241" y="124" type="curve" smooth="yes"/>
      <point x="241" y="100"/>
      <point x="237" y="80"/>
      <point x="230" y="63" type="curve" smooth="yes"/>
      <point x="217" y="31"/>
      <point x="190" y="13"/>
      <point x="152" y="13" type="curve" smooth="yes"/>
      <point x="107" y="13"/>
      <point x="75" y="40"/>
      <point x="68" y="81" type="curve" smooth="yes"/>
      <point x="66" y="93"/>
      <point x="65" y="108"/>
      <point x="65" y="113" type="curve"/>
      <point x="42" y="113" type="line"/>
      <point x="42" y="108"/>
      <point x="42" y="90"/>
      <point x="47" y="71" type="curve" smooth="yes"/>
      <point x="59" y="24"/>
      <point x="97" y="-8"/>
      <point x="152" y="-8" type="curve" smooth="yes"/>
    </contour>
  </outline>
</glyph>
<glyph name="g.sc" format="1">
  <advance width="574"/>
  <outline>
    <contour>
      <point x="416" y="-7"/>
      <point x="498" y="63"/>
      <point x="498" y="172" type="curve" smooth="yes"/>
      <point x="498" y="289" type="line"/>
      <point x="301" y="289" type="line"/>
      <point x="301" y="269" type="line"/>
      <point x="476" y="269" type="line"/>
      <point x="476" y="171" type="line" smooth="yes"/>
      <point x="476" y="75"/>
      <point x="403" y="14"/>
      <point x="293" y="14" type="curve" smooth="yes"/>
      <point x="181" y="14"/>
      <point x="107" y="75"/>
      <point x="107" y="171" type="curve" smooth="yes"/>
      <point x="107" y="429" type="line" smooth="yes"/>
      <point x="107" y="525"/>
      <point x="181" y="586"/>
      <point x="293" y="586" type="curve" smooth="yes"/>
      <point x="403" y="586"/>
      <point x="476" y="525"/>
      <point x="476" y="434" type="curve" smooth="yes"/>
      <point x="476" y="411" type="line"/>
      <point x="498" y="411" type="line"/>
      <point x="498" y="433" type="line" smooth="yes"/>
      <point x="498" y="537"/>
      <point x="416" y="607"/>
      <point x="293" y="607" type="curve" smooth="yes"/>
      <point x="167" y="607"/>
      <point x="85" y="537"/>
      <point x="85" y="428" type="curve" smooth="yes"/>
      <point x="85" y="172" type="line" smooth="yes"/>
      <point x="85" y="63"/>
      <point x="167" y="-7"/>
      <point x="293" y="-7" type="curve" smooth="yes"/>
    </contour>
    <contour>
      <point x="291" y="607" type="move" name="top"/>
    </contour>
    <contour>
      <point x="291" y="-7" type="move" name="bottom"/>
    </contour>
  </outline>
</glyph>
<glyph name="g_j.liga" format="1">
  <advance width="749"/>
  <outline>
    <contour>
      <point x="511" y="-211" type="line"/>
      <point x="597" y="-211"/>
      <point x="650" y="-159"/>
      <point x="650" y="-74" type="curve" smooth="yes"/>
      <point x="650" y="500" type="line"/>
      <point x="628" y="500" type="line"/>
      <point x="628" y="-74" type="line" smooth="yes"/>
      <point x="628" y="-146"/>
      <point x="584" y="-190"/>
      <point x="511" y="-190" type="curve"/>
    </contour>
    <contour>
      <point x="639" y="620" type="curve" smooth="yes"/>
      <point x="660" y="620"/>
      <point x="672" y="631"/>
      <point x="672" y="650" type="curve" smooth="yes"/>
      <point x="672" y="669"/>
      <point x="660" y="679"/>
      <point x="639" y="679" type="curve" smooth="yes"/>
      <point x="621" y="679"/>
      <point x="608" y="669"/>
      <point x="608" y="650" type="curve" smooth="yes"/>
      <point x="608" y="631"/>
      <point x="621" y="620"/>
    </contour>
    <component base="g"/>
  </outline>
</glyph>
<glyph name="h.sc" format="1">
  <advance width="638"/>
  <outline>
    <contour>
      <point x="528" y="0" type="line"/>
      <point x="528" y="600" type="line"/>
      <point x="506" y="600" type="line"/>
      <point x="506" y="0" type="line"/>
    </contour>
    <contour>
      <point x="133" y="0" type="line"/>
      <point x="133" y="600" type="line"/>
      <point x="111" y="600" type="line"/>
      <point x="111" y="0" type="line"/>
    </contour>
    <contour>
      <point x="511" y="290" type="line"/>
      <point x="511" y="311" type="line"/>
      <point x="128" y="311" type="line"/>
      <point x="128" y="290" type="line"/>
    </contour>
    <contour>
      <point x="320" y="437" type="move" name="strokelong"/>
    </contour>
  </outline>
</glyph>
<glyph name="i.sc" format="1">
  <advance width="244"/>
  <outline>
    <contour>
      <point x="133" y="0" type="line"/>
      <point x="133" y="599" type="line"/>
      <point x="111" y="599" type="line"/>
      <point x="111" y="0" type="line"/>
    </contour>
    <contour>
      <point x="122" y="608" type="move" name="top"/>
    </contour>
  </outline>
</glyph>
<glyph name="j.sc" format="1">
  <advance width="545"/>
  <outline>
    <contour>
      <point x="354" y="-7"/>
      <point x="434" y="61"/>
      <point x="434" y="172" type="curve" smooth="yes"/>
      <point x="434" y="600" type="line"/>
      <point x="412" y="600" type="line"/>
      <point x="412" y="171" type="line" smooth="yes"/>
      <point x="412" y="73"/>
      <point x="341" y="14"/>
      <point x="234" y="14" type="curve" smooth="yes"/>
      <point x="127" y="14"/>
      <point x="56" y="73"/>
      <point x="56" y="171" type="curve" smooth="yes"/>
      <point x="56" y="215" type="line"/>
      <point x="34" y="215" type="line"/>
      <point x="34" y="172" type="line" smooth="yes"/>
      <point x="34" y="61"/>
      <point x="114" y="-7"/>
      <point x="234" y="-7" type="curve" smooth="yes"/>
    </contour>
  </outline>
</glyph>
<glyph name="k.sc" format="1">
  <advance width="571"/>
  <outline>
    <contour>
      <point x="133" y="0" type="line"/>
      <point x="133" y="236" type="line"/>
      <point x="248" y="339" type="line"/>
      <point x="518" y="0" type="line"/>
      <point x="546" y="0" type="line"/>
      <point x="264" y="356" type="line"/>
      <point x="523" y="600" type="line"/>
      <point x="497" y="600" type="line"/>
      <point x="133" y="265" type="line"/>
      <point x="133" y="600" type="line"/>
      <point x="111" y="600" type="line"/>
      <point x="111" y="0" type="line"/>
    </contour>
    <contour>
      <point x="310" y="0" type="move" name="bottom"/>
    </contour>
  </outline>
</glyph>
<glyph name="l.sc" format="1">
  <advance width="538"/>
  <outline>
    <contour>
      <point x="496" y="0" type="line"/>
      <point x="496" y="21" type="line"/>
      <point x="133" y="21" type="line"/>
      <point x="133" y="600" type="line"/>
      <point x="111" y="600" type="line"/>
      <point x="111" y="0" type="line"/>
    </contour>
    <contour>
      <point x="122" y="600" type="move" name="top"/>
    </contour>
    <contour>
      <point x="278" y="0" type="move" name="bottom"/>
    </contour>
  </outline>
</glyph>
<glyph name="m.sc" format="1">
  <advance width="681"/>
  <outline>
    <contour>
      <point x="133" y="0" type="line"/>
      <point x="133" y="556" type="line"/>
      <point x="333" y="281" type="line"/>
      <point x="350" y="281" type="line"/>
      <point x="548" y="556" type="line"/>
      <point x="548" y="0" type="line"/>
      <point x="570" y="0" type="line"/>
      <point x="570" y="600" type="line"/>
      <point x="548" y="600" type="line"/>
      <point x="340" y="310" type="line"/>
      <point x="133" y="600" type="line"/>
      <point x="111" y="600" type="line"/>
      <point x="111" y="0" type="line"/>
    </contour>
  </outline>
</glyph>
<glyph name="n.001" format="1">
  <advance width="521"/>
  <outline>
    <contour>
      <point x="110" y="0" type="line"/>
      <point x="110" y="500" type="line"/>
      <point x="88" y="500" type="line"/>
      <point x="88" y="0" type="line"/>
    </contour>
    <component base="n.curve" xOffset="92"/>
    <contour>
      <point x="255" y="500" type="move" name="top"/>
    </contour>
  </outline>
</glyph>
<glyph name="n.curve" format="1">
  <advance width="334"/>
  <outline>
    <contour>
      <point x="334" y="0" type="line"/>
      <point x="334" y="340" type="line" smooth="yes"/>
      <point x="334" y="439"/>
      <point x="267" y="507"/>
      <point x="171" y="507" type="curve" smooth="yes"/>
      <point x="68" y="507"/>
      <point x="0" y="441"/>
      <point x="0" y="339" type="curve"/>
      <point x="18" y="339" type="line"/>
      <point x="18" y="426"/>
      <point x="77" y="486"/>
      <point x="168" y="486" type="curve" smooth="yes"/>
      <point x="253" y="486"/>
      <point x="312" y="425"/>
      <point x="312" y="337" type="curve" smooth="yes"/>
      <point x="312" y="0" type="line"/>
    </contour>
  </outline>
</glyph>
<glyph name="n.sc" format="1">
  <advance width="586"/>
  <outline>
    <contour>
      <point x="121" y="0" type="line"/>
      <point x="121" y="537" type="line"/>
      <point x="465" y="0" type="line"/>
      <point x="487" y="0" type="line"/>
      <point x="487" y="575" type="line"/>
      <point x="465" y="575" type="line"/>
      <point x="465" y="38" type="line"/>
      <point x="121" y="575" type="line"/>
      <point x="99" y="575" type="line"/>
      <point x="99" y="0" type="line"/>
    </contour>
    <contour>
      <point x="294" y="584" type="move" name="top"/>
    </contour>
    <contour>
      <point x="296" y="0" type="move" name="bottom"/>
    </contour>
  </outline>
</glyph>
<glyph name="o.sc" format="1">
  <advance width="591"/>
  <outline>
    <contour>
      <point x="421" y="-6"/>
      <point x="506" y="69"/>
      <point x="506" y="190" type="curve" smooth="yes"/>
      <point x="506" y="409" type="line" smooth="yes"/>
      <point x="506" y="531"/>
      <point x="421" y="607"/>
      <point x="295" y="607" type="curve" smooth="yes"/>
      <point x="168" y="607"/>
      <point x="85" y="531"/>
      <point x="85" y="409" type="curve" smooth="yes"/>
      <point x="85" y="190" type="line" smooth="yes"/>
      <point x="85" y="69"/>
      <point x="168" y="-6"/>
      <point x="295" y="-6" type="curve" smooth="yes"/>
    </contour>
    <contour>
      <point x="181" y="14"/>
      <point x="107" y="80"/>
      <point x="107" y="190" type="curve" smooth="yes"/>
      <point x="107" y="410" type="line" smooth="yes"/>
      <point x="107" y="519"/>
      <point x="181" y="586"/>
      <point x="295" y="586" type="curve" smooth="yes"/>
      <point x="408" y="586"/>
      <point x="484" y="519"/>
      <point x="484" y="410" type="curve" smooth="yes"/>
      <point x="484" y="190" type="line" smooth="yes"/>
      <point x="484" y="80"/>
      <point x="408" y="14"/>
      <point x="295" y="14" type="curve" smooth="yes"/>
    </contour>
    <contour>
      <point x="295" y="607" type="move" name="top"/>
    </contour>
  </outline>
</glyph>
<glyph name="oe.sc" format="1">
  <advance width="868"/>
  <outline>
    <contour>
      <point x="391" y="-6"/>
      <point x="465" y="66"/>
      <point x="465" y="173" type="curve" smooth="yes"/>
      <point x="465" y="426" type="line" smooth="yes"/>
      <point x="465" y="534"/>
      <point x="391" y="607"/>
      <point x="275" y="607" type="curve" smooth="yes"/>
      <point x="161" y="607"/>
      <point x="85" y="533"/>
      <point x="85" y="425" type="curve" smooth="yes"/>
      <point x="85" y="174" type="line" smooth="yes"/>
      <point x="85" y="67"/>
      <point x="161" y="-6"/>
      <point x="275" y="-6" type="curve" smooth="yes"/>
    </contour>
    <contour>
      <point x="175" y="14"/>
      <point x="107" y="78"/>
      <point x="107" y="173" type="curve" smooth="yes"/>
      <point x="107" y="426" type="line" smooth="yes"/>
      <point x="107" y="521"/>
      <point x="175" y="586"/>
      <point x="275" y="586" type="curve" smooth="yes"/>
      <point x="378" y="586"/>
      <point x="447" y="521"/>
      <point x="447" y="426" type="curve" smooth="yes"/>
      <point x="447" y="173" type="line" smooth="yes"/>
      <point x="447" y="78"/>
      <point x="378" y="14"/>
      <point x="275" y="14" type="curve" smooth="yes"/>
    </contour>
    <contour>
      <point x="696" y="290" type="line"/>
      <point x="696" y="311" type="line"/>
      <point x="458" y="311" type="line"/>
      <point x="458" y="290" type="line"/>
    </contour>
    <contour>
      <point x="800" y="0" type="line"/>
      <point x="800" y="21" type="line"/>
      <point x="469" y="21" type="line"/>
      <point x="469" y="579" type="line"/>
      <point x="800" y="579" type="line"/>
      <point x="800" y="600" type="line"/>
      <point x="447" y="600" type="line"/>
      <point x="447" y="0" type="line"/>
    </contour>
    <contour>
      <point x="447" y="600" type="move" name="top"/>
    </contour>
  </outline>
</glyph>
<glyph name="one.dnom" format="1">
  <advance width="178"/>
  <outline>
    <contour>
      <point x="122" y="0" type="line"/>
      <point x="122" y="420" type="line"/>
      <point x="99" y="420" type="line"/>
      <point x="99" y="0" type="line"/>
    </contour>
    <contour>
      <point x="44" y="377" type="line"/>
      <point x="99" y="394" type="line"/>
      <point x="99" y="420" type="line"/>
      <point x="44" y="396" type="line"/>
    </contour>
  </outline>
</glyph>
<glyph name="p.sc" format="1">
  <advance width="559"/>
  <outline>
    <contour>
      <point x="124" y="0" type="line"/>
      <point x="124" y="581" type="line"/>
      <point x="349" y="581" type="line" smooth="yes"/>
      <point x="436" y="581"/>
      <point x="495" y="527"/>
      <point x="495" y="445" type="curve" smooth="yes"/>
      <point x="495" y="365"/>
      <point x="436" y="310"/>
      <point x="349" y="310" type="curve" smooth="yes"/>
      <point x="119" y="310" type="line"/>
      <point x="119" y="290" type="line"/>
      <point x="347" y="290" type="line" smooth="yes"/>
      <point x="449" y="290"/>
      <point x="517" y="351"/>
      <point x="517" y="445" type="curve" smooth="yes"/>
      <point x="517" y="539"/>
      <point x="449" y="602"/>
      <point x="347" y="602" type="curve" smooth="yes"/>
      <point x="102" y="602" type="line"/>
      <point x="102" y="0" type="line"/>
    </contour>
  </outline>
</glyph>
<glyph name="q.sc" format="1">
  <advance width="538"/>
  <outline>
    <contour>
      <point x="390" y="-7"/>
      <point x="471" y="66"/>
      <point x="471" y="183" type="curve" smooth="yes"/>
      <point x="471" y="417" type="line" smooth="yes"/>
      <point x="471" y="534"/>
      <point x="390" y="607"/>
      <point x="269" y="607" type="curve" smooth="yes"/>
      <point x="148" y="607"/>
      <point x="67" y="534"/>
      <point x="67" y="417" type="curve" smooth="yes"/>
      <point x="67" y="183" type="line" smooth="yes"/>
      <point x="67" y="66"/>
      <point x="148" y="-7"/>
      <point x="269" y="-7" type="curve" smooth="yes"/>
    </contour>
    <contour>
      <point x="280" y="-108" type="line"/>
      <point x="280" y="2" type="line"/>
      <point x="258" y="2" type="line"/>
      <point x="258" y="-108" type="line"/>
    </contour>
    <contour>
      <point x="161" y="14"/>
      <point x="89" y="78"/>
      <point x="89" y="182" type="curve" smooth="yes"/>
      <point x="89" y="418" type="line" smooth="yes"/>
      <point x="89" y="522"/>
      <point x="161" y="586"/>
      <point x="269" y="586" type="curve" smooth="yes"/>
      <point x="377" y="586"/>
      <point x="449" y="522"/>
      <point x="449" y="418" type="curve" smooth="yes"/>
      <point x="449" y="182" type="line" smooth="yes"/>
      <point x="449" y="78"/>
      <point x="377" y="14"/>
      <point x="269" y="14" type="curve" smooth="yes"/>
    </contour>
  </outline>
</glyph>
<glyph name="r.sc" format="1">
  <advance width="581"/>
  <outline>
    <contour>
      <point x="133" y="0" type="line"/>
      <point x="133" y="581" type="line"/>
      <point x="349" y="581" type="line" smooth="yes"/>
      <point x="436" y="581"/>
      <point x="495" y="527"/>
      <point x="495" y="446" type="curve" smooth="yes"/>
      <point x="495" y="368"/>
      <point x="436" y="314"/>
      <point x="349" y="314" type="curve" smooth="yes"/>
      <point x="128" y="314" type="line"/>
      <point x="128" y="293" type="line"/>
      <point x="347" y="293" type="line" smooth="yes"/>
      <point x="449" y="293"/>
      <point x="517" y="355"/>
      <point x="517" y="446" type="curve" smooth="yes"/>
      <point x="517" y="539"/>
      <point x="449" y="602"/>
      <point x="347" y="602" type="curve" smooth="yes"/>
      <point x="111" y="602" type="line"/>
      <point x="111" y="0" type="line"/>
    </contour>
    <contour>
      <point x="529" y="0" type="line"/>
      <point x="364" y="304" type="line"/>
      <point x="346" y="297" type="line"/>
      <point x="508" y="0" type="line"/>
    </contour>
    <contour>
      <point x="292" y="600" type="move" name="top"/>
    </contour>
    <contour>
      <point x="305" y="0" type="move" name="bottom"/>
    </contour>
  </outline>
</glyph>
<glyph name="s.sc" format="1">
  <advance width="554"/>
  <outline>
    <contour>
      <point x="420" y="-7"/>
      <point x="491" y="54"/>
      <point x="491" y="141" type="curve" smooth="yes"/>
      <point x="491" y="224"/>
      <point x="421" y="270"/>
      <point x="285" y="322" type="curve" smooth="yes"/>
      <point x="163" y="368"/>
      <point x="102" y="391"/>
      <point x="102" y="468" type="curve" smooth="yes"/>
      <point x="102" y="545"/>
      <point x="162" y="586"/>
      <point x="271" y="586" type="curve" smooth="yes"/>
      <point x="395" y="586"/>
      <point x="462" y="533"/>
      <point x="462" y="455" type="curve" smooth="yes"/>
      <point x="462" y="428" type="line"/>
      <point x="484" y="428" type="line"/>
      <point x="484" y="458" type="line" smooth="yes"/>
      <point x="484" y="547"/>
      <point x="410" y="607"/>
      <point x="273" y="607" type="curve" smooth="yes"/>
      <point x="148" y="607"/>
      <point x="81" y="558"/>
      <point x="81" y="467" type="curve" smooth="yes"/>
      <point x="81" y="379"/>
      <point x="144" y="353"/>
      <point x="269" y="304" type="curve"/>
      <point x="413" y="247"/>
      <point x="469" y="210"/>
      <point x="469" y="139" type="curve" smooth="yes"/>
      <point x="469" y="62"/>
      <point x="404" y="14"/>
      <point x="285" y="14" type="curve" smooth="yes"/>
      <point x="161" y="14"/>
      <point x="87" y="66"/>
      <point x="87" y="144" type="curve" smooth="yes"/>
      <point x="87" y="180" type="line"/>
      <point x="67" y="180" type="line"/>
      <point x="67" y="141" type="line" smooth="yes"/>
      <point x="67" y="52"/>
      <point x="148" y="-7"/>
      <point x="283" y="-7" type="curve" smooth="yes"/>
    </contour>
    <contour>
      <point x="272" y="607" type="move" name="top"/>
    </contour>
    <contour>
      <point x="277" y="-7" type="move" name="bottom"/>
    </contour>
  </outline>
</glyph>
<glyph name="seven.dnom" format="1">
  <advance width="265"/>
  <outline>
    <contour>
      <point x="106" y="0" type="line"/>
      <point x="250" y="400" type="line"/>
      <point x="250" y="420" type="line"/>
      <point x="15" y="420" type="line"/>
      <point x="15" y="377" type="line"/>
      <point x="35" y="377" type="line"/>
      <point x="35" y="400" type="line"/>
      <point x="226" y="400" type="line"/>
      <point x="81" y="0" type="line"/>
    </contour>
  </outline>
</glyph>
<glyph name="six.dnom" format="1">
  <advance width="302"/>
  <outline>
    <contour>
      <point x="211" y="-8"/>
      <point x="251" y="25"/>
      <point x="263" y="71" type="curve" smooth="yes"/>
      <point x="268" y="90"/>
      <point x="267" y="112"/>
      <point x="267" y="124" type="curve" smooth="yes"/>
      <point x="267" y="134"/>
      <point x="268" y="157"/>
      <point x="263" y="177" type="curve" smooth="yes"/>
      <point x="252" y="223"/>
      <point x="212" y="255"/>
      <point x="158" y="255" type="curve" smooth="yes"/>
      <point x="115" y="255"/>
      <point x="80" y="233"/>
      <point x="64" y="198" type="curve"/>
      <point x="68" y="198" type="line"/>
      <point x="68" y="321" type="line" smooth="yes"/>
      <point x="68" y="369"/>
      <point x="104" y="401"/>
      <point x="157" y="401" type="curve" smooth="yes"/>
      <point x="201" y="401"/>
      <point x="236" y="369"/>
      <point x="236" y="321" type="curve" smooth="yes"/>
      <point x="236" y="311" type="line"/>
      <point x="259" y="311" type="line"/>
      <point x="259" y="321" type="line" smooth="yes"/>
      <point x="259" y="382"/>
      <point x="215" y="422"/>
      <point x="157" y="422" type="curve" smooth="yes"/>
      <point x="90" y="422"/>
      <point x="46" y="382"/>
      <point x="46" y="321" type="curve" smooth="yes"/>
      <point x="46" y="125" type="line"/>
      <point x="46" y="114"/>
      <point x="45" y="91"/>
      <point x="51" y="71" type="curve" smooth="yes"/>
      <point x="65" y="25"/>
      <point x="101" y="-8"/>
      <point x="156" y="-8" type="curve" smooth="yes"/>
    </contour>
    <contour>
      <point x="111" y="13"/>
      <point x="78" y="40"/>
      <point x="71" y="80" type="curve" smooth="yes"/>
      <point x="69" y="92"/>
      <point x="69" y="114"/>
      <point x="69" y="124" type="curve" smooth="yes"/>
      <point x="69" y="132"/>
      <point x="68" y="154"/>
      <point x="71" y="167" type="curve" smooth="yes"/>
      <point x="80" y="206"/>
      <point x="111" y="235"/>
      <point x="156" y="235" type="curve" smooth="yes"/>
      <point x="202" y="235"/>
      <point x="235" y="207"/>
      <point x="242" y="167" type="curve" smooth="yes"/>
      <point x="244" y="155"/>
      <point x="245" y="134"/>
      <point x="245" y="124" type="curve" smooth="yes"/>
      <point x="245" y="116"/>
      <point x="245" y="93"/>
      <point x="242" y="80" type="curve" smooth="yes"/>
      <point x="233" y="41"/>
      <point x="202" y="13"/>
      <point x="156" y="13" type="curve" smooth="yes"/>
    </contour>
  </outline>
</glyph>
<glyph name="t.sc" format="1">
  <advance width="531"/>
  <outline>
    <contour>
      <point x="272" y="0" type="line"/>
      <point x="272" y="591" type="line"/>
      <point x="250" y="591" type="line"/>
      <point x="250" y="0" type="line"/>
    </contour>
    <contour>
      <point x="480" y="579" type="line"/>
      <point x="480" y="600" type="line"/>
      <point x="51" y="600" type="line"/>
      <point x="51" y="579" type="line"/>
    </contour>
    <contour>
      <point x="261" y="600" type="move" name="top"/>
    </contour>
    <contour>
      <point x="266" y="0" type="move" name="bottom"/>
    </contour>
  </outline>
</glyph>
<glyph name="thorn.sc" format="1">
  <advance width="477"/>
  <outline>
    <contour>
      <point x="91" y="0" type="line"/>
      <point x="113" y="0" type="line"/>
      <point x="113" y="576" type="line"/>
      <point x="91" y="576" type="line"/>
    </contour>
    <contour>
      <point x="113" y="138" type="line"/>
      <point x="287" y="138" type="line" smooth="yes"/>
      <point x="379" y="138"/>
      <point x="440" y="197"/>
      <point x="440" y="287" type="curve" smooth="yes"/>
      <point x="440" y="377"/>
      <point x="380" y="438"/>
      <point x="287" y="438" type="curve" smooth="yes"/>
      <point x="113" y="438" type="line"/>
      <point x="113" y="418" type="line"/>
      <point x="289" y="418" type="line" smooth="yes"/>
      <point x="366" y="418"/>
      <point x="418" y="365"/>
      <point x="418" y="287" type="curve" smooth="yes"/>
      <point x="418" y="210"/>
      <point x="366" y="158"/>
      <point x="289" y="158" type="curve" smooth="yes"/>
      <point x="113" y="158" type="line"/>
    </contour>
  </outline>
</glyph>
<glyph name="three.dnom" format="1">
  <advance width="321"/>
  <outline>
    <contour>
      <point x="205" y="-8"/>
      <point x="238" y="11"/>
      <point x="256" y="47" type="curve" smooth="yes"/>
      <point x="266" y="67"/>
      <point x="271" y="92"/>
      <point x="271" y="122" type="curve" smooth="yes"/>
      <point x="271" y="156"/>
      <point x="265" y="183"/>
      <point x="254" y="205" type="curve" smooth="yes"/>
      <point x="235" y="240"/>
      <point x="201" y="258"/>
      <point x="155" y="256" type="curve"/>
      <point x="156" y="247" type="line"/>
      <point x="269" y="397" type="line"/>
      <point x="269" y="417" type="line"/>
      <point x="50" y="417" type="line"/>
      <point x="50" y="397" type="line"/>
      <point x="242" y="397" type="line"/>
      <point x="127" y="247" type="line"/>
      <point x="138" y="234" type="line"/>
      <point x="145" y="236"/>
      <point x="151" y="237"/>
      <point x="159" y="237" type="curve" smooth="yes"/>
      <point x="193" y="237"/>
      <point x="219" y="222"/>
      <point x="233" y="194" type="curve" smooth="yes"/>
      <point x="243" y="175"/>
      <point x="248" y="151"/>
      <point x="248" y="122" type="curve" smooth="yes"/>
      <point x="248" y="96"/>
      <point x="243" y="74"/>
      <point x="235" y="57" type="curve" smooth="yes"/>
      <point x="220" y="28"/>
      <point x="195" y="13"/>
      <point x="159" y="13" type="curve" smooth="yes"/>
      <point x="114" y="13"/>
      <point x="81" y="41"/>
      <point x="74" y="81" type="curve" smooth="yes"/>
      <point x="72" y="92"/>
      <point x="72" y="109"/>
      <point x="72" y="120" type="curve"/>
      <point x="49" y="120" type="line"/>
      <point x="49" y="108"/>
      <point x="49" y="89"/>
      <point x="54" y="72" type="curve" smooth="yes"/>
      <point x="68" y="25"/>
      <point x="104" y="-8"/>
      <point x="159" y="-8" type="curve" smooth="yes"/>
    </contour>
  </outline>
</glyph>
<glyph name="u.sc" format="1">
  <advance width="628"/>
  <outline>
    <contour>
      <point x="441" y="-7"/>
      <point x="526" y="67"/>
      <point x="526" y="186" type="curve" smooth="yes"/>
      <point x="526" y="599" type="line"/>
      <point x="504" y="599" type="line"/>
      <point x="504" y="184" type="line" smooth="yes"/>
      <point x="504" y="78"/>
      <point x="428" y="14"/>
      <point x="314" y="14" type="curve" smooth="yes"/>
      <point x="199" y="14"/>
      <point x="124" y="78"/>
      <point x="124" y="184" type="curve" smooth="yes"/>
      <point x="124" y="599" type="line"/>
      <point x="102" y="599" type="line"/>
      <point x="102" y="186" type="line" smooth="yes"/>
      <point x="102" y="67"/>
      <point x="186" y="-7"/>
      <point x="314" y="-7" type="curve" smooth="yes"/>
    </contour>
    <contour>
      <point x="314" y="609" type="move" name="top"/>
    </contour>
    <contour>
      <point x="315" y="0" type="move" name="bottom"/>
    </contour>
  </outline>
</glyph>
<glyph name="v.sc" format="1">
  <advance width="550"/>
  <outline>
    <contour>
      <point x="285" y="0" type="line"/>
      <point x="508" y="600" type="line"/>
      <point x="487" y="600" type="line"/>
      <point x="274" y="33" type="line"/>
      <point x="64" y="600" type="line"/>
      <point x="42" y="600" type="line"/>
      <point x="263" y="0" type="line"/>
    </contour>
  </outline>
</glyph>
<glyph name="w.sc" format="1">
  <advance width="847"/>
  <outline>
    <contour>
      <point x="250" y="0" type="line"/>
      <point x="422" y="565" type="line"/>
      <point x="593" y="0" type="line"/>
      <point x="615" y="0" type="line"/>
      <point x="805" y="600" type="line"/>
      <point x="783" y="600" type="line"/>
      <point x="604" y="40" type="line"/>
      <point x="432" y="600" type="line"/>
      <point x="410" y="600" type="line"/>
      <point x="240" y="40" type="line"/>
      <point x="64" y="600" type="line"/>
      <point x="42" y="600" type="line"/>
      <point x="228" y="0" type="line"/>
    </contour>
    <contour>
      <point x="422" y="600" type="move" name="top"/>
    </contour>
  </outline>
</glyph>
